<?xml version="1.0" encoding="utf-8"?>
<!-- Generator: Adobe Illustrator 15.0.2, SVG Export Plug-In  -->
<!DOCTYPE svg PUBLIC "-//W3C//DTD SVG 1.1//EN" "http://www.w3.org/Graphics/SVG/1.1/DTD/svg11.dtd" [
	<!ENTITY ns_flows "http://ns.adobe.com/Flows/1.0/">
]>
<svg version="1.1"
	 xmlns="http://www.w3.org/2000/svg" xmlns:xlink="http://www.w3.org/1999/xlink" xmlns:a="http://ns.adobe.com/AdobeSVGViewerExtensions/3.0/"
	 x="0px" y="0px" width="511px" height="464px" viewBox="-12.401 -24.585 511 464"
	 overflow="visible" enable-background="new -12.401 -24.585 511 464" xml:space="preserve">
<defs>
</defs>
<path d="M166.438,112.214c6.72,0,12-5.28,12-12v-79.2c0-6.72-5.28-12-12-12c-6.72,0-12,5.28-12,12v79.2
	C154.438,106.935,159.719,112.214,166.438,112.214z"/>
<path d="M20.039,177.975h79.2c6.72,0,12-5.28,12-12s-5.28-12-12-12h-79.2c-6.72,0-12,5.28-12,12S13.319,177.975,20.039,177.975z"/>
<path d="M97.318,114.135c2.4,2.4,5.28,3.36,8.64,3.36s6.24-0.96,8.64-3.36c4.8-4.8,4.8-12.48,0-16.8l-25.44-25.44
	c-4.8-4.8-12.48-4.8-16.8,0c-4.8,4.8-4.8,12.48,0,16.8L97.318,114.135z"/>
<path d="M224.999,118.455c2.879,0,6.24-0.96,8.64-3.36l25.44-25.44c4.8-4.8,4.8-12.48,0-16.8c-4.801-4.8-12.48-4.8-16.801,0
	l-25.439,25.44c-4.801,4.8-4.801,12.48,0,16.8C218.759,117.015,222.118,118.455,224.999,118.455z"/>
<path d="M88.199,260.055l25.44-25.44c4.8-4.8,4.8-12.48,0-16.8c-4.8-4.8-12.48-4.8-16.8,0l-25.44,25.44c-4.8,4.8-4.8,12.48,0,16.8
	c2.4,2.4,5.28,3.36,8.64,3.36S85.799,262.455,88.199,260.055z"/>
<path d="M213.958,375.254c4.801,0.48,9.601-1.92,12-6.24l29.28-56.159l84,84c7.681,7.68,17.28,11.52,27.36,11.52
	s19.68-3.84,27.36-11.52c14.88-14.881,14.88-39.36,0-54.721l0,0l-84-84.479l56.64-29.28c4.32-2.4,6.72-7.2,6.24-12
	c-0.48-4.8-3.84-9.12-8.641-10.56l-200.64-56.16c-4.32-0.96-8.64,0-11.52,2.88s-4.32,7.68-3.36,11.52l55.2,202.08
	C204.839,371.415,209.159,374.775,213.958,375.254z M328.198,221.174l-44.159,23.04c-3.36,1.92-5.761,4.8-6.24,8.64
	c-0.48,3.84,0.479,7.68,3.359,10.56l95.521,95.52c5.76,5.761,5.76,14.881,0,20.641s-14.88,5.76-20.64,0l-95.04-95.521
	c-2.4-2.399-5.28-3.359-8.641-3.359c-0.479,0-1.439,0-1.92,0c-3.84,0.479-7.2,2.88-8.64,6.239l-23.04,43.681l-41.28-152.16
	L328.198,221.174z"/>
<path fill="#B3E0E0" stroke="#000000" stroke-width="4" stroke-miterlimit="10" d="M148.438,14.015c0,0-0.16-11.4,12-12
	c0,0,12,3.6,12,12v79.2c0,0-1.16,11.3-12,12c0,0-9.16,1.8-12-12V14.015z"/>
<path fill="#B3E0E0" stroke="#000000" stroke-width="4" stroke-miterlimit="10" d="M93.284,146.999c0,0,11.4-0.153,11.993,12.008
	c0,0-3.607,11.998-12.007,11.992l-79.2-0.049c0,0-11.299-1.167-11.993-12.007c0,0-1.794-9.161,12.007-11.993L93.284,146.999z"/>
<path fill="#E6B3C9" stroke="#000000" stroke-width="4" stroke-miterlimit="10" d="M66.358,81.694c0,0-8.24-9.32,0-16.8
	c0,0,9.07-7.73,16.8,0l25.44,25.44c0,0,8,10.021,0,16.8c0,0-10.366,7.048-17.28,0L66.358,81.694z"/>
<path fill="#E6B3C9" stroke="#000000" stroke-width="4" stroke-miterlimit="10" d="M90.619,210.908c0,0,9.292-8.271,16.8-0.056
	c0,0,7.76,9.044,0.056,16.8l-25.355,25.524c0,0-9.994,8.033-16.8,0.056c0,0-7.083-10.342-0.058-17.28L90.619,210.908z"/>
<path fill="#E6B3C9" stroke="#000000" stroke-width="4" stroke-miterlimit="10" d="M236.209,65.806c0,0,9.353-8.203,16.8,0.066
	c0,0,7.694,9.101-0.066,16.801l-25.54,25.339c0,0-10.052,7.96-16.8-0.066c0,0-7.007-10.393,0.068-17.28L236.209,65.806z"/>
<path fill="#6793A1" stroke="#000000" stroke-width="4" stroke-miterlimit="10" d="M142.679,157.055c0,0-1.388-8.77,3.36-11.52
	c0,0,7.113-4.113,11.52-2.88l200.64,56.16c0,0,9.729,4.154,8.641,10.56c0,0,0.755,8.384-6.24,12l-56.64,29.28l84,84.479
	c0,0,25.36,24.161,0,54.721c0,0-24.081,25.44-54.721,0l-84-84l-29.28,56.159c0,0-6.75,8.074-12,6.24c0,0-8.063-1.738-10.08-9.12
	L142.679,157.055z"/>
</svg>
