<?xml version="1.0" encoding="utf-8"?>
<!-- Generator: Adobe Illustrator 15.0.2, SVG Export Plug-In  -->
<!DOCTYPE svg PUBLIC "-//W3C//DTD SVG 1.1//EN" "http://www.w3.org/Graphics/SVG/1.1/DTD/svg11.dtd" [
	<!ENTITY ns_flows "http://ns.adobe.com/Flows/1.0/">
]>
<svg version="1.1"
	 xmlns="http://www.w3.org/2000/svg" xmlns:xlink="http://www.w3.org/1999/xlink" xmlns:a="http://ns.adobe.com/AdobeSVGViewerExtensions/3.0/"
	 x="0px" y="0px" width="100px" height="100px" viewBox="-12 -12.8 100 100"
	 overflow="visible" enable-background="new -12 -12.8 100 100" xml:space="preserve">
<defs>
</defs>
<path fill="#B3E0E0" d="M4.8,6.4c0,0-0.083-1.6,1.6-1.6h16c0,0,0.451-0.21,1.075,0.6L30,14.925c0,0,0.5,1.075,2,1.075h33.6
	c0,0,1.601,0.166,1.601,1.6V56c0,0,0.083,1.601-1.601,1.601H6.4c0,0-1.6,0.032-1.6-1.601V6.4z"/>
<path d="M6.4,0C2.896,0,0,2.896,0,6.4V56c0,3.505,2.896,6.4,6.4,6.4h59.2c3.504,0,6.4-2.896,6.4-6.4V17.6c0-3.504-2.896-6.4-6.4-6.4
	H33.3c-2.23-2.88-4.083-6.821-6.425-9.2c-1.03-1.029-2.588-2-4.475-2H6.4z M6.4,4.8h16c0.33,0,0.566,0.09,1.075,0.6
	c2.332,2.957,4.332,6.235,6.525,9.525C30.435,15.583,31.211,16,32,16h33.6c0.928,0,1.601,0.672,1.601,1.6V56
	c0,0.929-0.673,1.601-1.601,1.601H6.4c-0.928,0-1.6-0.672-1.6-1.601V6.4C4.8,5.472,5.472,4.8,6.4,4.8z M27.575,22.4
	c-2.337,0-4.681,0.867-6.475,2.6c-3.589,3.467-3.589,9.259,0,12.726l3.625,3.5l9.6,9.274c0.926,0.911,2.41,0.921,3.35,0.024
	l9.601-9.299l3.625-3.5c3.588-3.467,3.588-9.259,0-12.726c-3.59-3.466-9.361-3.466-12.95,0L36,26.875L34.05,25
	C32.261,23.271,29.912,22.4,27.575,22.4L27.575,22.4z M27.575,27.2c1.138,0,2.251,0.406,3.125,1.25l3.625,3.5
	c0.933,0.903,2.417,0.903,3.35,0l3.625-3.5c1.737-1.677,4.538-1.677,6.275,0c1.736,1.678,1.736,4.147,0,5.825l-3.625,3.5L36,45.45
	l-7.925-7.675c-0.008,0-0.017,0-0.025,0l-3.625-3.5c-1.737-1.678-1.737-4.147,0-5.825C25.294,27.611,26.437,27.2,27.575,27.2
	L27.575,27.2z"/>
<path fill="#E6B3C9" d="M24.425,28.45c0,0,1.035-1.767,3.15-1.25c0,0,2.075-0.667,3.125,1.25l3.625,3.5c0,0,1.688,1.603,3.555-0.198
	l3.42-3.302c0,0,2.851-3.334,6.275,0c0,0,3.625,2.325,0,5.825L36,45.45L24.425,34.275C24.425,34.275,21.351,31.7,24.425,28.45z"/>
</svg>
