<?xml version="1.0" encoding="utf-8"?>
<!-- Generator: Adobe Illustrator 15.0.2, SVG Export Plug-In  -->
<!DOCTYPE svg PUBLIC "-//W3C//DTD SVG 1.1//EN" "http://www.w3.org/Graphics/SVG/1.1/DTD/svg11.dtd" [
	<!ENTITY ns_flows "http://ns.adobe.com/Flows/1.0/">
]>
<svg version="1.1"
	 xmlns="http://www.w3.org/2000/svg" xmlns:xlink="http://www.w3.org/1999/xlink" xmlns:a="http://ns.adobe.com/AdobeSVGViewerExtensions/3.0/"
	 x="0px" y="0px" width="543px" height="369px" viewBox="-38.954 -14.141 543 369"
	 overflow="visible" enable-background="new -38.954 -14.141 543 369" xml:space="preserve">
<defs>
</defs>
<path d="M367.725,47.04C326.925,16.8,273.165,0,216.045,0s-110.88,16.8-151.68,47.04c-41.28,30.72-64.32,72-64.32,116.16
	c0,32.64,12.48,63.839,36.48,90.72c-5.28,11.04-14.4,20.159-24,24c-7.2,2.88-11.52,8.159-12.48,14.399
	c-0.48,6.72,2.88,13.44,10.56,18.24c15.36,10.08,48,12.96,90.24-9.6c34.56,16.319,73.92,24.96,114.72,24.96
	c57.12,0,110.88-16.801,151.68-47.04c41.28-30.721,64.319-72,64.319-116.16C431.564,118.56,409.005,77.76,367.725,47.04z
	 M216.045,306.72c-39.84,0-77.76-8.641-110.4-24.96l-4.8-2.4l-4.8,2.4c-38.88,22.08-64.8,18.24-73.44,13.439
	c15.36-7.199,28.32-22.08,34.56-40.319l1.92-5.761l-4.32-4.319c-23.04-24-35.52-52.32-35.52-82.08
	c0-79.2,87.84-143.52,196.32-143.52s196.32,64.32,196.32,143.52C412.365,242.4,324.045,306.72,216.045,306.72z"/>
<path d="M367.725,118.56c1.92-4.8-0.479-10.08-4.8-12.48c-4.8-2.4-10.56-0.96-12.479,3.84c-1.44,3.84-3.841,4.8-7.681,4.8
	c-0.479,0-0.96,0-1.439,0c-3.84,0-3.84,0-4.8,3.84c-0.961,4.8-2.4,9.6-3.36,14.88c4.32-0.48,8.64-0.48,12.96-0.96
	c2.4,0,4.32-0.48,5.28,2.4c1.92,3.84,5.76,5.76,9.6,5.28c4.32-0.48,7.68-3.84,8.64-8.16c0-0.48,0.48-0.96,0.48-0.96
	c0-0.48,0-0.96,0-1.44c-0.48-1.44-0.48-2.88-1.44-3.84C365.805,122.88,366.765,120.96,367.725,118.56z"/>
<path d="M213.165,77.28c-4.8,1.44-7.68,7.2-6.24,12c1.92,6.24,9.12,9.6,14.88,5.76c1.44-0.96,2.4-0.48,3.36,0.48
	c3.36,2.88,7.2,5.76,11.04,8.16c0.48,0.48,0.96,0.48,1.439,0.48c0.96-5.76,2.881-11.04,5.761-16.32c0.479-1.44,0-1.92-0.96-2.88
	c-1.92-1.44-3.36-2.88-5.28-4.32c-1.92-0.48-1.92-1.92-1.92-3.84c0.479-1.44,0.479-3.36,0-4.8c-0.96-4.32-4.32-6.24-8.16-7.68
	c-0.96,0-2.399,0-3.36,0c-5.279,1.44-7.68,4.8-8.64,10.08C215.085,75.84,214.605,76.8,213.165,77.28z"/>
<path d="M343.245,158.88c-1.92,0.96-3.36,0.96-4.8-0.48c-4.32-3.36-9.12-6.72-13.44-10.56c-1.44-0.96-2.4-0.96-3.84,0
	c-3.84,2.88-8.16,5.76-12.48,8.64c-0.479,0.48-0.96,0.48-1.439,0.96c6.72,4.8,12.96,10.08,19.2,14.88c1.92,1.44,2.399,2.4,1.92,4.8
	c-0.96,3.84,0.96,8.16,4.319,10.56c3.36,2.4,8.16,1.92,11.521-0.48c3.359-2.4,4.32-5.76,4.32-9.6c0.96-0.48,1.92-0.48,2.399-0.96
	c5.28-1.92,8.16-8.16,5.76-13.44C354.765,158.88,348.525,156.48,343.245,158.88z"/>
<path d="M237.645,122.88c-0.479-1.44-1.439-1.92-2.879-1.92c-5.761,0.48-11.521,0.96-17.281,1.44c-1.919,0-2.879-0.48-3.839-1.92
	c-2.88-5.28-9.6-7.2-14.4-3.84c-4.8,3.36-6.24,9.6-2.4,14.88c0.96,1.44,0.96,1.92,0.48,3.36c-2.88,4.32-1.92,9.6,1.92,12.96
	c5.28,4.8,13.44,2.4,15.84-3.84c0.48-1.44,0.96-2.4,2.399-2.4c2.4,0,5.281-0.48,7.681-0.48c5.76-0.48,12-0.96,18.24-1.44
	c-0.48-0.96-0.48-1.44-0.96-1.92C241.485,132,239.564,127.68,237.645,122.88z"/>
<path d="M298.604,170.88c0.96-2.4,1.921-5.28,2.4-7.68c0.96-5.28,4.32-8.64,8.64-11.52c14.881-8.64,21.601-22.08,22.561-39.36
	c0-2.4-0.48-5.28-0.96-8.16c-5.28-28.8-37.44-45.12-63.84-32.16c-15.841,7.68-24.48,20.64-25.44,38.4
	c-0.479,7.68,1.44,15.36,4.8,22.08c2.4,4.8,2.88,9.6,0.96,14.4c-0.96,2.4-1.439,5.28-2.399,7.68c-0.48,2.88,0,4.8,2.88,5.76
	c2.88,1.44,3.359,1.44,5.76-1.44c0.48-0.48,0.48-0.96,0.96-0.96c0.96-0.48,2.4-0.96,3.36-0.48s0.96,1.92,1.439,2.88
	c0,0,0,0.48,0,0.96c0,1.92,0.96,3.36,3.36,3.84c1.92,0.48,3.84,0.48,4.8-1.44s2.4-2.4,4.32-1.92c1.92,0.479,2.399,1.92,2.399,3.84
	c0,2.4,0.96,3.36,3.36,3.84s3.84,0.48,4.8-1.44c0.96-1.44,1.92-2.4,3.84-1.92c1.921,0.48,2.4,1.92,1.921,3.84
	c0,1.44,0,2.4,1.439,3.36C292.845,175.2,297.165,173.76,298.604,170.88z M301.485,113.76c6.72-3.84,14.399,0.48,15.359,8.64
	c0,0.48,0,1.44,0,1.92c0,5.76-2.399,10.56-7.2,13.92c-5.279,3.36-11.04,1.44-13.92-4.32C291.885,127.2,294.765,117.6,301.485,113.76
	z M259.245,126.72c-4.32-1.44-5.76-4.8-6.72-9.12c0-0.96,0-1.44,0-2.4c0-2.4,0.479-4.8,1.439-6.72s1.92-3.84,3.84-5.76
	c0.48-0.48,0.96-0.96,1.92-1.44l0.48-0.48c0.479-0.48,0.96-0.48,1.439-0.48c1.44-0.48,2.881-0.96,4.801-0.96
	c0.479,0,1.439,0,2.399,0.48c0.48,0,0.48,0,0.48,0.48c1.439,0.48,2.88,1.44,3.84,2.88c0.479,0.48,0.479,0.96,0.96,0.96
	c0,0.48,0.479,0.96,0.479,1.44s0.48,0.96,0.48,1.44s0.479,0.96,0.479,1.44c1.44,6.24-0.479,11.52-4.8,15.84
	C266.445,126.72,263.085,128.16,259.245,126.72z M288.045,141.12c-2.88,1.44-7.2,0.48-8.64-2.4c0,0,0-0.48-0.48-0.48
	c-2.399,2.4-7.68,0.48-9.12-2.88c-0.96-1.92-0.479-3.84,1.44-5.28c3.359-2.88,7.2-2.88,11.04-3.36c0.479,0,0.96,0.48,1.439,0.96
	c1.92,1.92,4.32,3.84,5.761,6.24C290.925,136.32,290.445,139.68,288.045,141.12z"/>
<path d="M206.925,230.4c0-1.92,0.48-3.84,0.96-5.76c0-0.96,0-1.44-0.96-1.92c-8.64-2.88-16.8-5.76-25.44-8.64
	c-1.92-0.48-3.84-1.44-6.24-1.92c-0.96,2.88-1.44,5.28-2.4,7.68c-0.48,1.44-0.96,3.36-0.96,4.8c0,1.439-0.48,2.88-0.48,4.8
	c0,0.48,0,0.48,0,0.96c0,9.12,1.92,17.76,6.72,25.44c1.44,2.399,3.36,4.8,4.8,7.199c9.12-8.159,18.24-15.84,27.36-23.52
	c-0.48-0.96-0.96-1.44-1.92-2.4C207.405,235.2,206.445,233.28,206.925,230.4z"/>
<path d="M244.365,236.16c-1.92-0.479-3.84-1.439-5.28-1.92c-1.44,2.4-2.88,5.28-4.319,7.2c-1.921,2.4-4.801,3.36-7.201,3.84
	c0,0.48,0,0.96,0,0.96c2.4,9.601,4.32,18.721,6.721,28.32c0.48,1.92,0.96,4.32,1.439,6.24l0,0c2.4-0.48,4.801-1.44,6.721-1.92
	c13.92-5.28,23.04-15.36,27.84-28.801c0.479-1.439,0.96-2.88,1.439-4.8V244.8h-0.479C262.125,241.92,253.485,239.04,244.365,236.16z
	"/>
<path d="M227.564,173.76h-0.479c-1.92,0-4.319,0-6.24,0.48c-2.399,0.48-4.8,0.96-6.72,0.96c2.4,12,4.8,24,7.199,36
	c2.881-0.48,5.761-0.96,8.16,0c2.4,0.96,4.801,2.88,6.721,4.8c8.64-8.16,16.8-16.8,24.96-24.96c-0.96-1.44-1.92-2.4-3.36-3.36
	c-5.76-6.24-12.479-10.56-20.16-12.48c-1.92-0.48-3.84-0.96-5.279-1.44C230.445,173.76,229.005,173.76,227.564,173.76z"/>
<path d="M234.285,228.96c0-0.48,0-0.96,0-1.44c0-7.2-7.68-12.48-14.4-10.08c-3.84,1.44-7.68,5.76-7.2,11.521
	c0,6.239,6.24,11.52,12.48,10.56C229.965,238.56,233.805,234.72,234.285,228.96z"/>
<polygon points="100.365,133.92 73.965,143.52 105.165,219.84 124.845,212.64 "/>
<path d="M119.085,228c-7.68,2.88-11.52,11.52-8.64,18.72s11.04,11.52,18.72,8.64c7.68-2.88,11.52-11.52,9.12-18.72
	C135.405,228.96,126.765,225.12,119.085,228z"/>
<path d="M155.565,180.48c-3.84-0.96-7.68,1.92-8.64,5.76c-0.96,3.84,1.92,7.68,5.76,8.64c3.84,0.96,7.68-1.92,8.64-5.76
	C162.285,185.28,159.405,180.96,155.565,180.48z"/>
<path d="M180.525,151.68c1.44-8.16-4.32-15.36-15.36-17.28c-7.68-1.44-15.36,0-21.12,4.8l5.28,9.6c3.36-2.88,7.68-4.32,12-3.36
	c4.8,0.96,6.24,3.84,5.76,6.24c-1.44,6.24-14.4,4.8-16.32,14.88c-0.479,2.88,0,6.24,1.44,8.16l10.08-0.96
	c-0.96-0.96-1.44-2.4-0.96-3.84C163.245,162.72,178.125,164.64,180.525,151.68z"/>
<polygon points="337.965,221.76 321.165,223.2 329.805,208.32 321.165,204 313.965,219.36 305.805,204.48 297.165,209.76 
	306.765,223.68 289.965,223.68 290.445,233.28 307.245,231.84 298.604,246.72 307.245,251.04 314.445,235.68 323.085,250.56 
	331.245,245.28 321.645,231.36 338.445,231.84 "/>
<path d="M122.925,117.6C122.925,117.6,123.405,117.6,122.925,117.6c32.16-24,63.84-48.48,95.04-72.96l0,0
	c-25.44,13.44-50.88,26.88-76.8,40.32c0-5.76,1.92-11.04,2.88-16.8c-26.88,18.72-53.28,36.96-79.68,55.68l0,0
	c19.68-9.12,39.84-18.24,59.52-27.84C124.365,103.68,123.405,110.4,122.925,117.6z"/>
<polygon fill="#6793A1" stroke="#000000" stroke-width="4" stroke-miterlimit="10" points="58.365,119.84 138.045,64.16 
	135.165,80.96 211.965,40.64 116.925,113.6 117.885,92 "/>
<polygon fill="#B3E0E0" stroke="#000000" stroke-width="4" stroke-miterlimit="10" points="67.965,139.52 94.365,129.92 
	118.845,208.64 99.165,215.84 "/>
<path fill="#B3E0E0" stroke="#000000" stroke-width="4" stroke-miterlimit="10" d="M113.085,224c0,0,12.94-3.74,19.2,8.64
	s-9.12,18.72-9.12,18.72s-18.64,1.255-18.72-8.64C104.445,242.72,100.625,228.981,113.085,224z"/>
<path fill="#E6B3C9" stroke="#000000" stroke-width="4" stroke-miterlimit="10" d="M138.045,135.2c0,0,11.865-8.356,21.12-4.8
	s16.34,7.44,15.36,17.28c0,0-4.771,8.915-9.78,11.28c0,0-13.221,5.54-8.46,10.8s-10.08,0.96-10.08,0.96s-2.838-4.561-1.44-8.16
	c0,0,2.731-6.159,8.134-8.784c0,0,16.948-4.418,2.426-12.336c0,0-8.72-0.359-12,3.36L138.045,135.2z"/>
<path fill="#E6B3C9" stroke="#000000" stroke-width="4" stroke-miterlimit="10" d="M149.565,176.48c0,0,6.54,1.74,5.76,8.64
	s-8.64,5.76-8.64,5.76s-8.095-4.701-5.76-8.64S149.565,176.48,149.565,176.48z"/>
<path fill="#E6B3C9" stroke="#000000" stroke-width="4" stroke-miterlimit="10" d="M190.845,127.52c0,0-6.566-8.593,2.4-14.88
	c0,0,8.5-5.034,14.4,3.84c0,0,2.009,2.072,3.839,1.92l17.281-1.44c0,0,2.035-0.173,2.879,1.92l5.761,16.8l-25.921,1.92
	c0,0-1.194,0.173-2.399,2.4c0,0-6.14,11.66-15.84,3.84c0,0-8.701-9.02-0.034-13.92C193.211,129.92,193.811,126.687,190.845,127.52z"
	/>
<path fill="#E6B3C9" stroke="#000000" stroke-width="4" stroke-miterlimit="10" d="M209.085,70.4c0,0,0.485-7.781,8.64-10.08
	c0,0,9.601-0.96,11.521,7.68c0,0,1.366,3.914,0,4.8c0,0,0.465,2.685,1.92,3.84l5.28,4.32c0,0,2.159,0.567,0.96,2.88
	c0,0-6.995,14.46-5.761,16.32s-12.479-8.64-12.479-8.64s-2.101-3.46-3.36-0.48c0,0-10.167,5.499-14.88-5.76
	c0,0-3.554-7.399,7.2-12.496C208.125,72.784,208.302,73.516,209.085,70.4z"/>
<path fill="#E6B3C9" stroke="#000000" stroke-width="4" stroke-miterlimit="10" d="M327.165,129.44c0,0,3-13.486,3.36-14.88
	s-0.539-3.269,4.8-3.84c0,0,6.354,2.099,9.12-4.8c0,0,3.525-8.114,12.479-3.84c0,0,7.312,4.353,4.8,12.48c0,0-2.9,4.94,0.96,7.2
	c0,0,1.921,4.32,1.44,5.28s0.48-0.96,0.48-0.96s-2.475,8.886-9.601,10.08c0,0-6.073,1.579-9.6-5.28c0,0-1.333-2.73-5.28-2.4
	L327.165,129.44z"/>
<path fill="#E6B3C9" stroke="#000000" stroke-width="4" stroke-miterlimit="10" d="M301.245,153.44l13.92-9.6
	c0,0,1.917-1.653,3.84,0s13.44,10.56,13.44,10.56s1.781,1.34,4.8,0.48s3.019-0.86,3.019-0.86s9.609,0.335,10.421,5.181
	c0,0,4.487,9.979-8.159,14.4c0,0-1.701,16.073-15.841,10.08c0,0-6.166-5.46-4.319-10.56c0,0-0.016-3.321-1.92-4.8L301.245,153.44z"
	/>
<path fill="#E6B3C9" stroke="#000000" stroke-width="4" stroke-miterlimit="10" d="M326.205,108.32c0,0-9.606-60.674-64.8-40.32
	c0,0-25.539,13.034-25.44,38.4c0,0,0.02,15.54,4.8,22.08c0,0,4.473,8.926,0.96,14.4l-2.399,7.68c0,0-0.607,10.846,8.64,4.32
	c0,0,4.272-5.261,5.76,1.44c0,0,0.833,8.687,8.16,3.36c0,0,4.779-6.167,6.72,1.92c0,0,2.046,7.713,8.16,2.4
	c0,0,5.741-5.847,5.761,1.92c0,0,2.472,8.819,10.079,0.96l2.4-7.68c0,0,1.57-6.548,8.64-11.52S325.198,130.953,326.205,108.32z"/>
<path fill="#FFFFFF" stroke="#000000" stroke-width="4" stroke-miterlimit="10" d="M263.325,96.32c0,0,13.659,6.299,1.439,24
	c0,0-14.926,10.526-18.239-6.72C246.525,113.6,246.771,92.286,263.325,96.32z"/>
<path fill="#FFFFFF" stroke="#000000" stroke-width="4" stroke-miterlimit="10" d="M295.485,109.76c0,0,13.659-6.141,15.359,10.56
	c0,0-5.607,26.833-21.12,9.6C289.725,129.92,284.092,116.833,295.485,109.76z"/>
<path fill="#FFFFFF" stroke="#000000" stroke-width="4" stroke-miterlimit="10" d="M276.285,122.72c0,0,12.593,8.5,5.76,14.4
	s-9.12-2.88-9.12-2.88s-13.646,2.899-7.68-8.16C265.245,126.08,272.025,122.42,276.285,122.72z"/>
<path fill="#6793A1" stroke="#000000" stroke-width="4" stroke-miterlimit="10" d="M208.125,171.2c0,0,27.994-8.808,47.04,15.84
	L230.205,212c0,0-5.325-6.728-13.825-5.047c-0.347,0.068-0.699,0.15-1.056,0.248L208.125,171.2z"/>
<path fill="#6793A1" stroke="#000000" stroke-width="4" stroke-miterlimit="10" d="M175.66,259.192c0,0-20.802-20.7-7.821-49.015
	l33.698,10.511c0,0-3.485,7.841,1.951,14.588c0.222,0.275,0.458,0.55,0.709,0.82L175.66,259.192z"/>
<path fill="#6793A1" stroke="#000000" stroke-width="4" stroke-miterlimit="10" d="M268.505,242.502c0,0-7.027,28.492-37.983,31.951
	l-8.349-34.298c0,0,8.515-1.052,11.498-9.187c0.122-0.332,0.235-0.675,0.337-1.031L268.505,242.502z"/>
<path fill="#6793A1" stroke="#000000" stroke-width="4" stroke-miterlimit="10" d="M228.285,223.52c0,0,0.5,9.166-9.12,12
	c0,0-11.006,0.38-12.48-10.56c0,0-0.793-8.768,7.2-11.521C213.885,213.44,225.359,209.019,228.285,223.52z"/>
<polygon fill="#B3E0E0" stroke="#000000" stroke-width="4" stroke-miterlimit="10" points="291.165,205.76 299.805,200.48 
	307.965,215.36 315.165,200 323.805,204.32 315.165,219.2 331.965,217.76 332.445,227.84 315.645,227.36 325.245,241.28 
	317.085,246.56 308.445,231.68 301.245,247.04 292.604,242.72 301.245,227.84 284.445,229.28 283.965,219.68 300.765,219.68 "/>
</svg>
