<?xml version="1.0" encoding="utf-8"?>
<!-- Generator: Adobe Illustrator 15.0.2, SVG Export Plug-In  -->
<!DOCTYPE svg PUBLIC "-//W3C//DTD SVG 1.1//EN" "http://www.w3.org/Graphics/SVG/1.1/DTD/svg11.dtd" [
	<!ENTITY ns_flows "http://ns.adobe.com/Flows/1.0/">
]>
<svg version="1.1"
	 xmlns="http://www.w3.org/2000/svg" xmlns:xlink="http://www.w3.org/1999/xlink" xmlns:a="http://ns.adobe.com/AdobeSVGViewerExtensions/3.0/"
	 x="0px" y="0px" width="100px" height="100px" viewBox="-14.761 -13.412 100 100"
	 overflow="visible" enable-background="new -14.761 -13.412 100 100" xml:space="preserve">
<defs>
</defs>
<path fill="#E6B3C9" d="M44.592,57.28L44.878,58c0,0,0.198,0.662-0.302,0.927c-0.499,0.267-3.375,1.746-5.717,1.098
	c0,0-0.592-0.134-0.661-0.645l-0.115-0.86C38.083,58.52,43.421,57.722,44.592,57.28z"/>
<path d="M42.549,34.635c-0.622,0-1.179,0.223-1.608,0.644c-0.703,0.65-2.951,1.154-4.441,1.158
	c-1.634-0.068-3.799-0.529-4.482-1.158c-0.412-0.403-1.011-0.644-1.606-0.644c-0.642,0-1.253,0.303-1.643,0.811
	c-4.125,5.136-4.123,13.487-4.121,17.057v0.573c0,1.826,1.441,3.415,4.061,4.475c2.123,0.857,4.955,1.35,7.771,1.35
	c2.816,0,5.649-0.492,7.772-1.35c2.616-1.06,4.06-2.649,4.06-4.475V52.5c0.002-3.57,0.004-11.93-4.068-17.002
	C43.798,34.941,43.196,34.635,42.549,34.635z M46.278,53.076c0,2.02-4.578,3.789-9.799,3.789c-5.218,0-9.795-1.77-9.795-3.789
	v-0.574c-0.002-3.355-0.004-11.215,3.68-15.79l0.021-0.028c0.003-0.004,0.012-0.014,0.027-0.014c0.067,0,0.156,0.037,0.181,0.062
	l0.023,0.021c1.628,1.533,5.652,1.711,5.823,1.719l0.04,0.001c1.562,0,4.535-0.467,5.865-1.72l0.022-0.021
	c0.028-0.029,0.062-0.062,0.182-0.062c0,0,0.039,0.017,0.107,0.101c3.624,4.516,3.623,12.374,3.622,15.729V53.076z"/>
<path d="M50.978,28.332l-5.903-1.429c0.019-0.224,0.028-0.451,0.028-0.68c0-4.755-3.869-8.624-8.623-8.624s-8.624,3.869-8.624,8.624
	c0,0.229,0.014,0.455,0.03,0.68l-5.904,1.429c-0.354,0.085-0.634,0.354-0.737,0.702c-0.103,0.349-0.011,0.726,0.24,0.989
	l4.194,4.404c0.194,0.204,0.461,0.316,0.736,0.316c0.081,0,0.16-0.01,0.24-0.029c0.354-0.085,0.635-0.353,0.737-0.703l1.242-4.217
	c1.359,2.978,4.365,5.053,7.846,5.053c3.48,0,6.484-2.075,7.847-5.052l1.241,4.218c0.102,0.35,0.383,0.617,0.735,0.702
	c0.08,0.02,0.16,0.029,0.239,0.029c0.277,0,0.544-0.112,0.738-0.316l4.195-4.404c0.25-0.264,0.342-0.641,0.24-0.99
	C51.612,28.686,51.331,28.417,50.978,28.332z M25.938,31.747l-1.762-1.852l2.484-0.601L25.938,31.747z M42.54,23.643
	c-1.951-0.298-3.522-1.767-3.975-3.667C40.355,20.576,41.804,21.921,42.54,23.643z M34.413,19.97
	c-0.449,1.907-2.03,3.383-3.995,3.674C31.157,21.916,32.615,20.565,34.413,19.97z M36.479,32.811c-3.631,0-6.586-2.955-6.586-6.586
	c0-0.167,0.009-0.332,0.021-0.496c3.319-0.1,6.054-2.562,6.577-5.76c0.52,3.192,3.245,5.651,6.558,5.76
	c0.014,0.164,0.02,0.329,0.02,0.496C43.067,29.855,40.112,32.811,36.479,32.811z M47.021,31.747l-0.72-2.453l2.484,0.601
	L47.021,31.747z"/>
<path d="M71.444,9.534h-1.592V6.319c0-1.614-1.312-2.926-2.926-2.926c-1.613,0-2.924,1.312-2.924,2.926v3.432h-1.02V2.925
	C62.983,1.312,61.669,0,60.058,0c-1.613,0-2.924,1.312-2.924,2.925v6.826h-3.543c-0.492-1.725-2.083-2.993-3.965-2.993
	c-1.881,0-3.472,1.268-3.965,2.993H27.298c-0.493-1.725-2.083-2.993-3.965-2.993c-1.922,0-3.54,1.322-3.995,3.103
	c-0.139-0.07-0.294-0.111-0.459-0.111h-3.14V2.925C15.738,1.312,14.426,0,12.815,0c-1.615,0-2.927,1.312-2.927,2.925V9.75h-0.93
	V6.318c0-1.614-1.312-2.926-2.925-2.926S3.109,4.705,3.109,6.318V9.75H1.017C0.456,9.75,0,10.206,0,10.769
	c0,0.562,0.456,1.018,1.017,1.018h2.091v3.433c0,1.613,1.313,2.925,2.925,2.925c1.614,0,2.925-1.313,2.925-2.925v-3.431h0.931v6.825
	c0,1.613,1.312,2.925,2.926,2.925c1.612,0,2.923-1.312,2.923-2.925v-6.825h3.14c0.117,0,0.228-0.021,0.332-0.057v10.281
	c0,2.274,1.85,4.124,4.123,4.124c2.275,0,4.124-1.85,4.124-4.124V11.788h18.045v10.224c0,2.274,1.852,4.124,4.125,4.124
	s4.123-1.85,4.123-4.124V11.788h3.383v6.825c0,1.613,1.312,2.925,2.924,2.925c1.613,0,2.926-1.312,2.926-2.925v-6.825H64v3.433
	c0,1.613,1.312,2.925,2.925,2.925c1.614,0,2.926-1.313,2.926-2.925v-3.34h1.591c0.648,0,1.174-0.526,1.174-1.174
	S72.091,9.534,71.444,9.534z M6.922,15.221c0,0.49-0.399,0.89-0.889,0.89s-0.888-0.4-0.888-0.89V6.32c0-0.491,0.398-0.89,0.888-0.89
	S6.922,5.83,6.922,6.32V15.221z M13.705,18.613c0,0.491-0.401,0.89-0.89,0.89c-0.491,0-0.89-0.399-0.89-0.89v-7.238
	c-0.008-0.275,0-8.449,0-8.449c0-0.49,0.398-0.889,0.89-0.889c0.489,0,0.89,0.399,0.89,0.889V18.613z M25.422,22.012
	c0,1.151-0.937,2.088-2.088,2.088c-1.15,0-2.087-0.937-2.087-2.088V10.883c0-1.151,0.937-2.088,2.087-2.088
	c1.151,0,2.088,0.937,2.088,2.088V22.012z M51.716,22.012c0,1.151-0.938,2.088-2.088,2.088c-1.153,0-2.089-0.937-2.089-2.088V10.883
	c0-1.151,0.936-2.088,2.089-2.088c1.075,0,1.963,0.818,2.075,1.864c-0.005,0.036-0.007,0.074-0.007,0.111
	c0,0.066,0.007,0.13,0.02,0.192V22.012z M60.946,18.613c0,0.491-0.398,0.89-0.889,0.89s-0.89-0.399-0.89-0.89V2.926
	c0-0.49,0.399-0.889,0.89-0.889s0.889,0.399,0.889,0.889V18.613z M67.817,15.221c0,0.49-0.4,0.89-0.891,0.89
	c-0.489,0-0.889-0.4-0.889-0.89V6.32c0-0.491,0.399-0.89,0.889-0.89c0.49,0,0.891,0.399,0.891,0.89V15.221z"/>
<path fill="#6793A1" d="M30.412,36.67c0,0,6.048,3.408,11.955,0.062c0,0,5.032,3.499,3.911,16.344c0,0,0.398,1.121-1.566,1.991
	c0,0-6.943,4.979-16.458,0c0,0-1.959-0.401-1.57-2.565C26.684,52.502,25.695,40.669,30.412,36.67z"/>
<path fill="#B3E0E0" d="M21.247,10.883c0,0-0.194-1.881,2.087-2.088c0,0,1.833-0.116,2.088,2.088v11.128
	c0,0,0.006,2.163-2.088,2.088c0,0-2.087,0.023-2.087-2.088V10.883z"/>
<path fill="#B3E0E0" d="M47.539,10.883c0,0-0.022-1.944,2.089-2.088c0,0,1.602-0.377,2.075,1.864s-0.007,0.111-0.007,0.111
	l0.02,11.241c0,0-0.074,2.101-2.088,2.088c0,0-2.089-0.102-2.089-2.088V10.883z"/>
<path fill="#E6B3C9" d="M35.394,58.876v0.774c0,0-0.061,0.688-0.624,0.75s-3.781,0.375-5.719-1.094c0,0-0.5-0.344-0.375-0.844
	l0.211-0.842C28.888,57.621,34.143,58.853,35.394,58.876z"/>
<path d="M28.888,57.621l-0.211,0.842c0,0-0.099,0.441,0.211,0.695s2.477,1.648,5.883,1.242c0,0,0.497-0.219,0.624-0.75v-0.774
	l2.033-0.022l0.7-0.009l0.071,0.535c0,0,0.101,0.531,0.661,0.645c0,0,2.741,0.616,5.717-1.098c0,0,0.496-0.438,0.302-0.927
	l-0.286-0.72l0.703-0.213c0.382,0.896,0.382,0.896,0.382,0.896s0.375,0.697-0.188,1.083c0,0-3.719,2.886-6.844,1.667
	c0,0-0.656,0.062-0.938-0.531L37.23,59.04v-0.307h-0.991v1.261c0,0-0.188,1.225-1.156,1.019c0,0-3.103,0.95-6.426-0.956
	c0,0-0.824-0.146-0.917-1.323l0.351-1.453L28.888,57.621z"/>
<polygon fill="#FFFFFF" points="24.175,29.895 25.938,31.747 26.659,29.294 "/>
<polygon fill="#FFFFFF" points="46.302,29.294 47.021,31.747 48.786,29.895 "/>
<path fill="#FFFFFF" d="M34.413,19.97c0,0-3.19,0.773-3.995,3.674C30.418,23.645,33.587,23.77,34.413,19.97z"/>
<path fill="#FFFFFF" d="M38.565,19.977c0,0,0.191,3.514,3.975,3.667C42.54,23.643,41.933,20.532,38.565,19.977z"/>
<path fill="#FFFFFF" d="M36.49,19.969c0,0-0.604,5.401-6.577,5.76c0,0-0.777,7.223,6.566,7.083c0,0,7.168,0.517,6.568-7.083
	C43.048,25.729,37.032,24.683,36.49,19.969z"/>
<path d="M5.146,6.32c0,0-0.068-1.005,0.888-0.89c0,0,0.889-0.336,0.889,0.89v8.901c0,0,0.28,1.079-0.889,0.89
	c0,0-0.888,0.494-0.888-0.89V6.32z"/>
<path d="M11.926,2.926c0,0-0.118-0.98,0.89-0.889c0,0,1.188,0.061,0.89,0.889l0.048,15.786c0,0,0.179,0.914-0.938,0.79
	c0,0-1.246,0.344-0.89-0.89V2.926z"/>
<path d="M59.168,2.926c0,0-0.211-1.022,0.89-0.889c0,0,1.302-0.106,0.889,0.889v15.687c0,0,0.219,1.096-0.889,0.89
	c0,0-0.89,0.386-0.89-0.89V2.926z"/>
<path d="M66.038,6.32c0,0-0.385-1.089,0.889-0.89c0,0,0.891-0.17,0.891,0.89v8.901c0,0,0.378,0.954-0.891,0.89
	c0,0-1.259,0.285-0.889-0.89V6.32z"/>
</svg>
