<?xml version="1.0" encoding="utf-8"?>
<!-- Generator: Adobe Illustrator 15.0.2, SVG Export Plug-In  -->
<!DOCTYPE svg PUBLIC "-//W3C//DTD SVG 1.1//EN" "http://www.w3.org/Graphics/SVG/1.1/DTD/svg11.dtd" [
	<!ENTITY ns_flows "http://ns.adobe.com/Flows/1.0/">
]>
<svg version="1.1"
	 xmlns="http://www.w3.org/2000/svg" xmlns:xlink="http://www.w3.org/1999/xlink" xmlns:a="http://ns.adobe.com/AdobeSVGViewerExtensions/3.0/"
	 x="0px" y="0px" width="181px" height="172px" viewBox="-20.667 -15.666 181 172"
	 overflow="visible" enable-background="new -20.667 -15.666 181 172" xml:space="preserve">
<defs>
</defs>
<path fill="#FFFFFF" stroke="#000000" stroke-width="0.25" stroke-miterlimit="10" d="M110.124,3.459
	c0,0,31.334-1.345,33.334,33.333c0,0,1.498,31.657-33.334,33.334c0,0-31.335,0.822-33.334-33.334
	C76.79,36.792,75.956,3.448,110.124,3.459z"/>
<path fill="#6793A1" stroke="#000000" stroke-width="0.25" stroke-miterlimit="10" d="M110.124,76.79
	c0,0,31.666-1.843,33.334,33.335c0,0,1.664,30.818-33.334,33.332c0,0-31.67,1.322-33.334-33.332
	C76.79,110.125,75.122,77.611,110.124,76.79z"/>
<path fill="#E6B3C9" stroke="#000000" stroke-width="0.25" stroke-miterlimit="10" d="M36.792,76.79c0,0,31.001-2.678,33.334,33.334
	c0,0,0.166,32.155-33.334,33.334c0,0-30.834,1.987-33.333-33.334C3.458,110.124,1.791,78.112,36.792,76.79z"/>
<path fill="#B3E0E0" stroke="#000000" stroke-width="0.25" stroke-miterlimit="10" d="M3.446,36.786c0,0,0.667-33.177,33.334-33.333
	c0,0,31.335-1.177,33.334,33.333c0,0,1,30.822-33.334,33.333C36.78,70.119,6.112,71.942,3.446,36.786z"/>
<path stroke="#000000" stroke-width="0.25" stroke-miterlimit="10" d="M146.79,36.792c0-20.25-16.416-36.667-36.666-36.667
	S73.458,16.542,73.458,36.792s16.416,36.666,36.666,36.666S146.79,57.042,146.79,36.792z M76.79,36.792
	c0-18.409,14.924-33.333,33.334-33.333s33.334,14.924,33.334,33.333c0,18.41-14.924,33.334-33.334,33.334S76.79,55.202,76.79,36.792
	z"/>
<path stroke="#000000" stroke-width="0.25" stroke-miterlimit="10" d="M91.292,47.993c0.891,1.668,2.004,3.334,3.361,4.893
	c3.922,4.508,9.059,7.24,15.471,7.24s11.549-2.732,15.472-7.24c1.356-1.559,2.471-3.225,3.36-4.893
	c0.539-1.01,0.89-1.809,1.065-2.295c0.316-0.865-0.129-1.822-0.992-2.139c-0.864-0.316-1.821,0.129-2.139,0.994
	c-0.127,0.348-0.414,1.006-0.877,1.871c-0.777,1.457-1.754,2.916-2.934,4.273c-3.331,3.826-7.594,6.094-12.957,6.094
	c-5.363,0-9.626-2.268-12.957-6.094c-1.181-1.357-2.156-2.816-2.934-4.273c-0.462-0.865-0.75-1.523-0.877-1.871
	c-0.316-0.865-1.273-1.311-2.139-0.994c-0.863,0.316-1.309,1.273-0.992,2.139C90.403,46.185,90.753,46.983,91.292,47.993z"/>
<path stroke="#000000" stroke-width="0.25" stroke-miterlimit="10" d="M127.46,45.171c1.978,1.219,3.937,1.621,5.33,1.621
	c0.921,0,1.668-0.746,1.668-1.666c0-0.922-0.747-1.668-1.668-1.668c-0.172,0-0.549-0.033-1.058-0.137
	c-0.864-0.178-1.729-0.496-2.524-0.988c-0.672-0.412-1.271-0.934-1.776-1.576c-0.572-0.721-1.621-0.842-2.343-0.271
	c-0.721,0.572-0.843,1.621-0.271,2.342C125.574,43.782,126.466,44.56,127.46,45.171z"/>
<path stroke="#000000" stroke-width="0.25" stroke-miterlimit="10" d="M91.04,42.333c-0.797,0.492-1.66,0.811-2.525,0.988
	c-0.508,0.104-0.885,0.137-1.057,0.137c-0.921,0-1.668,0.746-1.668,1.668c0,0.92,0.747,1.666,1.668,1.666
	c1.395,0,3.353-0.402,5.33-1.621c0.994-0.611,1.886-1.389,2.643-2.344c0.571-0.721,0.449-1.77-0.271-2.342
	c-0.722-0.57-1.77-0.449-2.342,0.271C92.31,41.399,91.712,41.921,91.04,42.333z"/>
<path stroke="#000000" stroke-width="0.25" stroke-miterlimit="10" d="M73.457,36.792c0-20.25-16.416-36.667-36.666-36.667
	S0.125,16.542,0.125,36.792s16.416,36.666,36.666,36.666S73.457,57.042,73.457,36.792z M3.457,36.792
	c0-18.41,14.924-33.333,33.334-33.333s33.334,14.923,33.334,33.333c0,18.409-14.924,33.333-33.334,33.333S3.457,55.201,3.457,36.792
	z"/>
<path stroke="#000000" stroke-width="0.25" stroke-miterlimit="10" d="M18.175,50.763c0.446,1.336,1.067,2.709,1.898,4.047
	c2.399,3.87,6.028,6.686,11.082,7.779c5.054,1.093,9.522,0.028,13.305-2.504c1.31-0.876,2.442-1.869,3.401-2.901
	c0.58-0.625,0.979-1.134,1.193-1.448c0.382-0.561,0.179-1.316-0.453-1.688c-0.633-0.372-1.457-0.219-1.838,0.341
	c-0.153,0.225-0.482,0.644-0.979,1.179c-0.836,0.903-1.831,1.773-2.969,2.536c-3.213,2.15-6.921,3.033-11.148,2.119
	c-4.228-0.915-7.239-3.251-9.277-6.537c-0.722-1.165-1.267-2.368-1.655-3.536c-0.231-0.692-0.357-1.21-0.404-1.478
	c-0.117-0.668-0.803-1.147-1.533-1.07c-0.729,0.077-1.227,0.681-1.11,1.35C17.752,49.327,17.905,49.954,18.175,50.763z"/>
<path stroke="#000000" stroke-width="0.25" stroke-miterlimit="10" d="M48.127,54.438c1.978,1.219,3.936,1.621,5.33,1.621
	c0.921,0,1.668-0.746,1.668-1.667s-0.747-1.667-1.668-1.667c-0.172,0-0.549-0.033-1.057-0.137c-0.865-0.178-1.729-0.497-2.525-0.988
	c-0.672-0.413-1.27-0.934-1.777-1.576c-0.572-0.721-1.62-0.843-2.342-0.271c-0.721,0.572-0.843,1.62-0.271,2.342
	C46.242,53.049,47.133,53.826,48.127,54.438z"/>
<path stroke="#000000" stroke-width="0.25" stroke-miterlimit="10" d="M17.765,44.933c-0.797,0.491-1.66,0.811-2.525,0.988
	c-0.508,0.104-0.885,0.137-1.057,0.137c-0.921,0-1.668,0.746-1.668,1.667s0.747,1.667,1.668,1.667c1.395,0,3.353-0.402,5.33-1.621
	c0.994-0.611,1.886-1.389,2.643-2.344c0.571-0.722,0.449-1.77-0.271-2.342c-0.722-0.571-1.77-0.449-2.342,0.271
	C19.035,44,18.437,44.52,17.765,44.933z"/>
<path stroke="#000000" stroke-width="0.25" stroke-miterlimit="10" d="M146.79,110.125c0-20.252-16.416-36.668-36.666-36.668
	c-20.251,0-36.667,16.416-36.667,36.668c0,20.25,16.416,36.666,36.667,36.666C130.374,146.791,146.79,130.375,146.79,110.125z
	 M76.79,110.125c0-18.41,14.924-33.335,33.334-33.335s33.334,14.925,33.334,33.335c0,18.408-14.924,33.332-33.334,33.332
	S76.79,128.533,76.79,110.125z"/>
<path stroke="#000000" stroke-width="0.25" stroke-miterlimit="10" d="M125.938,127.967c1.17-1.18,2.166-2.438,2.994-3.699
	c0.502-0.766,0.842-1.373,1.024-1.746c0.401-0.828,0.06-1.823-0.771-2.229c-0.826-0.404-1.824-0.061-2.229,0.768
	c-0.121,0.252-0.395,0.738-0.814,1.379c-0.711,1.084-1.567,2.168-2.572,3.179c-2.813,2.832-6.175,4.508-10.112,4.508
	c-0.922,0-1.668,0.746-1.668,1.666s0.746,1.666,1.668,1.666C118.378,133.457,122.542,131.383,125.938,127.967z"/>
<path stroke="#000000" stroke-width="0.25" stroke-miterlimit="10" d="M127.46,121.838c1.978,1.219,3.937,1.619,5.33,1.619
	c0.92,0,1.668-0.746,1.668-1.666s-0.748-1.666-1.668-1.666c-0.172,0-0.549-0.033-1.058-0.139c-0.864-0.178-1.729-0.496-2.524-0.986
	c-0.672-0.414-1.271-0.936-1.776-1.578c-0.572-0.721-1.621-0.842-2.343-0.271c-0.721,0.572-0.844,1.621-0.271,2.343
	C125.573,120.447,126.466,121.225,127.46,121.838z"/>
<polygon stroke="#000000" stroke-width="0.25" stroke-miterlimit="10" points="20.125,131.79 23.458,131.79 23.458,115.124 
	20.125,115.124 "/>
<polygon stroke="#000000" stroke-width="0.25" stroke-miterlimit="10" points="30.125,138.458 33.458,138.458 33.458,118.458 
	30.125,118.458 "/>
<polygon stroke="#000000" stroke-width="0.25" stroke-miterlimit="10" points="40.126,138.458 43.458,138.458 43.458,118.458 
	40.126,118.458 "/>
<polygon stroke="#000000" stroke-width="0.25" stroke-miterlimit="10" points="50.126,131.79 53.458,131.79 53.458,115.124 
	50.126,115.124 "/>
<path stroke="#000000" stroke-width="0.25" stroke-miterlimit="10" d="M56.526,118.05c0.195,0.353,0.266,0.734,0.266,0.906
	c0,9.25-9.252,17.834-20,17.834s-20-8.584-20-17.834c0-0.172,0.07-0.556,0.265-0.906c0.301-0.545,0.812-0.852,1.855-0.852
	c0.104,0,0.104,0,0.209,0.004c0.646,0.028,1.354,0.182,2.36,0.502c0.417,0.131,2.635,0.897,3.355,1.127
	c3.698,1.181,7.268,1.791,11.955,1.791c4.688,0,8.257-0.61,11.955-1.791c0.721-0.229,2.938-0.996,3.355-1.127
	c1.006-0.32,1.714-0.474,2.359-0.502c0.105-0.004,0.105-0.004,0.209-0.004C55.716,117.198,56.226,117.505,56.526,118.05z
	 M54.315,113.872c-0.99,0.043-1.961,0.254-3.221,0.653c-0.471,0.148-2.691,0.916-3.359,1.129c-3.387,1.078-6.619,1.634-10.943,1.634
	c-4.325,0-7.557-0.556-10.943-1.634c-0.669-0.213-2.889-0.979-3.359-1.129c-1.261-0.399-2.231-0.61-3.221-0.653
	c-0.177-0.006-0.177-0.006-0.356-0.008c-2.27,0-3.89,0.977-4.772,2.571c-0.515,0.933-0.682,1.834-0.682,2.521
	c0,11.147,10.798,21.168,23.333,21.168s23.334-10.021,23.334-21.168c0-0.687-0.167-1.588-0.682-2.521
	c-0.883-1.596-2.504-2.571-4.773-2.571C54.493,113.866,54.493,113.866,54.315,113.872z"/>
<path stroke="#000000" stroke-width="0.25" stroke-miterlimit="10" d="M73.458,110.124c0-20.25-16.416-36.666-36.666-36.666
	S0.125,89.874,0.125,110.124s16.416,36.666,36.667,36.666C57.042,146.79,73.458,130.374,73.458,110.124z M3.458,110.124
	c0-18.41,14.924-33.334,33.333-33.334c18.41,0,33.334,14.924,33.334,33.334s-14.924,33.334-33.334,33.334
	C18.382,143.458,3.458,128.534,3.458,110.124z"/>
<path fill="#FFFFFF" stroke="#000000" stroke-width="0.25" stroke-miterlimit="10" d="M20.125,117.336c0,0-3.555-0.854-3.333,1.62
	c0,0,0,6.14,3.333,9.485V117.336z"/>
<path fill="#FFFFFF" stroke="#000000" stroke-width="0.25" stroke-miterlimit="10" d="M23.458,118.371L23.28,131.79
	c0,0,2.803,3.541,6.845,3.881v-15.556L23.458,118.371z"/>
<path fill="#FFFFFF" stroke="#000000" stroke-width="0.25" stroke-miterlimit="10" d="M33.458,120.124v16.386
	c0,0,4.251,1.249,6.667,0v-16.386C40.126,120.124,36.5,120.861,33.458,120.124z"/>
<path fill="#FFFFFF" stroke="#000000" stroke-width="0.25" stroke-miterlimit="10" d="M43.458,120.115l-0.001,15.556
	c0,0,4.501-0.728,6.668-3.881l0.001-13.419C50.126,118.371,43.458,119.471,43.458,120.115z"/>
<path fill="#FFFFFF" stroke="#000000" stroke-width="0.25" stroke-miterlimit="10" d="M53.409,117.193v11.248
	c0,0,4.383-5.916,3.383-9.485C56.792,118.956,56.692,116.016,53.409,117.193z"/>
</svg>
