<?xml version="1.0" encoding="utf-8"?>
<!-- Generator: Adobe Illustrator 15.0.2, SVG Export Plug-In  -->
<!DOCTYPE svg PUBLIC "-//W3C//DTD SVG 1.1//EN" "http://www.w3.org/Graphics/SVG/1.1/DTD/svg11.dtd" [
	<!ENTITY ns_flows "http://ns.adobe.com/Flows/1.0/">
]>
<svg version="1.1"
	 xmlns="http://www.w3.org/2000/svg" xmlns:xlink="http://www.w3.org/1999/xlink" xmlns:a="http://ns.adobe.com/AdobeSVGViewerExtensions/3.0/"
	 x="0px" y="0px" width="639px" height="507px" viewBox="-82.399 -15.084 639 507"
	 overflow="visible" enable-background="new -82.399 -15.084 639 507" xml:space="preserve">
<defs>
</defs>
<path d="M313.32,78.036l-55.2,55.68c-0.959,0.96-2.879,1.92-4.319,1.92s-3.36-0.48-4.32-1.92l-56.16-55.68
	c-7.68-7.68-12-17.76-12-28.8c0-11.04,4.32-21.12,12-28.8c7.68-7.68,17.76-12,28.8-12s21.12,4.32,28.8,12l2.4,2.4l2.399-2.4
	c7.68-7.68,17.76-12,28.8-12s21.12,4.32,28.8,12c7.681,7.68,12,17.76,12,28.8C325.32,59.795,321.48,70.355,313.32,78.036z
	 M112.681,441.875c7.2,0,12.96-5.76,12.96-12.96v-70.08c0-31.68-25.92-57.6-57.6-57.6c-16.32,0-31.2-12-33.12-28.32
	c-2.4-19.68,12.96-36.48,32.16-36.48h28.8c5.76,29.28,32.16,51.84,63.36,51.84h32.64c4.8,0,8.64-3.841,8.64-8.64v-15.84h40.32
	c6.24,0,12-4.8,12.479-11.04c0.48-7.2-4.8-13.44-12-13.44h-40.8v-32.16h40.32c6.24,0,12-4.8,12.479-11.04
	c0.48-7.2-4.8-13.44-12-13.44h-40.8v-15.36c0-4.8-3.84-8.64-8.64-8.64h-32.64c-31.2,0-57.6,22.08-63.36,51.84h-27.36
	c-31.68,0-58.56,24.48-59.52,56.16c-1.44,33.12,25.44,60.48,58.08,60.48h0.48c17.76,0,32.16,14.399,32.16,32.16v69.119
	C99.721,436.116,105.48,441.875,112.681,441.875L112.681,441.875z M292.681,263.795v15.84c0,4.799,3.84,8.64,8.64,8.64h32.641
	c31.199,0,57.6-22.081,63.359-51.84h28.8c19.2,0,34.561,16.8,32.16,36.48c-1.92,16.32-16.8,28.32-33.12,28.32
	c-31.68,0-57.6,25.92-57.6,57.6v69.6c0,7.2,5.76,12.961,12.96,12.961l0,0c7.2,0,12.96-5.761,12.96-12.961v-69.119
	c0-17.761,14.4-32.16,32.16-32.16h0.479c32.641,0,59.521-27.36,58.08-60.48c-0.96-31.68-27.84-56.16-59.52-56.16h-27.36
	c-5.76-29.28-32.16-51.84-63.359-51.84H301.32c-4.8,0-8.64,3.84-8.64,8.64v15.84V263.795L292.681,263.795z"/>
<path fill="#E6B3C9" stroke="#000000" stroke-width="4" stroke-miterlimit="10" d="M246.321,16.835c0,0,26.219-30.38,59.999-2.4
	c0,0,27.22,22.22,0,57.6l-55.2,55.68c0,0-4.535,4.069-8.64,0l-56.16-55.68c0,0-27.78-29.08,0-57.6c0,0,21.92-27.98,57.6,0
	L246.321,16.835z"/>
<path fill="#B3E0E0" stroke="#000000" stroke-width="4" stroke-miterlimit="10" d="M184.88,152.675c0,0,8.64,2.54,8.64,8.64v15.36
	h40.8c0,0,10.72,1.141,12,13.44c0,0-0.739,11.04-12.479,11.04h-40.32v32.16h40.8c0,0,11.72,1.28,12,13.44
	c0,0-2.739,11.04-12.479,11.04h-40.32v15.84c0,0-2.36,8.64-8.64,8.64h-32.64c0,0-53.081,0.18-63.36-51.84h-28.8
	c0,0-32.84-0.52-32.16,36.48c0,0,3.06,27.141,33.12,28.32c0,0,54.64,1.02,57.6,57.6v70.08c0,0-0.88,12.42-12.96,12.96
	c0,0-12.96-0.421-12.96-13.44v-69.119c0,0,0.34-30.42-32.64-32.16c0,0-56.18,0.779-58.08-60.48c0,0,0.94-52.06,59.52-56.16h27.36
	c0,0,5.5-47.581,63.36-51.84H184.88z"/>
<path fill="#6793A1" stroke="#000000" stroke-width="4" stroke-miterlimit="10" d="M294.32,152.675h32.641
	c0,0,48.079-2.56,63.359,51.84h27.36c0,0,55.119,0.42,59.52,56.16c0,0,2.48,58.72-58.56,60.48c0,0-32.16,1.561-32.16,32.16v69.119
	c0,0-1.04,12.441-12.96,12.961c0,0-12.96-1.441-12.96-12.961v-69.6c0,0-1.341-52.779,57.6-57.6c0,0,26.8,1.18,33.12-28.32
	c0,0,2.859-33.96-32.16-36.48h-28.8c0,0-10.499,52.201-63.359,51.84H294.32c0,0-8.64-1.92-8.64-8.64v-112.32
	C285.681,161.315,285.54,152.675,294.32,152.675z"/>
</svg>
