<?xml version="1.0" encoding="utf-8"?>
<!-- Generator: Adobe Illustrator 15.0.2, SVG Export Plug-In  -->
<!DOCTYPE svg PUBLIC "-//W3C//DTD SVG 1.1//EN" "http://www.w3.org/Graphics/SVG/1.1/DTD/svg11.dtd" [
	<!ENTITY ns_flows "http://ns.adobe.com/Flows/1.0/">
]>
<svg version="1.1"
	 xmlns="http://www.w3.org/2000/svg" xmlns:xlink="http://www.w3.org/1999/xlink" xmlns:a="http://ns.adobe.com/AdobeSVGViewerExtensions/3.0/"
	 x="0px" y="0px" width="698px" height="241px" viewBox="-17.879 -43.39 698 241"
	 overflow="visible" enable-background="new -17.879 -43.39 698 241" xml:space="preserve">
<defs>
</defs>
<path d="M220.27,72.206c3.178,0.002,5.812,1.107,7.905,3.322c2.087,2.214,3.172,4.979,3.261,8.298
	c-0.002,3.066-1.131,5.747-3.388,8.045s-4.932,3.49-8.024,3.574l-32.74,0.125l-0.125,33.324c0,3.064-1.11,5.809-3.325,8.236
	c-2.216,2.424-4.996,3.635-8.339,3.639c-3.01,0-5.666-1.172-7.964-3.514c-2.301-2.34-3.407-5.252-3.325-8.748l-0.251-32.937
	l-32.736,0.129c-2.844-0.169-5.478-1.317-7.901-3.447c-2.423-2.129-3.641-4.894-3.639-8.297c0-3.064,1.045-5.788,3.137-8.173
	c2.09-2.381,4.767-3.616,8.028-3.703h33.363V38.121c-0.001-3.233,1.127-5.83,3.385-7.789c2.259-1.956,4.932-3.063,8.031-3.317
	c3.673,0,6.477,1.149,8.404,3.447c1.917,2.298,2.967,5.064,3.135,8.298l-0.002,33.194L220.27,72.206z"/>
<path d="M362.816,74.969h82.729c6.719,0,12.166-5.705,12.166-12.745s-5.446-12.746-12.166-12.746h-82.729
	c-6.718,0-12.167,5.707-12.167,12.746C350.649,69.263,356.099,74.969,362.816,74.969z"/>
<path d="M445.547,92.812h-82.73c-6.718,0-12.167,5.707-12.167,12.748c0,7.038,5.449,12.744,12.167,12.744h82.729
	c6.719,0,12.166-5.706,12.166-12.747C457.711,98.517,452.265,92.812,445.547,92.812z"/>
<path d="M624.088,14.913l-0.827-6.045l-6.026,1.393c-8.495,1.963-16.77,2.968-24.587,2.968c-24.827,0-38.014-10.227-38.119-10.311
	L550.952,0l-0.144,0.114l-0.141-0.112l-3.556,2.902c-0.128,0.101-13.315,10.328-38.139,10.328c-7.817,0-16.091-1.007-24.59-2.968
	l-6.027-1.393l-0.826,6.045c-0.032,0.236-2.312,27.446,5.536,59.888c4.524,18.716,11.493,35.503,20.71,49.896
	c11.537,18.014,26.641,32.306,44.891,42.476l0.27,0.152l1.75,0.454l0.122-0.037l0.129,0.035l1.749-0.456l0.268-0.152
	c18.253-10.17,33.354-24.462,44.893-42.475c9.215-14.393,16.183-31.181,20.708-49.896C626.401,42.36,624.12,15.149,624.088,14.913z
	 M613.734,74.193c-10.05,41.073-31.187,70.896-62.832,88.649l-0.094-0.022l-0.094,0.022c-31.646-17.754-52.784-47.576-62.831-88.649
	c-7.736-31.617-5.621-58.042-5.568-58.667l0.116-0.826l0.845,0.195c8.86,2.052,17.503,3.097,25.694,3.097
	c26.576,0,40.591-10.918,41.201-11.407l0.512-0.415l0.125,0.101l0.126-0.101l0.537,0.437c0.584,0.467,14.599,11.385,41.176,11.385
	c8.188,0,16.833-1.044,25.691-3.097l0.847-0.195l0.114,0.826C619.354,16.168,621.471,42.579,613.734,74.193z"/>
<path d="M586.821,63.875c0.877,0.686,1.984,1.103,3.191,1.103c2.821,0,5.108-2.253,5.108-5.031c0-2.784-2.287-5.031-5.108-5.031
	c-2.82,0-5.107,2.248-5.107,5.031c0,0.225,0.021,0.443,0.05,0.659l-23.457,3.339l-8.775-21.64c1.925-0.72,3.298-2.554,3.298-4.707
	c0-2.772-2.284-5.026-5.106-5.026s-5.11,2.254-5.11,5.026c0,2.086,1.286,3.875,3.118,4.637l-8.806,21.708l-23.454-3.334
	c0.033-0.219,0.051-0.437,0.051-0.662c0-2.784-2.287-5.031-5.106-5.031c-2.822,0-5.11,2.248-5.11,5.031
	c0,2.778,2.288,5.031,5.11,5.031c1.206,0,2.311-0.412,3.184-1.103l14.637,18.311l-14.301,17.902
	c-0.917-0.867-2.153-1.394-3.522-1.394c-2.822,0-5.11,2.254-5.11,5.026c0,2.79,2.288,5.037,5.11,5.037
	c2.807,0,5.08-2.23,5.104-4.991l23.415-3.333l8.32,20.521c-1.631,0.843-2.743,2.523-2.743,4.465c0,2.771,2.287,5.03,5.106,5.03
	c2.822,0,5.11-2.259,5.11-5.03c0-1.941-1.116-3.622-2.74-4.465l8.322-20.521l23.407,3.328c0.018,2.767,2.296,4.997,5.104,4.997
	c2.822,0,5.11-2.247,5.11-5.037c0-2.772-2.288-5.026-5.11-5.026c-1.364,0-2.603,0.53-3.517,1.394l-14.308-17.902L586.821,63.875z"/>
<path d="M91.75,96.407c0.216-0.331,0.435-0.652,0.583-0.898c2.359-3.909,3.674-7.442,4.357-10.051
	c2.791-1.904,5.727-5.614,7.451-12.777c1-4.15,1.748-9.4-1.34-13.151c-0.077-0.092-0.148-0.177-0.224-0.269
	c2.768-26.316-14.71-39.61-24.973-43.071l-0.149-0.044l-0.141-0.046c-3.871-1.124-7.593-1.695-11.06-1.695
	c-0.813,0-1.581,0.031-2.32,0.089c-0.755-0.063-1.525-0.089-2.304-0.089c-3.474,0-7.193,0.571-11.063,1.695l-0.14,0.046
	l-0.145,0.043c-2.939,0.987-6.463,2.814-9.938,5.484c-5.195-5.873-12.313-2.312-12.313-2.312c8.145,3.417,7.472,6.558,7.408,6.795
	c-6.595,7.129-11.723,17.942-10.133,33.104c-0.077,0.092-0.15,0.177-0.223,0.269c-3.092,3.751-2.338,9.001-1.341,13.151
	c1.727,7.163,4.651,10.876,7.453,12.777c0.737,2.821,2.268,6.729,5.001,11.012c-13.783,7.883-36.257,24.345-31.864,46.143
	l0.354,1.746l1.594,0.602c0.918,0.34,22.818,8.419,56.335,8.419c19.727,0,39.556-2.782,58.925-8.262l1.785-0.503l0.389-1.906
	C128.21,120.797,105.542,104.265,91.75,96.407z M30.596,71.141c-0.732-3.027-0.786-4.896-0.531-6.09l2.975,2.94l2.892,9.509
	c0,0-1.944-26.704,11.669-28.756c0,0,14.457,15.755,32.408,19.171c0,0-3.888-7.531-7.129-14.378c0,0,10.371,12.326,19.448,14.378
	c0,0,1.292-1.746,2.773-4.643c0.201-0.068,0.479-0.145,0.837-0.145c1.28,0,3.025,1.104,1.354,8.013
	c-2.139,8.896-5.792,9.441-6.651,9.441c-0.119,0-0.186-0.014-0.186-0.014s-0.16,2.355-1.45,5.876
	c-1.813,5.245-5.781,12.773-14.347,17.379c-2.075,1.194-4.164,2.041-6.254,2.544c-0.062,0.014-0.116,0.037-0.176,0.057l-0.005-0.011
	c-1.666,0.38-3.343,0.557-5.014,0.5c-7.872-0.319-14.088-5.503-17.176-8.636c-0.005-0.053-0.009-0.115-0.009-0.169
	c-8.116-9.072-8.598-17.54-8.598-17.54s-0.064,0.014-0.187,0.014C36.38,80.583,32.735,80.036,30.596,71.141z M118.109,139.463
	c-18.262,4.994-36.924,7.523-55.49,7.523c-27.713,0-47.025-5.613-52.651-7.472c-1.98-17.2,18.021-31.15,29.98-37.888
	c2.997,3.241,14.461,14.212,29.829,10.938c0.518-0.116,1.022-0.25,1.527-0.394c0.458-0.125,0.927-0.269,1.388-0.422
	c0.883-0.3,1.74-0.629,2.562-0.993c0.689-0.313,1.382-0.626,2.067-0.99c0.471-0.253,0.921-0.517,1.375-0.791
	c0.724-0.422,1.437-0.882,2.15-1.376c2.886-2.01,5.214-4.267,7.079-6.338c2.026,1.073,4.096,2.322,5.732,3.675
	c0.011,0.011,0.016,0.02,0.024,0.029C105.366,112.422,119.775,124.735,118.109,139.463z"/>
<path fill="#FFFFFF" stroke="#000000" stroke-width="2" stroke-miterlimit="10" d="M44.684,41.743c0,0-12.276-0.604-11.669,28.756
	l-2.892-9.509l-7.954-8.463c0,0-6.979,11.775,6.112,25.929c0,0,3.224,11.26,8.75,16.17c0,0,22.86,26.036,47.976-0.365
	c0,0,6.421-7.458,8.768-15.805c0,0,12.928-10.798,5.888-26.197c0,0-0.541-2.899-5.791-1.649c0,0-0.172,5.609-4.461,10.305
	c0,0-4.856,1.799-19.448-14.378l7.129,14.378C77.092,60.915,62.029,57.251,44.684,41.743z"/>
<path fill="#E6B3C9" stroke="#000000" stroke-width="2" stroke-miterlimit="10" d="M33.073,89.588c0,0-37.901,18.016-31.302,47.769
	c0,0,53.179,20.009,118.639,0.256c0,0,10.17-23.278-31.81-48.266C88.601,89.347,62.525,128.067,33.073,89.588z"/>
<path stroke="#000000" stroke-width="2" stroke-miterlimit="10" d="M22.168,52.528l7.954,8.463l2.892,9.509
	c0,0-2.268-28.123,11.669-28.756c0,0,22.811,17.052,32.071,19.102c0.114,0.025,0.227,0.049,0.337,0.069l-7.129-14.378
	c0,0,14.237,15.683,19.448,14.378c0,0,4.961-7.305,4.461-10.305c0,0,4.476-1.959,5.791,1.649c0,0,4.73-41.561-36.405-44.855
	c0,0-16.433-0.669-25.909,7.268c0,0-6.4-5.811-12.313-2.312c0,0,7.979,3.591,7.408,6.795C32.442,19.156,19.698,31.208,22.168,52.528
	z"/>
<path fill="#6793A1" stroke="#000000" stroke-width="2" stroke-miterlimit="10" d="M161.206,31.121v33.958h-35.085
	c0,0-9.386,2.471-9.443,11.876c0,0-0.862,9.332,11.541,11.744l32.736-0.129l0.251,32.937c0,0-0.586,10.42,11.29,12.262
	c0,0,10.203,1.158,11.664-11.875l0.125-33.324l32.74-0.125c0,0,9.977-0.153,11.412-11.619c0,0-1.018-10.774-11.167-11.62
	l-33.11-0.252l-0.047-33.833c0,0-0.489-11.452-11.49-11.106C172.622,20.014,161.206,20.381,161.206,31.121z"/>
<path d="M288.773,13.631c-6.62,0-12,5.665-12,12.575v3.692c-1.79-1.114-3.774-1.896-6.001-1.896c-6.619,0-12,5.665-12,12.575V63.78
	c-6.775,1.533-12,7.664-12,15.32v23.951c0,7.971,4.147,15.902,9,23.055c4.534,6.682,9.73,12.469,13.5,16.516v8.334
	c0,1.672,1.43,3.193,3,3.193h51c1.57,0,3-1.521,3-3.193v-16.469c6.478-7.412,10.5-17.309,10.5-28.242V85.487V53.352
	c0-6.91-5.381-12.575-12-12.575c-2.227,0-4.212,0.782-5.999,1.896v-6.886c0-6.91-5.383-12.575-12.002-12.575
	c-2.311,0-4.354,0.853-6.187,2.045C300.099,18.808,295.071,13.631,288.773,13.631z M288.773,20.019c3.513,0,6,2.711,6,6.188v56.087
	c-0.022,1.688,1.415,3.238,3,3.238s3.022-1.551,3-3.238V35.787c0-3.477,2.487-6.188,5.999-6.188c3.514,0,6.002,2.711,6.002,6.188
	v46.506c-0.023,1.688,1.414,3.238,2.998,3.238c1.586,0,3.023-1.551,3.002-3.238c0,0,0-29.008,0-29.042
	c0.048-3.427,2.521-6.088,5.999-6.088c3.513,0,6,2.711,6,6.188v32.135v20.758c0,9.764-3.649,18.506-9.609,24.852
	c-0.567,0.596-0.897,1.445-0.891,2.295v14.369h-45v-6.385c0.006-0.85-0.322-1.699-0.891-2.295
	c-3.707-3.947-9.212-10.055-13.734-16.717c-4.522-6.664-7.875-13.877-7.875-19.312V79.1c0-4.24,2.474-7.742,6-9.032v29.79
	c-0.022,1.688,1.415,3.238,3,3.238c1.586,0,3.022-1.551,3-3.238V40.577c0-3.476,2.488-6.188,6-6.188
	c3.513,0,6.001,2.712,6.001,6.188c-0.002,0.067,0,41.716,0,41.716c-0.022,1.688,1.415,3.238,3,3.238c1.585,0,3.022-1.551,3-3.238
	V26.206C282.773,22.729,285.261,20.019,288.773,20.019z"/>
<path stroke="#000000" stroke-width="2" stroke-miterlimit="10" d="M254.78,56.774c0,0-12,3.059-12,15.32v23.951
	c0,0-1.348,14.582,22.5,39.57v8.334c0,0,0.152,3.193,3,3.193h51c0,0,1.152,0.402,3-3.193v-16.469c0,0,10.5-8.606,10.5-28.242V46.346
	c0,0-0.001-11.158-12-12.575c0,0-3.347-0.291-5.999,1.896v-6.886c0,0-0.85-12.472-12.002-12.575c0,0-3.472-0.057-6.187,2.045
	c0,0-0.91-11.605-11.812-11.626c0,0-13.097-0.444-11.999,16.267c0,0-4.207-2.037-6.002-1.896c0,0-10.847,0.042-11.999,12.575V56.774
	z"/>
<path fill="#B3E0E0" stroke="#000000" stroke-width="2" stroke-miterlimit="10" d="M254.78,58.036l-0.007,36.083
	c0,0,1.258,3.898,3,3.238c0,0,3,0.01,3-3.238V34.838c0,0,0.652-6.158,6-6.188c0,0,6.001-0.28,6,7.22l0,40.684
	c0,0,0.402,2.161,3,3.238c0,0,3,0.195,3-3.238V20.467c0,0,0.402-5.779,6-6.188c0,0,6,0.784,6,6.188v56.087c0,0-0.598,2.661,3,3.238
	c0,0,3,0.945,3-3.238V30.048c0,0,0.151-6.198,6-6.188c0,0,6.001-0.135,6.001,6.188v46.506c0,0-0.099,2.411,2.999,3.238
	c0,0,3.001-1.055,3.001-3.238V47.513c0,0,0.402-5.784,6-6.088c0,0,6,0.429,6,6.188v52.893c0,0-0.316,16.088-9.609,24.852
	c0,0-1.988,1.576-0.891,2.295v14.369h-45v-6.385c0,0,0.411-0.898-0.891-2.295c0,0-21.609-23.338-21.609-36.03V73.361L254.78,58.036z
	"/>
<path fill="#6793A1" stroke="#000000" stroke-width="2" stroke-miterlimit="10" d="M359.816,42.478h82.729
	c0,0,11.506,0.86,12.166,12.746c0,0,0.258,11.354-12.166,12.745h-82.729c0,0-10.389,1.37-12.167-12.745
	C347.649,55.224,346.012,44.596,359.816,42.478z"/>
<path fill="#6793A1" stroke="#000000" stroke-width="2" stroke-miterlimit="10" d="M359.816,85.794h82.729
	c0,0,11.506,0.86,12.166,12.746c0,0,0.258,11.353-12.166,12.745h-82.729c0,0-10.389,1.37-12.167-12.745
	C347.649,98.54,346.012,87.912,359.816,85.794z"/>
</svg>
