<?xml version="1.0" encoding="utf-8"?>
<!-- Generator: Adobe Illustrator 15.0.2, SVG Export Plug-In  -->
<!DOCTYPE svg PUBLIC "-//W3C//DTD SVG 1.1//EN" "http://www.w3.org/Graphics/SVG/1.1/DTD/svg11.dtd" [
	<!ENTITY ns_flows "http://ns.adobe.com/Flows/1.0/">
]>
<svg version="1.1"
	 xmlns="http://www.w3.org/2000/svg" xmlns:xlink="http://www.w3.org/1999/xlink" xmlns:a="http://ns.adobe.com/AdobeSVGViewerExtensions/3.0/"
	 x="0px" y="0px" width="62px" height="57px" viewBox="-8.344 -1.349 62 57"
	 overflow="visible" enable-background="new -8.344 -1.349 62 57" xml:space="preserve">
<defs>
</defs>
<path fill="#FFFFFF" d="M40.224,4.145l-0.227-1.68l-1.65,0.387c-2.326,0.546-4.592,0.825-6.732,0.825
	c-6.799,0-10.41-2.843-10.438-2.866L20.196,0l-0.039,0.032l-0.039-0.031l-0.974,0.807c-0.035,0.028-3.646,2.87-10.444,2.87
	c-2.141,0-4.406-0.28-6.733-0.825l-1.65-0.387l-0.227,1.68C0.082,4.211-0.542,11.774,1.607,20.79
	c1.239,5.201,3.147,9.867,5.671,13.867c3.159,5.006,7.295,8.979,12.293,11.805l0.074,0.043l0.479,0.126l0.034-0.011l0.035,0.01
	l0.479-0.127l0.073-0.042c4.998-2.826,9.133-6.798,12.293-11.805c2.523-4,4.432-8.666,5.67-13.867
	C40.858,11.773,40.233,4.21,40.224,4.145z M37.39,20.62c-2.754,11.416-8.541,19.703-17.207,24.638l-0.025-0.007l-0.025,0.007
	C11.466,40.323,5.677,32.036,2.926,20.62C0.808,11.833,1.387,4.489,1.401,4.315l0.032-0.229L1.665,4.14
	C4.091,4.71,6.457,5.001,8.7,5.001c7.278,0,11.115-3.034,11.283-3.17l0.14-0.115l0.034,0.028l0.034-0.028l0.147,0.122
	c0.16,0.13,3.998,3.164,11.275,3.164c2.242,0,4.609-0.291,7.035-0.861l0.232-0.054l0.031,0.229
	C38.929,4.494,39.507,11.834,37.39,20.62z"/>
<path fill="#FFFFFF" d="M30.019,17.753c0.24,0.19,0.543,0.307,0.875,0.307c0.771,0,1.398-0.626,1.398-1.398
	c0-0.774-0.627-1.398-1.398-1.398c-0.773,0-1.398,0.625-1.398,1.398c0,0.062,0.004,0.123,0.014,0.183l-6.424,0.928l-2.404-6.015
	c0.527-0.2,0.904-0.709,0.904-1.308c0-0.77-0.625-1.396-1.398-1.396s-1.399,0.626-1.399,1.396c0,0.58,0.352,1.077,0.854,1.289
	l-2.412,6.033l-6.422-0.926c0.009-0.061,0.014-0.122,0.014-0.184c0-0.774-0.626-1.398-1.398-1.398c-0.772,0-1.399,0.625-1.399,1.398
	c0,0.772,0.626,1.398,1.399,1.398c0.331,0,0.633-0.115,0.872-0.307l4.008,5.089l-3.916,4.975c-0.251-0.241-0.59-0.387-0.965-0.387
	c-0.773,0-1.399,0.626-1.399,1.397c0,0.775,0.626,1.4,1.399,1.4c0.769,0,1.391-0.62,1.397-1.387l6.412-0.926l2.278,5.703
	c-0.446,0.234-0.751,0.701-0.751,1.24c0,0.771,0.626,1.398,1.398,1.398c0.772,0,1.399-0.627,1.399-1.398
	c0-0.539-0.305-1.006-0.75-1.24l2.279-5.703l6.41,0.925c0.004,0.769,0.629,1.389,1.396,1.389c0.773,0,1.4-0.625,1.4-1.4
	c0-0.771-0.627-1.397-1.4-1.397c-0.373,0-0.713,0.147-0.963,0.387l-3.918-4.975L30.019,17.753z"/>
</svg>
