<?xml version="1.0" encoding="utf-8"?>
<!-- Generator: Adobe Illustrator 15.0.2, SVG Export Plug-In  -->
<!DOCTYPE svg PUBLIC "-//W3C//DTD SVG 1.1//EN" "http://www.w3.org/Graphics/SVG/1.1/DTD/svg11.dtd" [
	<!ENTITY ns_flows "http://ns.adobe.com/Flows/1.0/">
]>
<svg version="1.1"
	 xmlns="http://www.w3.org/2000/svg" xmlns:xlink="http://www.w3.org/1999/xlink" xmlns:a="http://ns.adobe.com/AdobeSVGViewerExtensions/3.0/"
	 x="0px" y="0px" width="347px" height="495px" viewBox="875.32 459.345 347 495"
	 overflow="visible" enable-background="new 875.32 459.345 347 495" xml:space="preserve">
<defs>
</defs>
<path display="none" d="M1131.36,876.345l-78.24-152.64c-3.84,23.04-11.04,45.121-20.64,65.28l55.68,109.44
	c4.32,8.16,12.48,12.96,21.601,12.96c3.84,0,7.199-0.96,11.04-2.4C1132.8,902.745,1137.12,888.345,1131.36,876.345z"/>
<circle display="none" cx="1003.2" cy="520.665" r="40.32"/>
<path display="none" d="M1099.68,650.745c-44.16-18.72-72.96-66.24-73.44-67.2c-7.2-12.48-23.52-16.8-36-9.12
	c-1.92,0.96-3.36,2.4-4.8,3.36c-16.32,10.56-58.56,43.2-80.16,114.24c-4.32,13.44,3.36,27.84,17.28,32.16
	c13.44,4.32,27.84-3.36,32.16-17.28c9.12-30.24,22.56-51.36,34.56-64.8c2.88,17.76,4.32,41.28,0,67.68
	c-13.44,82.56-89.76,157.44-90.72,158.4c-10.08,10.08-10.56,25.92-0.48,36.48c4.8,5.279,11.52,7.68,18.24,7.68
	c6.24,0,12.96-2.4,17.76-7.2c3.84-3.359,90.24-87.84,105.12-186.72c2.4-13.92,2.88-27.36,3.36-39.84
	c11.04,8.16,23.04,15.36,36.479,21.12c3.36,1.44,6.721,1.92,10.08,1.92c10.08,0,20.16-6.24,24.48-15.84
	C1119.36,671.865,1113.12,656.505,1099.68,650.745z"/>
<path display="none" d="M879.36,545.625c27.36,0,49.44,22.08,49.44,49.44c0,27.36-22.08,49.44-49.44,49.44s-49.44-22.08-49.44-49.44
	C829.92,567.705,852,545.625,879.36,545.625 M879.36,531.705c-35.04,0-63.84,28.8-63.84,63.84s28.8,63.84,63.84,63.84
	s63.84-28.8,63.84-63.84C943.2,560.025,914.4,531.705,879.36,531.705L879.36,531.705z"/>
<path display="none" d="M1067.52,480.345c-64.8,0-117.6,52.8-117.6,117.6c0,12,1.92,23.52,5.28,34.56c4.32-2.4,9.12-4.32,12.96-5.76
	c-2.4-9.12-4.32-18.72-4.32-28.8c0.48-57.12,47.041-103.2,103.68-103.2c57.12,0,103.2,46.56,103.2,103.2
	c0.479,57.12-46.08,103.2-103.2,103.2c-22.08,0-42.72-7.2-59.521-18.72c-1.92,1.92-3.359,3.36-4.8,5.28
	c22.08,15.36,35.04,17.28,53.76,20.16c1.92,0.48,3.36,1.44,4.32,2.88c0,0,1.44,1.92,3.36,4.8c0.96,0,1.439,0,2.399,0
	c64.8,0,117.601-52.8,117.601-117.6C1185.12,533.145,1132.8,480.345,1067.52,480.345z"/>
<path display="none" d="M1084.8,747.705c-7.681-16.8-22.561-36-23.04-36.96c-0.96-1.44-2.881-2.4-4.32-2.88
	c-18.72-2.88-31.68-4.8-53.761-20.16c7.681-9.12,19.681-18.72,31.2-24.96c6.721-3.36,14.4-5.76,21.601-7.68
	c14.399-3.84,32.16-9.12,27.84-26.88c-2.4-10.56-17.28-16.8-39.84-16.8c-2.4,0-4.8,0-7.68,0.48c-14.881,0.96-30.24,2.4-56.161,11.04
	c-17.28,5.76-52.32,21.12-62.4,39.84c-11.04,18.72-4.8,47.04,15.36,67.2c0,0,18.72,19.2,43.2,45.6c5.76,6.24,11.52,12.479,16.8,19.2
	c0.96,17.76,1.92,40.319,0,52.319c-1.92,11.04-11.52,37.92-3.84,44.16c5.76,4.32,22.56-4.8,36-20.16
	c0.96-0.96,1.439-1.92,2.399-2.88l2.88,12.48c2.88,18.72,15.84,33.12,29.28,33.12h0.96c16.8-0.96,28.32-31.681,32.16-60
	C1094.4,849.465,1102.08,785.625,1084.8,747.705z M1080,850.904c-3.84,30.24-14.88,47.04-18.72,47.521h-0.479
	c-5.761,0-13.44-8.64-15.36-21.12v-0.479l-6.72-30.24c-7.681-32.16-30.24-59.521-50.88-82.08c-24.96-26.4-43.2-45.6-43.68-45.6
	c-15.36-15.36-21.12-37.44-12.96-50.4c6.24-11.52,32.64-26.4,54.24-33.12c24.479-7.68,38.399-9.12,52.8-10.08c2.4,0,4.32,0,6.72,0
	c17.28,0,24.96,4.32,25.92,6.24c0.96,3.84-1.439,5.28-17.76,10.08c-7.68,2.4-16.319,4.8-24.479,9.12
	c-15.84,8.16-31.68,22.08-40.32,35.04c-1.44,2.4-1.44,4.8-0.48,7.2l0,0c0,0,32.64,48.48,78.24,48.48
	c2.4,4.32,4.801,8.64,6.721,12.479C1087.68,787.545,1080,849.944,1080,850.904z"/>
<path display="none" d="M1185.6,580.665h-123.36v-25.92c0-11.52-9.12-20.64-20.64-20.64h-82.56c-11.52,0-20.64,9.12-20.64,20.64
	v25.92H815.04c-16.8,0-30.72,13.92-30.72,30.72v216c0,16.8,13.92,30.72,30.72,30.72h370.08c16.8,0,30.72-13.92,30.72-30.72v-216
	C1216.32,594.585,1202.4,580.665,1185.6,580.665z M959.04,554.745h82.08v25.92h-82.08V554.745z M1114.56,601.305v236.64h-228
	v-236.64H1114.56z M804.96,827.385v-216c0-5.76,4.8-10.08,10.08-10.08h41.76v236.64h-41.76
	C809.28,837.944,804.96,833.145,804.96,827.385z M1195.68,827.385c0,5.76-4.801,10.08-10.08,10.08h-41.28v-236.16h41.28
	c5.76,0,10.08,4.8,10.08,10.08V827.385z"/>
<path display="none" d="M1033.919,623.385l-78.24,78.24l52.32,52.32l78.24-78.24v-52.32H1033.919z M1068,657.465
	c-4.319,4.32-11.52,4.32-15.84,0c-4.32-4.32-4.32-11.52,0-15.84c4.32-4.32,11.521-4.32,15.84,0
	C1072.32,645.945,1072.32,653.145,1068,657.465z"/>
<path display="none" d="M1213.919,732.345c-7.68-1.92-15.359,2.88-17.279,11.04c-21.12,92.16-101.761,156.479-196.8,156.479
	c-72,0-139.2-38.88-175.2-101.76c0-0.479-0.48-0.479-0.48-0.96c0,0,0-0.479-0.48-0.479c-5.76-10.08-13.92-32.16-15.84-38.4
	c-4.32-16.8-3.84-27.84,0.96-34.56c6.24-7.68,20.64-12,42.24-12.48h23.04l0,0v21.12c0,15.36,9.6,27.84,22.08,27.84h62.4v-24h37.92
	v-28.32h-37.92v-19.2h37.92v-28.32h-37.92v-24h-62.4c-12,0-22.08,12.48-22.08,27.84v17.76l0,0h-23.04
	c-31.2,0.48-52.32,8.16-64.32,23.52c-11.04,14.4-12.96,33.6-6.24,59.52c1.92,7.681,11.04,32.641,18.72,45.601
	c0,0.479,0.48,0.479,0.48,0.479s0,0.48,0.48,0.48c40.8,72.479,117.6,117.12,200.16,117.12c108.48,0,200.64-73.44,224.64-179.04
	C1226.879,741.945,1222.08,733.785,1213.919,732.345z M969.12,717.465h18.72v9.12h-18.72V717.465z M969.12,669.465h18.72v9.12
	h-18.72V669.465z M894.24,664.185c0-5.28,1.92-8.16,3.36-8.64h42.72v85.44H897.6c-0.96-0.96-3.36-3.84-3.36-8.64V664.185z"/>
<path display="none" d="M786.72,663.705c0.96,0.48,1.92,0.48,3.36,0.48c6.72,0,12.48-4.32,13.92-11.04
	c20.64-92.16,101.76-156.48,196.32-156.48c72,0,139.2,38.88,175.2,101.76c0.479,0.96,1.439,1.92,1.92,2.88
	c5.76,11.04,12.479,30.24,14.399,36c4.32,16.8,3.841,27.84-0.96,34.56c-6.239,7.68-20.64,12-42.239,12.48h-22.561v-19.2
	c0-15.36-9.6-27.84-22.08-27.84H1041.6v123.84H1104c12,0,22.08-12.48,22.08-27.84v-19.2h22.561
	c31.68-0.479,53.279-8.16,65.279-23.52c11.04-14.4,12.96-33.6,6.24-59.52c-1.92-7.68-11.04-32.64-18.72-45.6
	c-0.48-1.44-1.44-2.4-2.4-3.36c-42.239-71.04-117.6-114.24-198.72-114.24c-108.48,0-200.64,73.44-224.64,179.04
	C773.76,654.585,778.56,662.265,786.72,663.705z M1106.4,731.865c0,5.28-1.92,8.16-3.36,8.64h-42.72v-84.96h42.72
	c0.96,0.96,3.36,3.84,3.36,8.64V731.865z"/>
<path display="none" d="M1055.52,907.064h-110.4c17.76,4.8,36,7.2,55.2,7.2S1037.76,911.864,1055.52,907.064z"/>
<path display="none" d="M1167.839,856.665v49.92h-70.079c-5.761,2.399-11.04,4.8-17.28,7.2h94.56v-64.801
	C1172.64,851.864,1170.24,854.265,1167.839,856.665z"/>
<path display="none" d="M902.88,907.064H832.8v-50.399c-2.4-2.4-4.8-5.28-7.2-7.681v65.28h94.56
	C914.4,911.864,908.64,909.465,902.88,907.064z"/>
<path display="none" d="M848.16,550.905c38.4-40.32,92.16-65.28,152.16-65.28s113.76,24.96,152.16,65.28h9.6
	c-39.84-44.16-97.439-72.48-161.76-72.48c-64.32,0-121.92,27.84-161.76,72.48H848.16z"/>
<path display="none" d="M1218.24,696.345L1218.24,696.345L1218.24,696.345c0-39.36-10.56-76.32-28.8-108.48v14.88
	c13.92,28.32,22.08,60,22.08,93.12l0,0c0,116.16-94.561,210.72-210.72,210.72c-116.64,0.479-211.2-94.08-211.2-210.24l0,0
	c0-33.6,7.68-65.28,22.08-93.12v-14.88c-18.24,32.16-28.8,69.12-28.8,108.48l0,0l0,0l0,0l0,0
	c-0.48,119.52,97.44,217.44,217.44,217.44S1218.24,816.345,1218.24,696.345L1218.24,696.345L1218.24,696.345z"/>
<path display="none" d="M1174.08,565.305h-9.12H835.68h-9.12h-0.96v0.96l0,0v12.48l0,0v141.6l0,0v19.2v1.92v44.64
	c2.4,4.32,4.8,8.641,7.2,12.48v-57.6v-1.44v-17.76l0,0v-149.28h334.56v147.84l0,0v19.2v1.92v57.6c2.4-4.319,4.8-8.16,7.2-12.479
	v-44.64v-2.4v-17.76l0,0v-143.52v-12.48v-0.96h-0.48V565.305z"/>
<path display="none" d="M999.36,623.865c-14.4,0-25.92-11.52-25.92-25.92s11.52-25.92,25.92-25.92c14.399,0,25.92,11.52,25.92,25.92
	S1013.759,623.865,999.36,623.865z M999.36,579.225c-10.56,0-18.72,8.64-18.72,18.72c0,10.56,8.64,18.72,18.72,18.72
	c10.56,0,18.72-8.16,18.72-18.72C1018.08,587.865,1009.919,579.225,999.36,579.225z"/>
<path display="none" d="M1151.04,627.225h-48.96l55.2-24.96c8.16-3.36,11.521-12.96,8.16-20.64c-2.4-5.76-8.16-9.12-14.4-9.12
	c-2.399,0-4.319,0.48-6.239,1.44l-120,53.28h-51.36l-117.12-53.76c-1.92-0.96-4.32-1.44-6.72-1.44c-6.24,0-12,3.84-14.4,9.12
	c-3.84,7.68,0,17.28,7.68,20.64l54.72,24.96h-14.88l0,0H849.6c-8.64,0-15.84,7.2-15.84,15.84c0,8.64,7.2,15.84,15.84,15.84h112.32
	v66.72c0,0.48-0.48,0.96-0.48,1.44l-51.36,146.88c-1.44,3.84-1.44,8.16,0.48,12c1.92,3.84,4.8,6.72,9.12,8.16
	c1.92,0.479,3.36,0.96,5.28,0.96c6.72,0,12.48-4.32,14.88-10.561l22.08-60v71.04c0,8.641,7.2,15.84,15.84,15.84
	s15.84-7.199,15.84-15.84v-148.8h11.52v148.8c0,8.641,7.2,15.84,15.841,15.84c8.64,0,15.84-7.199,15.84-15.84v-68.16l20.64,57.12
	c2.399,6.24,8.16,10.561,14.88,10.561c1.92,0,3.84-0.48,5.28-0.96c3.84-1.44,7.2-4.32,8.64-8.16c1.92-3.84,1.92-8.16,0.48-12
	c-40.32-116.16-48.96-140.16-50.4-145.44v-6.72l0,0v-62.4h114.72c8.641,0,15.84-7.2,15.84-15.84
	C1166.879,634.425,1159.68,627.225,1151.04,627.225z M1147.68,580.185c0.96-0.48,2.399-0.96,3.359-0.96c3.36,0,6.24,1.92,7.681,5.28
	c1.92,4.32,0,9.6-4.32,11.52l-70.08,31.2h-42.24L1147.68,580.185z M845.76,596.025c-4.32-1.92-6.24-7.2-4.32-11.52
	c1.44-3.36,4.8-5.28,7.68-5.28c0.96,0,2.4,0.48,3.36,0.96l103.2,47.04h-41.76L845.76,596.025z M933.12,881.625
	c-1.44,3.359-4.8,5.76-8.16,5.76c-0.96,0-1.92,0-2.88-0.48c-4.32-1.439-6.72-6.72-5.28-11.04l45.12-129.12v56.64L933.12,881.625z
	 M1080,875.864c1.44,4.32-0.479,9.601-5.279,11.04c-0.96,0.48-1.92,0.48-2.881,0.48c-3.359,0-6.72-2.4-8.159-5.76l-27.36-75.84
	v-56.161C1050.24,789.944,1080,875.864,1080,875.864z M1151.04,651.705h-118.56l-3.36,1.44v75.84l0,0v57.12l0,0v108.96
	c0,4.8-3.84,8.641-8.64,8.641c-4.801,0-8.641-3.841-8.641-8.641v-155.52H985.92v156c0,4.8-3.84,8.64-8.64,8.64s-8.64-3.84-8.64-8.64
	v-111.84l0,0v-61.92l0,0v-68.64l-2.88-1.44H849.6c-4.8,0-8.64-3.84-8.64-8.64c0-4.8,3.84-8.64,8.64-8.64h81.12l0,0h41.76l0,0h54.24
	l0,0h42.239l0,0h82.561c4.8,0,8.64,3.84,8.64,8.64C1159.68,647.865,1155.839,651.705,1151.04,651.705z"/>
<path d="M1011.36,497.145c2.399,0,4.319,0.96,4.319,3.36c0,6.24-13.439,8.64-13.439,19.68v4.32H1020v-2.88
	c0-6.72,14.88-9.12,14.88-23.521c0-12.48-11.52-18.24-22.079-18.24c-12.48,0-19.681,8.16-19.681,8.16l10.08,12.48
	C1003.2,500.985,1007.041,497.145,1011.36,497.145z"/>
<rect x="1002.72" y="530.265" width="16.32" height="15.36"/>
<path d="M1062.24,672.825c10.561-12.48,17.28-28.8,17.28-46.08c0-39.36-32.16-71.52-71.521-71.52c-39.36,0-71.52,32.16-71.52,71.52
	c0,19.2,7.68,36.96,20.64,50.4c-9.6,8.16-25.44,25.44-32.16,50.88v0.48c0,0.48-0.48,1.44-0.48,1.92v0.96
	c-0.48,2.4-0.96,4.32-1.44,6.72c-1.92,10.08-1.92,18.721,0,25.92c1.44,6.721,6.72,13.44,7.68,14.4c0.48,0.479,0.48,0.479,0.96,0.96
	l0,0c0,10.08,0.48,26.4,0.96,29.28c1.92,40.8,12.96,78.72,20.64,93.12c8.64,16.8,20.64,19.199,28.32,16.8
	c2.88-0.96,5.76-3.36,7.2-6.721c2.4-4.319,2.88-9.6,2.88-10.56v-0.479v-27.36c4.32,0.479,10.56,2.399,14.88,7.2
	c9.119,10.56,11.52,16.8,14.88,26.399c2.88,8.641,8.16,11.521,11.52,12.48c1.44,0.479,2.88,0.479,4.32,0.479
	c4.32,0,8.64-1.439,12-4.319c7.2-6.24,19.68-36.48,22.56-81.601c1.921-26.399-0.96-52.8-3.84-70.56v-0.48v-0.479
	c-0.96-4.8-1.439-9.12-1.92-12.96l0.48-0.48c1.439-1.44,2.88-3.36,3.84-4.8c0.96-0.96,1.439-1.92,2.4-2.88
	c1.439-2.4,2.88-4.8,4.319-8.16c3.84-10.56,5.28-28.32-2.399-44.16C1070.879,682.905,1067.04,678.104,1062.24,672.825z
	 M1059.36,732.345c-0.48,0.96-1.44,1.44-1.92,2.4c-0.96,1.44-1.92,2.4-3.36,3.84c-0.96,0.96-2.399,2.4-3.359,3.36
	c-4.801,3.84-9.601,6.72-14.4,7.68c-0.96,0-2.4,0.48-3.36,0.48c-3.359,0.48-7.199,0.48-10.56,0.48l0,0l0,0
	c-0.48,0-2.88-0.48-5.76-1.44c-3.84-0.96-9.12-3.36-12.961-6.72c-1.92-1.44-3.359-2.88-4.799-4.8c-1.44-1.44-2.4-2.88-3.36-4.32
	c-0.96-1.44-1.92-2.4-2.4-4.32c-0.48-0.48-0.48-1.44-0.96-1.92c-0.96-1.44-1.44-3.36-2.4-5.28c-0.48-1.92-1.44-3.84-1.92-5.76
	c-0.48-0.96-0.48-1.92-0.96-3.36c-2.88-9.6-3.84-18.24-3.84-24.96v-0.48c0-3.36,0.48-5.76,0.96-6.72c0,0,0-0.48,0.48-0.48
	c0.48-0.48,1.92-0.48,2.88,0c3.84,1.44,6.72,4.8,12,12l0.48,0.48l18.72,23.52c2.4,2.88,6.72,3.84,10.08,1.44
	c0,0,5.76-3.84,11.52-9.12c4.8-4.32,8.16-8.16,10.561-12c1.92-3.36,3.359-6.72,4.8-10.08c2.399,2.88,4.319,5.76,5.76,8.64
	c5.76,12,4.8,24.96,1.92,32.64C1060.8,729.465,1060.32,731.385,1059.36,732.345z M1021.44,696.345c3.84-0.96,7.2-1.92,11.04-2.88
	c-0.96,0.96-1.92,1.92-3.36,3.36c-1.439,1.44-2.88,2.4-4.319,3.36L1021.44,696.345z M951.36,626.265c0-31.2,25.44-56.64,56.64-56.64
	c31.2,0,56.16,25.92,56.16,56.64c0,29.76-23.52,54.72-53.279,56.16l0,0l-0.48-0.48c-5.76-8.16-10.56-14.4-19.2-17.28
	c-4.8-1.44-10.08-1.44-14.4,0.96c-1.92,0.96-3.36,2.4-4.8,3.84C959.04,659.385,951.36,643.545,951.36,626.265z M937.44,740.025
	c0.48-1.92,0.96-3.84,1.44-5.76l0.48-2.4v-0.48c4.8-18.24,15.36-31.2,23.04-39.36c0.48,7.2,1.92,15.84,4.32,24.96l0.48,2.4
	c0.48,1.92,0.96,3.84,1.44,5.28c-0.48,0.48-1.44,0.96-1.92,1.44c-2.4,1.92-3.84,2.88-4.8,3.36v0.96c-4.8,2.4-9.6,4.8-10.08,4.8
	c-3.36,1.44-5.28,5.28-4.32,8.64s3.84,5.76,7.68,5.76c0,0,5.76-0.48,12.48-1.44c1.44-0.48,2.88-0.48,4.8-0.96s3.84-1.44,6.24-1.92
	c1.92,2.88,4.8,5.76,7.68,9.12c0.96,0.96,2.4,2.4,3.84,3.84c2.88,2.88,6.24,4.8,10.56,7.2c-0.96,0.479-1.92,0.96-2.88,1.92
	c-9.6,5.28-28.32,9.6-40.32,9.6l0,0c-5.76,0-7.68-0.96-8.64-1.439c-0.96-0.48-4.32-2.88-6.72-5.76c-1.44-1.921-3.84-6.24-4.8-8.641
	C936,754.425,936,748.185,937.44,740.025z M1056,832.665c-2.88,46.56-15.359,69.12-17.279,71.04c-0.96,0.96-2.4,0.96-2.881,0.96
	c-0.479,0-0.96-0.96-1.439-2.4c-3.36-11.04-6.72-19.2-17.76-32.16c-8.641-9.6-21.12-12-27.84-12.479c-3.36-0.48-6.24,0-6.24,0
	c-3.84,0.479-6.72,3.359-6.72,7.68v35.04c0,0.96-0.48,2.4-0.96,3.84c-1.92-0.479-5.28-2.399-9.12-9.6
	c-6.72-12.48-16.8-48.48-18.72-86.88c0-4.32-0.479-12-0.479-18.721c2.88,0.96,6.72,1.44,11.04,1.44l0,0
	c14.4,0,35.52-5.28,47.041-11.52c4.32-2.4,8.64-5.28,12.959-8.641c0.961-0.96,2.4-1.92,3.361-2.399c0.959-0.48,1.439-1.44,1.919-2.4
	c1.44,0,2.4,0,3.841,0c2.88,0,5.76,0,8.64-0.48c1.44,0,3.36-0.479,4.8-0.96c4.32-0.96,8.16-2.399,12-4.319
	c0,1.439,0.48,2.88,0.48,4.319v0.48c0,0.96,0,1.439,0.479,2.4C1055.04,783.705,1057.44,808.185,1056,832.665z"/>
<path display="none" d="M942.24,785.145c0,0,19.2,8.16,24,17.76c4.8,9.601,4.32,15.36,1.92,19.2c-1.92,4.32-12.48,9.12-24,9.12
	s-28.8-1.439-28.8-1.439C965.76,819.225,942.24,785.145,942.24,785.145z"/>
<path display="none" fill="none" stroke="#000000" stroke-width="3" d="M1056.48,608.505c0,30.24-24,54.24-54.24,54.24
	c-30.24,0-54.24-24.48-54.24-54.24c0-29.76,24.48-54.24,54.24-54.24C1032.48,554.265,1056.48,578.745,1056.48,608.505"/>
<path display="none" fill="none" stroke="#000000" stroke-width="3" d="M823.68,735.225c6.72-11.04,35.04-44.16,72.48-54.24
	c37.44-10.56,60.48-13.92,80.64,6.72c20.16,20.64,31.2,50.88,48.48,58.56s31.68,9.12,36.48,16.32c4.8,7.68,1.92,22.08-13.921,22.08
	c-15.84,0-48.479-10.561-72.479-19.2c-24-9.12-31.2-15.36-31.2-15.36l-16.32,29.76c0,0,9.12,1.44,16.32,6.721
	c7.68,5.279,11.52,16.319,4.8,24.96c-6.72,8.16-23.52,18.72-36.48,21.6s-54.24,4.8-73.92,0.48c-19.2-4.32-33.12-26.4-30.24-52.32
	C811.2,754.904,816.48,746.265,823.68,735.225z"/>
<path display="none" stroke="#000000" stroke-width="3" d="M935.04,741.945c-2.4-2.4-7.68-7.2-7.68-7.2s-12.48,18.24-18.72,25.92
	c-6.24,7.68-13.44,14.88-13.44,14.88s7.2,0.96,15.84,2.399c9.12,1.44,15.84,2.4,15.84,2.4l16.32-29.76
	C944.16,750.104,937.44,744.345,935.04,741.945z"/>
<path display="none" fill="none" stroke="#000000" stroke-width="2" stroke-linejoin="round" d="M980.16,812.984
	c0-1.92,1.44-3.359,3.36-3.359l123.359-2.4l0.48,22.561L984,828.345c-1.92,0-3.36-1.44-3.36-3.36L980.16,812.984z"/>
<path display="none" d="M1001.759,665.145c-39.359,0-71.52-32.16-71.52-71.52c0-39.36,32.16-71.521,71.52-71.521
	c39.36,0,71.521,32.16,71.521,71.521C1073.28,632.985,1041.12,665.145,1001.759,665.145z M1001.759,536.985
	c-31.199,0-56.64,25.44-56.64,56.64c0,31.2,25.44,56.64,56.64,56.64c31.2,0,56.641-25.44,56.641-56.64
	C1058.4,562.425,1032.959,536.985,1001.759,536.985z"/>
<path display="none" d="M1049.76,919.545c-1.921,0-3.841-0.48-5.761-0.96c-10.08-3.36-11.52-17.28-11.52-19.681v-0.479v-36.48
	c-7.2,0-21.6,1.44-30.721,8.641c-8.64,7.2-9.6,13.439-11.04,21.6c-0.48,3.84-0.96,7.681-2.4,11.521
	c-3.36,9.6-10.56,14.88-20.16,14.88l0,0c-3.36,0-6.72-0.48-10.08-1.92c-11.52-3.84-27.36-46.561-31.2-101.28
	c-3.84-58.56,9.12-93.6,9.6-95.04l1.44-3.84l149.76-29.76l2.399,5.28c0,0.48,3.36,7.2,5.28,15.36c0,0.96,0.96,2.4,1.44,4.32
	c3.359,10.08,10.56,31.2,8.64,73.44c-2.4,50.4-17.28,97.44-26.88,114.721C1067.52,917.625,1054.56,919.545,1049.76,919.545z
	 M1048.8,905.145c0,0,0.479,0,0.96,0c3.84,0,10.079-3.359,15.359-13.439c8.641-15.36,22.561-60.48,24.96-108
	c1.92-39.36-4.8-58.561-7.68-67.68c-0.96-2.4-1.44-4.32-1.92-5.76c-0.48-2.4-1.44-4.8-1.92-6.72l-130.08,25.92
	c-2.88,10.08-10.56,40.8-7.2,85.439c3.84,53.761,17.76,84,22.08,88.801c1.92,0.479,3.36,0.96,4.8,0.96l0,0
	c2.88,0,4.8-0.96,6.24-4.801c0.96-2.88,1.44-6.239,1.92-9.6c1.44-9.12,2.88-20.16,16.32-30.72
	c12.959-10.08,31.68-11.521,41.76-11.521c3.84,0,6.24,0,6.24,0l6.72,0.48v50.399C1046.879,900.825,1047.839,903.705,1048.8,905.145z
	"/>
<path display="none" d="M933.12,806.745l86.88,22.56c0,0,72.96-31.68,76.801-33.6c0.96-10.561,0.479-21.601,0.479-21.601
	l-164.64,4.32L933.12,806.745z"/>
<polygon display="none" points="994.08,622.425 1102.08,577.305 1101.6,615.225 1007.52,655.545 "/>
<path display="none" d="M1005.599,658.905l-13.919-37.92l112.32-47.04l-0.479,42.72L1005.599,658.905z"/>
<polygon display="none" points="994.56,622.425 880.32,584.985 898.08,626.745 1008.96,655.545 "/>
<path display="none" d="M1011.36,658.425l-130.08-29.76l-3.84-47.04l119.04,38.88L1011.36,658.425z"/>
<polygon display="none" points="1007.52,798.104 1103.04,759.705 1103.04,711.225 1097.28,708.825 1097.28,670.905 1103.04,667.065 
	1103.04,602.265 998.4,637.305 994.08,638.745 989.76,637.785 884.16,610.905 891.36,675.705 896.64,678.104 911.52,700.665 
	900.96,728.985 896.64,728.985 900.96,769.785 "/>
<polygon display="none" points="989.76,637.785 994.08,638.745 998.4,637.305 1103.04,602.265 1103.04,667.065 1115.04,658.425 
	1117.919,656.985 1117.919,582.104 993.6,623.865 867.36,591.705 875.52,668.985 891.36,675.705 884.16,610.905 "/>
<polygon display="none" points="1115.52,717.465 1103.04,711.225 1103.04,759.705 1007.52,798.104 900.96,769.785 896.64,728.985 
	882.24,730.905 887.52,781.305 1008,813.465 1117.44,769.785 1117.44,716.025 "/>
<path display="none" d="M884.16,739.065c-10.56,0-31.2-12.48-32.16-41.28c-0.96-25.92,15.36-34.56,24-35.52h1.92l1.92,0.48
	c0,0,7.68,3.36,13.44,5.76c0.96,0.48,1.44,0.48,2.4,0.96c5.76,2.4,15.84,6.24,20.16,17.28c3.84,10.56,4.32,26.88-3.84,37.92
	C904.32,735.225,891.36,739.065,884.16,739.065z M876,677.625c-2.88,0.96-9.6,5.28-9.12,20.16c0.48,23.04,16.8,26.88,17.76,26.88
	c3.36,0,11.52-2.4,15.84-8.16c3.84-5.28,4.8-15.84,1.92-24c-1.92-4.32-6.24-6.72-12-9.12c-0.96-0.48-2.4-0.96-3.36-1.44
	C883.2,680.505,878.88,678.585,876,677.625z"/>
<path display="none" d="M1000.32,503.385c-3.84,0-7.2-3.36-7.2-7.2v-15.84c0-3.84,3.36-7.2,7.2-7.2s7.2,3.36,7.2,7.2v15.84
	C1007.52,500.025,1004.64,503.385,1000.32,503.385z"/>
<path display="none" d="M1049.76,516.345c-1.921,0-3.36-0.48-4.801-1.92c-2.88-2.88-3.359-7.2-0.96-10.08l9.12-10.56
	c2.88-2.88,7.2-3.36,10.561-0.96c2.88,2.88,3.359,7.2,0.96,10.08l-9.12,10.56C1054.08,515.385,1052.16,516.345,1049.76,516.345z"/>
<path display="none" d="M954.24,517.305c-1.92,0-3.36-0.48-4.8-1.92l-9.6-9.12c-2.88-2.88-3.36-7.2-0.48-10.56
	c2.88-2.88,7.2-3.36,10.56-0.48l9.6,9.12c2.88,2.88,3.36,7.2,0.48,10.56C958.56,516.345,956.16,517.305,954.24,517.305z"/>
<rect x="905.722" y="711.471" transform="matrix(-0.0767 -0.9971 0.9971 -0.0767 361.281 1771.8821)" display="none" width="190.569" height="14.401"/>
<g display="none">
	<defs>
		<path id="SVGID_15_" d="M1020.96,861.465c-4.801-19.68-17.281-36.96-28.801-50.4c0.48,13.92,2.4,37.44,0.48,48.96
			c-1.44,8.641-8.64,28.801-2.88,33.601c4.32,3.359,17.28-3.84,27.839-15.36c1.921-2.4,3.841-4.8,6.24-7.2
			C1022.879,867.705,1021.919,864.825,1020.96,861.465"/>
	</defs>
	<clipPath id="SVGID_16_" display="inline">
		<use xlink:href="#SVGID_15_"  display="none" overflow="visible"/>
	</clipPath>
	<rect x="981.6" y="805.305" clip-path="url(#SVGID_16_)" width="47.041" height="94.08"/>
</g>
<path display="none" fill="none" stroke="#000000" stroke-width="1.9202" stroke-miterlimit="10" d="M975.36,697.785
	c-19.68-39.84-7.2-88.8,29.76-114.24c2.88-2.4,6.72-7.2,5.28-12.96c-1.92-8.16-12-52.32-14.4-62.88l-1.92,0.48
	c-2.4,0.48-4.8-0.96-5.28-3.36l-1.92-7.68c-0.48-2.4,0.96-4.8,3.36-5.28l49.92-11.52c2.4-0.48,4.8,0.96,5.28,3.36l1.92,7.68
	c0.479,2.4-0.96,4.8-3.36,5.28l-0.96,0.48c2.4,10.56,12.48,55.2,14.4,61.92c1.92,6.72,11.52,10.08,13.439,10.56
	c24.96,4.32,48,19.2,62.4,42.72c25.44,42.72,11.521,97.92-31.2,122.88c-31.68,19.2-71.04,15.84-98.88-4.8"/>
<path display="none" d="M981.12,631.545c-5.76,15.84-6.72,34.08-0.96,51.36c1.44,4.32,2.88,8.16,4.8,12
	c2.88,5.28,33.12-9.12,45.12-6.72c69.12,12-26.88,31.2-21.119,35.04c19.68,14.4,46.079,19.68,71.039,11.52
	c41.761-13.44,64.801-58.08,51.36-99.84c-0.48-0.96-0.48-1.92-0.96-2.88H981.12V631.545z"/>
<g display="none">
	<defs>
		<path id="SVGID_14_" d="M1051.68,776.984c0,0-8.16-13.439-12-17.76c-29.761-4.32-48-19.68-48-19.68
			C992.16,739.545,1018.56,777.944,1051.68,776.984z"/>
	</defs>
	<clipPath id="SVGID_17_" display="inline">
		<use xlink:href="#SVGID_14_"  display="none" overflow="visible"/>
	</clipPath>
	<rect x="986.4" y="734.265" clip-path="url(#SVGID_17_)" width="71.04" height="48.48"/>
</g>
<path display="none" d="M1061.76,786.104c-5.761-12.96-17.28-27.84-17.761-28.319c-0.96-0.96-1.92-1.921-3.359-1.921
	c-14.4-2.399-24-3.839-41.28-15.839c6.239-7.2,14.88-14.4,24-19.2c5.28-2.88,11.04-4.32,16.8-5.76c11.04-2.88,24.48-7.2,21.12-20.64
	c-1.92-8.16-13.44-12.96-30.24-12.96c-1.92,0-3.84,0-5.76,0c-11.521,0.96-23.04,1.92-42.72,8.16
	c-13.44,4.32-40.32,16.32-47.521,30.24c-8.64,14.4-3.36,36,12,51.84c0,0,14.4,14.399,33.12,35.04c4.32,4.8,8.64,9.6,12.96,14.88
	c0.48,13.92,1.44,30.72,0,39.84c-1.44,8.64-8.64,29.28-2.88,33.6c4.32,3.36,17.28-3.84,27.84-15.359c0.48-0.48,1.44-1.44,1.92-2.4
	l2.4,9.6c2.4,14.4,12,25.44,22.56,25.44h0.48c12.96-0.479,22.08-24,24.479-46.08C1068.959,864.345,1074.72,814.904,1061.76,786.104z
	 M1057.919,864.825c-2.88,23.039-11.04,36-14.399,36.479l0,0c-4.32,0-10.561-6.72-12-16.32v-0.479l-5.28-22.561
	c-5.76-24.479-23.04-45.6-38.88-62.88c-19.2-20.16-33.12-35.04-33.12-35.04c-11.52-12-16.32-28.32-10.08-38.88
	c4.8-9.12,25.44-20.16,41.76-25.44c18.72-5.76,29.28-7.2,40.32-7.68c1.92,0,3.36,0,5.28,0c13.439,0,19.2,3.36,19.68,4.8
	c0.48,2.88-0.96,4.32-13.92,7.68c-5.76,1.92-12.479,3.36-18.72,6.72c-12,6.24-24.48,16.8-31.2,26.88c-1.44,1.44-1.44,3.84-0.48,5.28
	l0,0c0,0,24.959,36.96,60,37.44c1.921,3.359,3.841,6.72,5.28,9.6C1063.68,816.825,1057.919,864.345,1057.919,864.825z"/>
<path display="none" stroke="#FFFFFF" stroke-width="1.4401" stroke-miterlimit="10" d="M1003.679,740.505
	c6.721-8.16,12.961-12.96,23.041-18.24c5.76-2.88,12.479-4.8,18.72-6.72c12.479-3.36,21.12-9.12,19.2-21.6
	c-1.44-9.6-16.32-15.36-35.521-15.36c-2.399,0-26.88,0.96-49.44,8.16c-14.88,4.8-45.6,18.24-54.24,34.56"/>
<path display="none" d="M903.84,631.065c21.12,0,37.92,17.28,37.92,37.92c0,21.12-17.28,37.92-37.92,37.92s-37.92-16.8-37.92-37.92
	C865.92,648.345,882.72,631.065,903.84,631.065 M903.84,620.025c-26.88,0-48.96,22.08-48.96,48.96c0,26.88,22.08,48.96,48.96,48.96
	s48.96-22.08,48.96-48.96C952.8,642.104,930.72,620.025,903.84,620.025L903.84,620.025z"/>
<path display="none" fill="none" stroke="#000000" stroke-width="3.0012" stroke-miterlimit="10" d="M940.32,622.425
	c-1.44-30.72-6.72-55.2-8.64-73.92c-2.4-22.56-9.12-63.36,8.16-67.68s23.52,24.48,26.4,33.12s9.12,30.72,13.92,46.08
	c0.96,3.36,2.4,8.64,3.84,15.36"/>
<path display="none" fill="none" stroke="#000000" stroke-width="3.0012" stroke-miterlimit="10" d="M905.76,764.984
	c2.88-5.76,6.72-12,11.04-18.24c16.32-23.52,21.6-51.36,23.04-79.2"/>
<path display="none" fill="none" stroke="#000000" stroke-width="3.0012" stroke-miterlimit="10" d="M1049.28,703.065
	c11.04,16.32,21.6,34.56,28.32,50.879c14.88,37.92,16.8,65.761,5.76,95.04c-11.04,29.28-33.6,46.08-56.16,45.12
	c-7.68-0.479-18.239-5.279-18.239-5.76"/>
<path display="none" d="M1052.16,706.905c0,0,10.08,16.32,14.4,24.96c-4.8,6.72-22.08,12-33.601,12c-26.88,0-50.399-14.4-62.88-36
	C969.6,707.865,1002.72,728.985,1052.16,706.905z"/>
<path display="none" stroke="#000000" stroke-width="2.0008" stroke-linecap="round" stroke-linejoin="round" stroke-miterlimit="10" d="
	M1008.48,891.225c14.88-6.24,31.2-20.64,36.479-34.08c5.761-13.439,7.681-32.64,4.32-54.72c-3.36-22.561-12.96-41.28-12.96-41.28
	s18.72,45.601,6.72,63.36s-32.64,39.359-39.84,46.56"/>
<ellipse display="none" fill="none" stroke="#000000" stroke-width="3.0012" stroke-miterlimit="10" cx="1009.44" cy="645.945" rx="72.96" ry="72.96"/>
<path display="none" fill="none" stroke="#000000" stroke-width="3.0025" stroke-miterlimit="10" d="M916.32,874.425
	c-9.6-7.68-19.2-15.36-25.92-22.08c-19.68-18.72-24.96-27.36-25.92-44.64c-0.96-18.721,9.12-29.28,17.76-35.04
	c6.24-3.84,14.88-6.24,22.56-6.24c9.12,0,17.28,2.88,24,8.64c11.04,9.12,14.88,20.16,18.24,30.24c1.44,4.8,2.88,9.12,4.8,12.48
	 M997.44,871.064c4.8,6.721,6.239,15.36,4.8,22.561c-0.96,5.279-4.32,9.6-8.64,12c-3.36,1.92-7.68,2.88-12,2.88
	c-7.68,0-15.84-2.88-22.56-5.28h-0.48"/>
<path display="none" fill="none" stroke="#000000" stroke-width="3.0025" stroke-miterlimit="10" d="M926.4,912.345L926.4,912.345
	c-3.84,0-7.68-0.96-10.56-2.4c-4.32-2.399-7.68-6.239-9.12-11.52c-1.92-7.2-0.48-15.84,3.84-22.561
	c3.36-5.279,8.16-10.079,13.92-15.359c5.28-4.8,10.56-10.08,14.4-15.84c7.2-10.08,7.68-11.04,11.04-18.721
	c0.48-1.439,1.44-3.359,2.4-5.279c1.92-3.84,2.88-8.16,4.32-12.96c2.88-10.08,6.24-21.601,16.32-31.2
	c7.2-6.24,15.84-9.601,25.92-9.601c7.2,0,15.36,1.921,20.64,5.28c9.12,5.28,19.68,15.36,19.68,34.08c0,17.28-4.8,26.4-23.521,46.08
	c-17.759,18.72-55.679,49.92-65.759,54.24l-0.48,0.479C943.2,908.984,934.56,912.345,926.4,912.345z"/>
<path display="none" d="M1088.16,572.505c-0.96,0-2.399-0.48-3.359-1.44c-1.921-1.92-1.921-4.8,0-6.72l12.479-13.44
	c1.92-1.92,4.8-1.92,6.72,0s1.92,4.8,0,6.72l-12.479,13.44C1090.56,572.025,1089.12,572.505,1088.16,572.505z"/>
<path display="none" d="M1034.879,544.185c-2.399,0-4.319-1.92-4.8-4.32l-0.96-14.88c0-2.4,1.92-4.8,4.32-5.28
	c2.399,0,4.8,1.92,5.28,4.32l1.439,14.88C1039.68,541.785,1037.76,544.185,1034.879,544.185
	C1035.36,544.185,1034.879,544.185,1034.879,544.185z"/>
<ellipse display="none" fill="none" stroke="#000000" stroke-width="3" stroke-miterlimit="10" cx="923.52" cy="560.505" rx="69.12" ry="69.12"/>
<g display="none">
	<defs>
		<path id="SVGID_13_" d="M1081.919,781.305c0-4.8,3.841-9.12,9.12-9.12h75.84c4.801,0,9.12,3.84,9.12,9.12v75.84
			c0,4.8-3.84,9.12-9.12,9.12h-76.319c-4.8,0-9.12-3.84-9.12-9.12v-75.84H1081.919z"/>
	</defs>
	<clipPath id="SVGID_18_" display="inline">
		<use xlink:href="#SVGID_13_"  display="none" overflow="visible"/>
	</clipPath>
	<g clip-path="url(#SVGID_18_)">
		<path d="M1165.919,782.265v74.4h-74.399v-74.4H1165.919 M1166.4,772.665h-75.84c-4.8,0-9.12,3.84-9.12,9.12v75.84
			c0,4.8,3.84,9.12,9.12,9.12h75.84c4.8,0,9.12-3.841,9.12-9.12v-76.32C1175.52,776.505,1171.2,772.665,1166.4,772.665
			L1166.4,772.665z"/>
	</g>
</g>
<path display="none" fill="none" d="M1081.919,781.305c0-4.8,3.841-9.12,9.12-9.12h75.84c4.801,0,9.12,3.84,9.12,9.12v75.84
	c0,4.8-3.84,9.12-9.12,9.12h-76.319c-4.8,0-9.12-3.84-9.12-9.12v-75.84H1081.919z"/>
<path display="none" d="M1086.72,588.825l30.239,68.16l-68.159,30.24l-30.24-68.16L1086.72,588.825 M1087.2,579.225
	c-1.439,0-2.399,0.48-3.84,0.96l-69.12,30.72c-4.32,1.92-6.72,7.2-4.32,12l30.721,69.12c1.439,3.36,4.8,5.28,8.16,5.28
	c1.439,0,2.399-0.48,3.84-0.96l69.12-30.72c4.319-1.92,6.72-7.2,4.319-12l-30.72-69.12
	C1093.919,581.145,1090.56,579.225,1087.2,579.225L1087.2,579.225z"/>
<path display="none" d="M1058.879,653.625l8.16-3.84l-5.76-12.96c-0.479-1.44-1.44-3.36-1.44-3.36l0,0c0,0,0,1.44-0.479,2.4
	l-0.96,2.4l-9.6-4.32l6.72-15.36l9.6-4.32l13.44,29.76l8.16-3.84l3.84,9.12l-27.36,12.48L1058.879,653.625z"/>
<path display="none" fill="none" stroke="#000000" stroke-width="3" stroke-linejoin="round" stroke-miterlimit="10" d="
	M874.56,660.345c8.16-4.8,26.4-12.48,46.56-6.24c20.16,6.24,21.12,17.76,65.28,19.2c44.16,0.96,53.28-6.72,56.64,8.16
	c3.84,14.88-26.399,28.32-35.04,31.2c-8.64,2.88-63.84,13.92-79.2,15.84c-1.92,8.64-3.84,43.2,0,55.68
	c3.84,12.48,35.04,40.32,45.12,59.521c9.6,19.68-5.28,36.96-28.8,40.8c-23.04,3.84-61.44,5.76-86.88,0.479
	c-25.44-5.279-19.68-4.319-29.76-5.279c-9.6-0.96-16.32,2.399-27.36,5.279s-19.68,5.28-15.36-15.359
	c4.32-20.16,20.16-33.601,29.28-36.96c8.64-3.36,30.24,0,30.24,0s-29.28-29.28-25.92-70.561c2.4-29.76,14.4-56.64,23.04-69.6
	C850.08,680.025,866.4,665.625,874.56,660.345z"/>
<path display="none" d="M928.32,721.305l-34.56,4.32c0,0,2.88,14.4,9.12,28.319c6.24,13.92,14.88,32.16,22.56,39.841
	C919.68,746.745,928.32,721.305,928.32,721.305z"/>
<path display="none" fill="none" stroke="#000000" stroke-width="3" stroke-linecap="round" stroke-miterlimit="10" d="
	M837.6,824.984c12.48,20.641,34.08,21.601,62.4,20.641"/>
<path display="none" d="M1024.32,839.864c0,0-13.439,3.36-25.92-6.72c-12.48-10.08-14.88-27.359-12.48-45.12
	c2.4-17.76,4.32-58.08,2.4-69.12s-12.48-36-12.48-36l36.96-19.2l28.8,95.041L1024.32,839.864z"/>
<path display="none" d="M915.36,710.265c-20.64,0-36,9.12-39.84,23.52c-4.8,18.24,13.44,38.88,40.32,45.6
	c5.76,1.44,11.52,2.4,17.28,2.4l0,0c20.64,0,36-9.12,39.84-23.521c4.8-18.24-13.44-38.88-40.32-45.6
	C926.88,711.225,921.12,710.265,915.36,710.265L915.36,710.265z M933.6,774.104c-5.28,0-10.56-0.479-15.36-1.92
	c-23.04-5.76-38.4-22.08-35.04-36.48c2.88-10.56,15.84-17.76,32.64-17.76c5.28,0,10.56,0.48,15.36,1.92
	c23.04,5.76,38.4,22.08,35.04,36.48C963.36,766.904,950.4,774.104,933.6,774.104L933.6,774.104L933.6,774.104z"/>
<path display="none" d="M935.04,775.545L935.04,775.545c-5.76,0-11.52-0.96-17.28-2.4c-12.96-3.359-24-9.6-31.68-17.76
	c-8.16-8.64-11.04-18.72-8.64-27.84c3.36-14.4,19.2-23.52,39.84-23.52c5.76,0,11.52,0.96,17.28,2.4c12.96,3.36,24,9.6,31.68,17.76
	c8.16,8.64,11.04,18.72,8.64,27.84C971.04,766.425,955.2,775.545,935.04,775.545z M916.8,712.185c-16.8,0-29.76,7.2-32.64,17.76
	c-1.44,6.72,0.96,14.4,7.2,21.12c6.72,7.2,16.32,12.959,27.84,15.36c5.28,1.439,10.56,1.92,15.36,1.92l0,0
	c16.8,0,29.76-7.2,32.64-17.76c1.44-6.72-0.96-14.4-7.2-21.12c-6.72-7.2-16.32-12.96-27.84-15.36
	C927.36,712.665,922.08,712.185,916.8,712.185z"/>
<path display="none" d="M803.04,719.865l-14.88-3.84c-2.88-0.48-4.32-3.36-3.84-5.76l1.92-8.16c0.48-2.4,3.36-4.32,5.76-3.36
	l9.6,2.4L803.04,719.865z"/>
<path display="none" d="M835.2,709.305l11.04,2.88c2.4,0.48,4.32,3.36,3.36,5.76l-1.92,8.16c-0.48,2.4-3.36,4.32-5.76,3.36
	l-16.32-3.84L835.2,709.305z"/>
<rect x="833.279" y="720.807" transform="matrix(-0.9703 -0.2419 0.2419 -0.9703 1516.1072 1635.9148)" display="none" width="50.4" height="8.16"/>
<path display="none" fill="none" stroke="#000000" stroke-width="3" stroke-linejoin="round" d="M884.16,642.104
	c-4.8,2.88-9.6,6.72-13.44,11.04c-19.2,20.64-26.88,36.96-30.24,50.4c-3.36,13.92-6.24,26.88-18.72,29.28s-28.8-10.08-23.04-47.04
	c5.28-36.96,16.8-58.08,24.96-72c11.04-18.24,51.36-112.8,189.121-79.68c137.76,33.12,161.279,145.44,163.199,180.48
	c1.92,35.04-7.68,74.399-7.68,74.399s6.72-3.359,24.96,2.88c18.24,6.24,27.36,23.521,22.56,39.36c-2.88,6.24-8.159,5.76-10.56,6.24
	c-1.44,0.479-75.36,1.92-133.44,1.439"/>
<path display="none" fill="none" stroke="#000000" stroke-width="3" stroke-linejoin="round" d="M1019.52,838.425
	c-8.16-0.48-13.44-1.44-14.88-1.92c-12.96-6.72-23.041-17.28-18.24-52.8c4.32-35.041,2.88-62.4-2.4-80.16
	c-1.44-5.28-4.32-11.52-6.72-17.28"/>
<path display="none" fill="none" d="M1004.64,659.865c0,0,33.6,35.04,35.04,83.04c1.439,48-14.4,78.24-15.841,87.84
	c-0.96,9.6-0.479,23.04,23.521,21.119c24-1.92,41.76-45.119,45.6-56.64c3.841-11.52,19.2-59.52,14.88-104.16"/>
<path display="none" stroke="#000000" stroke-width="2" d="M1042.56,855.225c-8.16,0-13.44-1.92-17.28-5.76
	c-5.28-5.28-5.28-12.96-4.319-19.2c0.479-2.88,1.439-6.72,3.359-12.479c4.8-14.881,12.96-39.841,12-75.36
	c-0.96-46.56-28.32-74.4-28.8-74.4c-1.44-1.44-1.44-3.36,0-4.8s3.36-1.44,4.8,0s29.28,30.24,30.24,79.2
	c0.96,36-7.681,61.92-12.48,77.28c-1.439,4.8-2.88,8.64-3.359,11.04c-0.48,4.8-0.48,10.56,2.88,13.92
	c2.88,3.359,9.12,4.319,17.279,3.84c11.521-0.96,21.601-13.44,27.841-23.521c7.68-12,12.96-24.96,14.88-31.199
	c15.84-48.48,16.8-82.561,14.88-102.72c0-1.92,0.96-3.36,2.88-3.36s3.36,0.96,3.36,2.88c1.92,20.64,0.96,55.68-15.36,105.12
	c0,0.479-18.72,56.64-48,59.04C1045.919,855.225,1044.48,855.225,1042.56,855.225z"/>
<path display="none" fill="none" stroke="#000000" stroke-width="3" d="M953.76,548.025c-39.84,0-72,32.16-72,72
	c0,39.84,32.16,72,72,72s72-32.16,72-72C1025.76,580.185,993.6,548.025,953.76,548.025z"/>
<path display="none" d="M900.96,862.425c-1.92,0-3.36-0.96-4.32-2.4c-17.28-31.199-10.08-44.64-9.6-45.6
	c0.96-2.4,3.84-3.36,6.24-2.4s3.36,3.84,2.4,6.24c-0.48,0.96-5.28,10.08,9.12,36.96c1.44,2.4,0.48,5.28-1.92,6.72
	C902.4,862.425,901.44,862.425,900.96,862.425z"/>
<path display="none" d="M900,864.345L900,864.345c-1.92,0-3.36-0.48-4.32-1.92c-1.44-1.44-4.8-3.84-7.68-4.32
	c-2.88-0.479-7.2,0-9.6,0.48c-3.36,0.96-7.2-1.44-7.68-4.8c-0.96-3.36,0.96-7.2,4.8-7.681c0.96,0,8.64-2.399,15.36-0.96
	c4.8,0.96,9.12,3.84,11.52,5.76c2.88-0.479,7.68-1.92,11.52-7.199c1.92-2.88,6.24-3.36,9.12-1.44c2.88,1.92,3.36,6.24,1.44,9.12
	C914.88,863.864,901.44,864.345,900,864.345z"/>
<path display="none" fill="none" stroke="#000000" d="M900.96,788.984c0,0,7.68-7.199,14.4-5.279c6.72,1.439,2.4,9.6,2.4,9.6
	s7.68,0.48,9.12,2.88c1.92,2.4,1.92,10.561-2.88,12.48c-4.8,1.92-7.2,2.88-7.2,2.88s5.28,7.2,0.48,11.04s-10.56,3.84-13.44,2.399
	c-2.88-1.439-8.64-6.72-9.6-9.6c-1.44-3.36-1.44-6.24-1.44-6.24s-2.4,5.76-8.64,7.2c-6.24,1.44-14.88-2.4-17.28-8.16
	s-0.48-10.08,1.92-12.479c2.4-2.4,10.56-2.4,10.56-2.4s-2.4-3.84-0.96-5.76c1.44-2.4,6.72-4.8,11.04-4.32
	c4.32,0.48,7.68,1.44,9.12,2.88C900,787.545,900.96,788.984,900.96,788.984z"/>
<path display="none" d="M895.68,805.785c6.24,1.92,10.56-0.96,10.56-0.96s1.44-3.841-0.96-6.721s-8.64-4.319-12.48-3.359
	c-4.32,0.96-5.28,3.84-5.28,4.8C886.56,800.024,889.44,803.864,895.68,805.785z"/>
<path display="none" d="M785.28,897.944l115.2-115.199l1.44-1.44l1.92,1.44c0,0,1.44,0.96,2.88,2.399c2.88,2.88,3.84,4.8,3.84,7.2
	s-1.44,4.32-2.88,6.72c-1.44,1.92-3.36,4.32-3.36,7.2c0,0.96,0.48,1.92,0.96,3.36c0.48,1.439,0.96,2.88,0.96,4.319
	c0.48,3.36-1.44,5.28-1.44,5.761l-98.88,98.88L785.28,897.944z M902.4,788.024l-109.92,109.92l13.44,13.44l95.04-95.04
	c0,0,0.48-0.96,0.48-1.92s-0.48-2.4-0.96-3.36c-0.48-1.92-1.44-3.84-0.96-5.76c0.48-3.84,2.4-6.72,4.32-9.12
	c0.96-1.439,1.92-2.88,1.92-3.84c0-0.48-0.48-1.44-2.4-3.84C902.88,788.505,902.88,788.024,902.4,788.024z"/>
<path display="none" d="M788.16,891.225c0.48,0.48,1.92,0.48,2.4,0l38.4-38.399c0.48-0.48,0.48-1.921,0-2.4
	c-0.48-0.48-1.92-0.48-2.4,0l-38.4,38.4C787.68,889.785,787.68,890.745,788.16,891.225z"/>
<path display="none" d="M795.36,898.904c0.48,0.48,1.92,0.48,2.4,0l38.4-38.399c0.48-0.48,0.48-1.92,0-2.4
	c-0.48-0.479-1.92-0.479-2.4,0l-38.4,38.4C794.88,897.465,794.88,898.425,795.36,898.904z"/>
<path display="none" d="M804.96,907.545L804.96,907.545c0.48,0.479,1.92,0.479,2.4,0l38.4-38.4c0.48-0.479,0.48-1.92,0-2.399l0,0
	c-0.48-0.48-1.92-0.48-2.4,0l-38.4,38.399C804.48,905.625,804.48,907.064,804.96,907.545z"/>
<path display="none" d="M813.12,915.225c0.48,0.48,1.92,0.48,2.4,0l38.4-38.399c0.48-0.48,0.48-1.921,0-2.4
	c-0.48-0.48-1.92-0.48-2.4,0l-38.4,38.4C812.64,913.785,812.64,914.745,813.12,915.225z"/>
<path display="none" d="M901.92,814.425c0-0.96-0.48-2.4-0.96-3.84c-0.48-1.92-1.44-3.36-0.96-5.28c0.48-3.84,2.4-6.72,4.32-9.12
	c0.96-1.439,2.4-3.359,2.4-4.32c0-0.479,0-1.439-2.88-4.319h-0.48c-0.48-0.48-0.48-0.96-0.48-0.96c0-0.48,0-0.96,0.48-1.44
	l297.6-295.68c2.4-1.92,7.681-4.32,12.96,0.48c2.4,2.4,3.36,5.28,3.36,7.68c0,3.36-2.4,5.76-2.4,5.76l-309.6,312
	c-0.48,0.479-0.96,0.479-1.92,0.479c0,0-0.48,0-0.48-0.479C902.4,814.904,901.92,814.425,901.92,814.425z M1203.36,491.865
	l-296.64,294.72c1.92,2.399,2.88,4.319,2.88,5.76c0,1.92-1.44,4.32-2.88,6.24s-3.36,4.319-3.84,7.2c0,0.96,0.48,2.399,0.96,3.84
	c0,0.479,0.48,0.96,0.48,1.439l308.16-310.08c0,0,1.439-1.44,1.439-3.36c0-1.44-0.96-3.36-2.399-5.28
	C1207.68,488.505,1203.36,491.865,1203.36,491.865z"/>
<circle display="none" cx="894.24" cy="815.385" r="3.36"/>
<path display="none" d="M876.96,788.984c-1.44-1.92-2.88-5.76,0.96-9.12c3.84-3.359,7.2-1.92,8.64-0.479l10.56,10.56l-9.6,9.601
	L876.96,788.984L876.96,788.984z M892.8,790.425l-8.16-8.16c-0.48-0.479-1.92-1.439-3.84,0.48c-2.4,1.92-0.96,3.84-0.48,4.319
	l8.16,8.16L892.8,790.425z"/>
<path display="none" d="M841.92,856.665l22.56-22.561c0.48-0.479,1.44-0.479,1.92,0l4.32,4.32l0,0c0,0,0.48,0.479,0.48,0.96
	c0,0.479,0,0.479-0.48,0.96l-22.56,22.56c-0.48,0.48-1.44,0.48-1.92,0l-4.32-4.8C841.44,857.625,841.44,857.145,841.92,856.665z
	 M867.84,839.385l-2.88-2.88l-20.64,20.64l2.88,2.88L867.84,839.385z"/>
<path display="none" d="M984,724.665l-2.88-2.4c0,0,9.12-9.12,18.72-18.72l12.96-13.44c4.319-4.8,8.16-8.16,9.6-10.56
	c6.24-7.2,16.8-27.36,21.12-36.48c0-0.48,13.439-29.76,15.84-33.12c1.44-2.4,11.04-12,20.64-21.6l2.4-2.4
	c6.24-6.24,71.04-70.08,75.36-74.4c4.8-4.32,15.84-12.48,23.04-15.36c3.84-1.92,10.56-3.84,15.359-5.76
	c3.36-0.96,6.72-2.4,7.68-2.88c1.44-0.96,3.36-1.92,4.801-8.64c1.439-5.76-0.48-12-0.96-14.4c0-0.48,0-0.96,0-0.96
	c0-0.48-0.48-1.44-0.96-1.44c-0.48,0-0.96,0-1.44,0.48c-2.88,1.44-25.44,16.8-34.56,24c-8.16,6.24-31.2,29.28-40.801,38.88
	c-16.319,16.32-69.6,69.6-75.84,76.8c-5.279,6.72-9.12,15.36-14.88,28.8c-0.96,2.88-2.399,5.76-3.84,9.12
	c-8.16,19.2-12.479,26.4-20.16,35.52c-1.44,1.92-4.319,4.8-8.64,9.12l-12.96,13.44c-9.6,9.6-18.72,18.72-18.72,18.72l-2.4-2.4
	c0,0,9.12-9.12,18.72-18.72l12.96-13.44c3.84-4.32,6.721-7.2,8.16-9.12c7.2-8.64,11.521-15.84,19.2-34.56
	c1.439-3.36,2.399-6.24,3.84-9.12c5.76-13.92,9.6-22.56,15.36-29.76c6.239-7.68,59.52-60.96,75.84-76.8
	c10.08-10.08,33.12-33.12,41.279-39.36c8.641-6.72,31.681-22.56,35.041-24.48c1.92-0.96,3.359-0.96,4.8-0.48
	c1.92,0.96,2.399,2.88,2.399,3.84c0,0,0,0.48,0,0.96c0.48,2.4,2.4,9.12,0.96,15.84c-1.439,7.68-4.319,9.6-6.72,11.04
	c-0.96,0.48-3.36,1.44-8.16,2.88c-5.279,1.92-11.52,3.84-15.359,5.76c-6.721,2.88-17.761,10.56-22.08,14.88
	c-4.801,4.32-69.12,67.68-75.36,74.4l-0.96,2.4c-6.24,6.24-18.72,18.72-20.16,21.12c-1.439,2.4-10.08,20.64-15.36,32.64
	c-3.84,8.64-14.399,29.76-21.6,37.44c-1.92,1.92-5.28,5.76-10.08,10.56l-12.96,13.44C992.64,715.545,984,724.665,984,724.665z"/>
<path display="none" fill="none" d="M963.84,748.185l0.96,0.96c1.44-1.44,2.88-2.88,3.84-4.32l-0.48-0.48
	C966.24,745.305,964.8,746.745,963.84,748.185z"/>
<path display="none" fill="none" d="M960,744.825c1.44-1.44,2.88-2.88,4.32-4.32l-1.44-1.44l-4.32,4.32L960,744.825z"/>
<path display="none" fill="none" d="M954.72,730.905L954.72,730.905c-1.92,0.96-3.36,2.4-4.8,3.36l0.48,0.48
	C951.84,733.305,953.28,731.865,954.72,730.905z"/>
<path display="none" fill="none" d="M953.28,748.185l-4.32,4.32l1.92,1.92c1.44-1.44,2.88-2.88,4.32-4.32L953.28,748.185z"/>
<path display="none" fill="none" d="M954.72,757.785l1.44,1.439c1.44-1.439,2.4-2.88,3.84-4.8l-0.96-0.96
	C957.6,754.904,956.16,756.345,954.72,757.785z"/>
<path display="none" fill="none" d="M945.12,739.545l-0.48-0.48c-1.44,1.44-3.36,2.4-4.8,3.84l0.96,0.96
	C941.76,741.945,943.68,740.985,945.12,739.545z"/>
<path display="none" fill="none" d="M954.72,739.545l4.32-4.32l-0.96-0.96c-1.44,1.44-2.88,2.88-4.32,3.84L954.72,739.545z"/>
<path display="none" fill="none" d="M942.24,771.225c-1.92,1.92-5.76,6.24-10.56,12c-11.04,12.48-26.4,29.76-30.72,34.561
	c-7.2,8.64-30.72,31.68-46.56,43.68c-3.84,2.88-8.64,6.72-13.44,10.08c-9.12,7.2-18.24,14.399-22.56,17.28
	c-3.84,2.399-14.88,10.56-22.56,15.84c1.92-0.96,4.32-1.92,5.76-2.88c1.92-0.96,12.96-7.681,22.56-13.44
	c7.68-4.8,15.84-9.6,21.12-12.48c12-7.199,36.48-25.92,47.04-37.439c10.56-11.04,36.48-44.641,50.88-64.32
	c2.4-2.88,4.8-6.24,7.68-9.6l-1.44-1.44C946.56,766.425,943.68,769.785,942.24,771.225z"/>
<path display="none" fill="none" d="M948.48,742.905c-1.44,1.44-2.88,2.88-4.32,3.84l1.44,1.44l4.32-4.32L948.48,742.905z"/>
<path display="none" fill="none" d="M789.6,902.745c7.2-5.28,21.6-15.36,25.92-18.24c3.84-2.88,13.44-10.08,22.08-16.8
	c4.8-3.841,9.12-7.2,13.44-10.08c15.36-12,38.4-34.08,45.6-42.721c4.32-5.279,19.68-22.56,30.72-35.04
	c4.8-5.279,9.12-10.079,10.56-12c1.44-1.439,4.32-4.8,7.68-8.64l-2.4-2.399L789.6,902.745z"/>
<path display="none" fill="none" d="M921.12,766.425c-5.28,3.84-11.52,9.12-18.72,14.4c-17.28,12.96-38.88,29.279-50.88,40.319
	c-12.96,12-35.04,36.96-45.12,51.36c-4.32,5.76-13.92,18.72-19.2,25.439l153.12-144.959l-1.44-1.44
	C932.16,757.305,925.92,762.585,921.12,766.425z"/>
<path display="none" fill="none" d="M885.12,781.305l-6.72,4.8c-9.6,6.721-29.28,21.601-39.36,31.681
	c-10.08,10.079-27.36,31.68-30.72,36.96c-2.4,3.84-13.92,23.52-21.12,35.52c5.28-6.72,12-15.84,15.36-20.64
	c10.56-14.4,32.64-39.841,46.08-52.32c12-11.04,33.6-27.84,51.36-40.8c7.2-5.28,13.44-10.08,18.72-14.4
	c4.8-3.84,11.04-8.64,17.28-14.4l-0.96-0.96C922.56,755.864,898.08,772.185,885.12,781.305z"/>
<path display="none" d="M970.56,715.545c0.96-0.96,0.96-2.4,0-3.84c-0.96-0.96-2.4-0.96-3.84,0c0,0-2.88,2.88-7.68,6.72l3.84,3.84
	C967.2,718.425,970.08,715.545,970.56,715.545z"/>
<path display="none" d="M954.24,730.425l-3.84-3.84c-1.44,1.44-2.88,2.88-4.32,3.84l3.84,3.84
	C951.36,732.825,952.8,731.865,954.24,730.425z"/>
<path display="none" d="M944.16,739.065l-3.84-3.84c-1.44,1.44-3.36,2.4-4.8,3.84l3.84,3.84
	C941.28,741.465,942.72,740.025,944.16,739.065z"/>
<path display="none" d="M786.72,890.265c7.2-12,18.72-31.68,21.12-35.52c3.36-5.28,20.64-26.881,30.72-36.96
	c10.56-10.561,29.76-24.96,39.36-31.681l6.72-4.8c13.44-9.12,37.44-25.439,48.96-34.56l-3.84-3.84c-12,8.64-35.52,24.959-48.48,33.6
	l-6.72,4.8c-10.08,6.72-29.76,22.08-40.32,32.64c-10.56,10.561-27.84,32.16-31.2,37.921c-3.36,5.279-25.44,43.199-26.4,45.119
	c-0.48,1.44-0.48,2.881,0.96,3.36c0.48,0,0.96,0.48,1.44,0.48l0,0c0-0.48,0-0.96,0.48-1.44
	C780,899.385,782.88,895.545,786.72,890.265z"/>
<path display="none" d="M978.72,723.705c0.96-0.96,0.96-2.4,0-3.84c-0.96-0.96-2.4-0.96-3.84,0l-7.68,7.2l3.84,3.84L978.72,723.705z
	"/>
<path display="none" d="M789.6,902.745l154.08-145.92l-3.84-3.84L787.2,897.944c-1.92,2.881-3.36,4.801-3.36,4.801
	c-0.48,0.479-1.44,0.96-1.92,0.96l0,0c-0.48,0.96-0.48,1.92,0.48,2.88c0.48,0.479,0.96,0.96,1.44,0.96s0.48,0,0.48,0
	c0-0.48,0.48-0.96,0.96-1.44C785.76,905.625,787.68,904.665,789.6,902.745z"/>
<polygon display="none" points="958.56,743.385 962.88,739.065 959.04,735.225 954.72,739.545 "/>
<polygon display="none" points="949.92,744.345 945.6,748.665 948.96,752.025 953.28,748.185 "/>
<path display="none" d="M986.88,728.025c-0.96-0.96-2.4-0.96-3.84,0c0,0-2.88,2.88-6.72,7.2l3.84,3.84
	c4.32-4.32,6.72-7.68,6.72-7.68C987.84,730.905,987.84,728.985,986.88,728.025z"/>
<path display="none" d="M964.32,749.145l3.84,3.84c1.44-1.44,2.88-2.88,3.84-4.32l-3.84-3.84
	C967.2,746.265,965.76,747.705,964.32,749.145z"/>
<path display="none" d="M956.16,759.225l3.84,3.84c1.44-1.439,2.4-2.88,3.84-4.8l-3.84-3.84
	C958.56,755.864,957.12,757.305,956.16,759.225z"/>
<path display="none" d="M944.16,774.104c-14.4,19.681-40.32,53.28-50.88,64.32s-35.04,30.24-47.04,37.439
	c-5.28,2.881-13.44,7.681-21.12,12.48c-9.6,5.76-20.64,12.48-22.56,13.44c-1.44,0.479-3.36,1.439-5.76,2.88
	c-4.32,3.359-7.68,5.279-7.68,5.76c-0.48,0.479-0.96,0.479-1.44,0.479c0,0.48,0,0.96,0,1.44c0.48,0.96,1.44,1.44,2.4,1.44
	c0.48,0,0.96,0,1.44-0.48c0,0,9.12-4.8,12.96-6.72c2.4-0.96,10.56-5.76,23.52-13.92c7.68-4.801,15.84-9.601,21.12-12.48
	c12.48-7.2,37.44-26.88,48.48-37.92c11.52-12,39.36-48,51.36-64.8c1.92-2.88,4.32-5.76,7.2-9.12l-3.84-3.84
	C948.96,767.864,946.08,771.225,944.16,774.104z"/>
<path display="none" d="M787.2,897.944c5.28-6.72,14.88-19.68,19.2-25.439c10.08-14.4,32.16-39.36,45.12-51.36
	c12-11.04,33.6-27.359,50.88-40.319c7.2-5.28,13.44-10.561,18.72-14.4c4.8-3.84,11.04-9.12,17.76-14.88l-3.84-3.84
	c-6.24,5.28-12.48,10.56-17.28,14.4c-5.28,3.84-11.52,9.12-18.72,14.4c-17.28,13.439-39.36,29.76-51.36,40.8
	c-12.96,12.48-35.52,37.44-46.08,52.32c-3.36,4.8-10.08,13.439-15.36,20.64c-2.88,5.28-5.28,9.12-5.28,9.12
	c-0.48,0.96-1.44,1.44-2.4,1.44c0,0.96,0,1.92,0.96,2.399c0.48,0.48,0.96,0.48,1.44,0.48c0-0.48,0.48-0.48,0.48-0.96L787.2,897.944z
	"/>
<path display="none" d="M953.76,738.585c1.44-1.44,2.88-2.88,4.32-3.84l-3.84-3.84c-1.44,1.44-2.88,2.88-4.32,3.84L953.76,738.585z"
	/>
<path display="none" d="M945.12,739.545c-1.44,1.44-2.88,2.88-4.32,3.84l3.84,3.84c1.44-1.44,2.88-2.88,4.32-3.84L945.12,739.545z"
	/>
<path display="none" d="M974.4,719.385c0.96-0.96,0.96-2.4,0-3.84c-0.96-0.96-2.4-0.96-3.84,0c0,0-2.88,2.88-7.68,7.2l3.84,3.84
	C971.52,722.265,974.4,719.385,974.4,719.385z"/>
<path display="none" d="M786.72,890.265c-3.84,5.28-7.2,9.12-7.2,9.12c0,0.479,0,0.96,0,1.44c0.96,0,1.92-0.48,2.4-1.44
	C781.44,899.385,783.84,895.545,786.72,890.265z"/>
<path display="none" d="M783.84,902.745c0,0,1.44-1.92,3.36-4.801l-5.28,4.801c-0.48,0.479-0.48,0.479-0.48,0.96l0,0
	C782.4,903.705,783.36,903.225,783.84,902.745z"/>
<path display="none" d="M788.64,908.505c0.48,0,3.84-1.92,7.68-3.84c7.68-5.28,18.24-12.96,22.56-15.84
	c4.32-2.881,13.44-10.08,22.56-17.28c4.8-3.84,9.12-7.2,13.44-10.08c15.84-12,39.36-35.04,46.56-43.68
	c4.32-5.28,19.68-22.08,30.72-34.561c4.8-5.28,9.12-10.08,10.56-12c1.44-1.439,3.84-4.32,7.68-8.16l-3.84-3.84
	c-3.84,3.84-6.24,6.72-7.68,8.64c-1.92,1.921-5.76,6.24-10.56,12c-11.04,12.48-26.4,29.761-30.72,35.04
	c-7.68,8.16-30.72,30.24-46.08,42.24c-3.84,2.88-8.64,6.72-13.44,10.08c-9.12,7.2-18.24,14.4-22.08,16.8
	c-4.8,3.36-19.2,13.44-25.92,18.24l-3.84,3.84c-0.48,0.48-0.48,0.48-0.96,0.48c0,0.479,0,1.439,0.48,1.92
	c0.48,0.479,1.44,0.96,1.92,0.96c0,0,0,0,0.48,0C787.68,909.465,788.16,908.984,788.64,908.505z"/>
<path display="none" d="M950.88,753.944l3.84,3.841c1.44-1.44,2.88-2.881,4.32-4.32l-3.84-3.84
	C953.76,751.065,952.32,752.505,950.88,753.944z"/>
<path display="none" d="M963.84,748.185c1.44-1.44,2.88-2.88,4.32-4.32l-3.84-3.84c-1.44,1.44-2.88,2.88-4.32,4.32L963.84,748.185z"
	/>
<path display="none" d="M983.04,728.025c0.96-0.96,0.96-2.4,0-3.84c-0.96-0.96-2.4-0.96-3.84,0c-0.48,0.48-2.88,3.36-6.72,7.2
	l3.84,3.84C980.16,730.905,983.04,728.025,983.04,728.025z"/>
<path display="none" d="M789.6,902.745c-2.4,1.439-3.84,2.88-4.32,2.88c-0.48,0.479-0.96,0.96-0.96,1.439
	c0.48,0,0.96-0.479,0.96-0.479L789.6,902.745z"/>
<path display="none" d="M796.32,904.185c-3.84,1.92-7.68,3.84-7.68,3.84c-0.96,0.48-0.96,0.96-1.44,1.92c0.48,0,0.96,0,1.44-0.479
	C788.64,909.944,792,907.545,796.32,904.185z"/>
<g display="none">
	<defs>
		<path id="SVGID_12_" d="M25.92,571.065l163.2,13.44L396,554.745l370.08,3.84l134.88,19.2l128.64-24l103.2,9.6l8.159,208.8
			c0,0-61.439,391.2-82.56,581.76c19.2,208.32,120,557.761,120,557.761l1.92,211.68l-169.92,4.8l-150.72,13.44l-301.92-0.48
			l-246.72-7.68l-95.04,9.6l-160.32-13.92l-2.4-188.16c0,0,24-364.319,83.52-588.479C69.12,1199.864,24,788.984,24,788.984
			L25.92,571.065z"/>
	</defs>
	<clipPath id="SVGID_19_" display="inline">
		<use xlink:href="#SVGID_12_"  display="none" overflow="visible"/>
	</clipPath>
	<rect y="530.265" clip-path="url(#SVGID_19_)" width="1204.8" height="1636.8"/>
</g>
<path display="none" stroke="#DB302A" stroke-width="12" stroke-linecap="round" stroke-linejoin="round" stroke-miterlimit="10" d="
	M25.92,571.065l163.2,13.44L396,554.745l370.08,3.84l134.88,19.2l128.64-24l103.2,9.6l8.159,208.8c0,0-61.439,391.2-82.56,581.76
	c19.2,208.32,120,557.761,120,557.761l1.92,211.68l-169.92,4.8l-150.72,13.44l-301.92-0.48l-246.72-7.68l-95.04,9.6l-160.32-13.92
	l-2.4-188.16c0,0,24-364.319,83.52-588.479C69.12,1199.864,24,788.984,24,788.984L25.92,571.065z"/>
<line display="none" fill="none" stroke="#DB302A" stroke-width="12" stroke-linecap="round" stroke-miterlimit="10" x1="32.16" y1="816.345" x2="924.48" y2="816.345"/>
<path display="none" stroke="#DB302A" stroke-width="8" stroke-linecap="round" stroke-miterlimit="10" d="M841.44,655.545
	c0,0,0,1.92,0,4.8v67.2"/>
<path display="none" stroke="#DB302A" stroke-width="8" stroke-linecap="round" stroke-miterlimit="10" d="M750.24,655.545
	c0,0,0,1.92,0,4.8v67.2"/>
<path display="none" stroke="#DB302A" stroke-width="8" stroke-linecap="round" stroke-miterlimit="10" d="M937.44,655.545
	c0,0,0,1.92,0,4.8v67.2"/>
<path display="none" stroke="#DB302A" stroke-width="8" stroke-linecap="round" stroke-miterlimit="10" d="M1043.04,655.545
	c0,0,0,1.92,0,4.8v67.2"/>
<g display="none">
	<defs>
		<path id="SVGID_11_" d="M25.92,571.065l163.2,13.44L396,554.745l370.08,3.84l134.88,19.2l128.64-24l103.2,9.6l8.159,208.8
			c0,0-61.439,391.2-82.56,581.76c19.2,208.32,120,557.761,120,557.761l1.92,211.68l-169.92,4.8l-150.72,13.44l-301.92-0.48
			l-246.72-7.68l-95.04,9.6l-160.32-13.92l-2.4-188.16c0,0,24-364.319,83.52-588.479C69.12,1199.864,24,788.984,24,788.984
			L25.92,571.065z"/>
	</defs>
	<clipPath id="SVGID_20_" display="inline">
		<use xlink:href="#SVGID_11_"  display="none" overflow="visible"/>
	</clipPath>
	<rect x="0.48" y="530.265" clip-path="url(#SVGID_20_)" width="1204.8" height="1636.8"/>
</g>
<path display="none" stroke="#DB302A" stroke-width="12" stroke-linecap="round" stroke-linejoin="round" stroke-miterlimit="10" d="
	M25.92,571.065l163.2,13.44L396,554.745l370.08,3.84l134.88,19.2l128.64-24l103.2,9.6l8.159,208.8c0,0-61.439,391.2-82.56,581.76
	c19.2,208.32,120,557.761,120,557.761l1.92,211.68l-169.92,4.8l-150.72,13.44l-301.92-0.48l-246.72-7.68l-95.04,9.6l-160.32-13.92
	l-2.4-188.16c0,0,24-364.319,83.52-588.479C69.12,1199.864,24,788.984,24,788.984L25.92,571.065z"/>
<line display="none" fill="none" stroke="#DB302A" stroke-width="12" stroke-linecap="round" stroke-miterlimit="10" x1="32.64" y1="816.345" x2="924.96" y2="816.345"/>
<path display="none" stroke="#DB302A" stroke-width="8" stroke-linecap="round" stroke-miterlimit="10" d="M841.92,655.545
	c0,0,0,1.92,0,4.8v67.2"/>
<path display="none" stroke="#DB302A" stroke-width="8" stroke-linecap="round" stroke-miterlimit="10" d="M750.72,655.545
	c0,0,0,1.92,0,4.8v67.2"/>
<path display="none" stroke="#DB302A" stroke-width="8" stroke-linecap="round" stroke-miterlimit="10" d="M937.92,655.545
	c0,0,0,1.92,0,4.8v67.2"/>
<path display="none" stroke="#DB302A" stroke-width="8" stroke-linecap="round" stroke-miterlimit="10" d="M1043.52,655.545
	c0,0,0,1.92,0,4.8v67.2"/>
<g display="none">
	<defs>
		<path id="SVGID_10_" d="M25.92,571.065l163.2,13.44L396,554.745l370.08,3.84l134.88,19.2l128.64-24l103.2,9.6l8.159,208.8
			c0,0-61.439,391.2-82.56,581.76c19.2,208.32,120,557.761,120,557.761l1.92,211.68l-169.92,4.8l-150.72,13.44l-301.92-0.48
			l-246.72-7.68l-95.04,9.6l-160.32-13.92l-2.4-188.16c0,0,24-364.319,83.52-588.479C69.12,1199.864,24,788.984,24,788.984
			L25.92,571.065z"/>
	</defs>
	<clipPath id="SVGID_21_" display="inline">
		<use xlink:href="#SVGID_10_"  display="none" overflow="visible"/>
	</clipPath>
	<rect y="530.265" clip-path="url(#SVGID_21_)" width="1204.8" height="1636.8"/>
</g>
<path display="none" stroke="#DB302A" stroke-width="12" stroke-linecap="round" stroke-linejoin="round" stroke-miterlimit="10" d="
	M25.92,571.065l163.2,13.44L396,554.745l370.08,3.84l134.88,19.2l128.64-24l103.2,9.6l8.159,208.8c0,0-61.439,391.2-82.56,581.76
	c19.2,208.32,120,557.761,120,557.761l1.92,211.68l-169.92,4.8l-150.72,13.44l-301.92-0.48l-246.72-7.68l-95.04,9.6l-160.32-13.92
	l-2.4-188.16c0,0,24-364.319,83.52-588.479C69.12,1199.864,24,788.984,24,788.984L25.92,571.065z"/>
<line display="none" fill="none" stroke="#DB302A" stroke-width="12" stroke-linecap="round" stroke-miterlimit="10" x1="32.16" y1="816.345" x2="924.48" y2="816.345"/>
<path display="none" stroke="#DB302A" stroke-width="8" stroke-linecap="round" stroke-miterlimit="10" d="M841.44,655.545
	c0,0,0,1.92,0,4.8v67.2"/>
<path display="none" stroke="#DB302A" stroke-width="8" stroke-linecap="round" stroke-miterlimit="10" d="M750.24,655.545
	c0,0,0,1.92,0,4.8v67.2"/>
<path display="none" stroke="#DB302A" stroke-width="8" stroke-linecap="round" stroke-miterlimit="10" d="M937.44,655.545
	c0,0,0,1.92,0,4.8v67.2"/>
<path display="none" stroke="#DB302A" stroke-width="8" stroke-linecap="round" stroke-miterlimit="10" d="M1043.04,655.545
	c0,0,0,1.92,0,4.8v67.2"/>
<g display="none">
	<defs>
		<path id="SVGID_9_" d="M25.92,571.065l163.2,13.44L396,554.745l370.08,3.84l134.88,19.2l128.64-24l103.2,9.6l8.159,208.8
			c0,0-61.439,391.2-82.56,581.76c19.2,208.32,120,557.761,120,557.761l1.92,211.68l-169.92,4.8l-150.72,13.44l-301.92-0.48
			l-246.72-7.68l-95.04,9.6l-160.32-13.92l-2.4-188.16c0,0,24-364.319,83.52-588.479C69.12,1199.864,24,788.984,24,788.984
			L25.92,571.065z"/>
	</defs>
	<clipPath id="SVGID_22_" display="inline">
		<use xlink:href="#SVGID_9_"  display="none" overflow="visible"/>
	</clipPath>
	<rect x="0.48" y="530.265" clip-path="url(#SVGID_22_)" width="1204.8" height="1636.8"/>
</g>
<path display="none" stroke="#DB302A" stroke-width="12" stroke-linecap="round" stroke-linejoin="round" stroke-miterlimit="10" d="
	M25.92,571.065l163.2,13.44L396,554.745l370.08,3.84l134.88,19.2l128.64-24l103.2,9.6l8.159,208.8c0,0-61.439,391.2-82.56,581.76
	c19.2,208.32,120,557.761,120,557.761l1.92,211.68l-169.92,4.8l-150.72,13.44l-301.92-0.48l-246.72-7.68l-95.04,9.6l-160.32-13.92
	l-2.4-188.16c0,0,24-364.319,83.52-588.479C69.12,1199.864,24,788.984,24,788.984L25.92,571.065z"/>
<line display="none" fill="none" stroke="#DB302A" stroke-width="12" stroke-linecap="round" stroke-miterlimit="10" x1="32.64" y1="816.345" x2="924.96" y2="816.345"/>
<path display="none" stroke="#DB302A" stroke-width="8" stroke-linecap="round" stroke-miterlimit="10" d="M841.92,655.545
	c0,0,0,1.92,0,4.8v67.2"/>
<path display="none" stroke="#DB302A" stroke-width="8" stroke-linecap="round" stroke-miterlimit="10" d="M750.72,655.545
	c0,0,0,1.92,0,4.8v67.2"/>
<path display="none" stroke="#DB302A" stroke-width="8" stroke-linecap="round" stroke-miterlimit="10" d="M937.92,655.545
	c0,0,0,1.92,0,4.8v67.2"/>
<path display="none" stroke="#DB302A" stroke-width="8" stroke-linecap="round" stroke-miterlimit="10" d="M1043.52,655.545
	c0,0,0,1.92,0,4.8v67.2"/>
<g display="none">
	<defs>
		<path id="SVGID_8_" d="M593.76,452.985c3.84-14.88,11.52-30.24,23.04-44.16c30.72-36.96,77.76-48.48,104.16-26.4
			c24,20.16,23.52,60.96,0.48,95.52c16.32,25.44,14.4,60.48-7.2,85.44c-25.92,31.2-71.04,36-100.32,11.04
			c-9.6-8.16-16.32-18.72-20.16-29.76c-15.84,5.28-33.6,2.88-47.52-8.64c-20.64-17.28-23.52-48-6.24-68.64
			C553.44,451.545,575.04,446.265,593.76,452.985z"/>
	</defs>
	<clipPath id="SVGID_23_" display="inline">
		<use xlink:href="#SVGID_8_"  display="none" overflow="visible"/>
	</clipPath>
	<rect x="504.48" y="347.385" clip-path="url(#SVGID_23_)" width="257.76" height="267.36"/>
</g>
<g display="none">
	<defs>
		<path id="SVGID_7_" d="M790.08,802.904c-6.72,6.721-14.4,12-23.52,15.841c-37.44,15.84-80.16-1.44-96-38.881
			c-15.84-37.439,1.44-80.16,38.88-96c1.44-0.48,2.88-0.96,3.84-1.44c1.92-23.52,16.8-45.12,40.32-55.2
			c33.6-14.4,72.48,1.44,86.88,35.04c7.68,17.76,6.72,36.96-0.48,52.8c15.36,3.84,29.28,14.4,36,30.24
			c11.52,26.4-0.96,57.12-27.84,68.64C827.52,823.545,804.48,818.265,790.08,802.904z"/>
	</defs>
	<clipPath id="SVGID_24_" display="inline">
		<use xlink:href="#SVGID_7_"  display="none" overflow="visible"/>
	</clipPath>
	<rect x="640.32" y="598.425" clip-path="url(#SVGID_24_)" width="263.04" height="250.56"/>
</g>
<path display="none" stroke="#DB302A" stroke-width="6" stroke-linecap="round" stroke-linejoin="round" stroke-miterlimit="10" d="
	M790.08,802.904c-6.72,6.721-14.4,12-23.52,15.841c-37.44,15.84-80.16-1.44-96-38.881c-15.84-37.439,1.44-80.16,38.88-96
	c1.44-0.48,2.88-0.96,3.84-1.44c1.92-23.52,16.8-45.12,40.32-55.2c33.6-14.4,72.48,1.44,86.88,35.04
	c7.68,17.76,6.72,36.96-0.48,52.8c15.36,3.84,29.28,14.4,36,30.24c11.52,26.4-0.96,57.12-27.84,68.64
	C827.52,823.545,804.48,818.265,790.08,802.904z"/>
<g display="none">
	<defs>
		<path id="SVGID_6_" d="M118.56,895.545c-2.4-23.521,14.4-42.72,38.4-42.72h833.76c24,0,40.8,19.199,38.4,42.72l-130.08,1169.28
			c-2.4,23.52-24,42.72-48,42.72H296.16c-24,0-45.12-19.2-48-42.72L118.56,895.545z"/>
	</defs>
	<clipPath id="SVGID_25_" display="inline">
		<use xlink:href="#SVGID_6_"  display="none" overflow="visible"/>
	</clipPath>
	
		<path clip-path="url(#SVGID_25_)" stroke="#DB302A" stroke-width="24" stroke-linecap="round" stroke-linejoin="round" stroke-miterlimit="10" d="
		M118.56,895.545c-2.4-23.521,14.4-42.72,38.4-42.72h833.76c24,0,40.8,19.199,38.4,42.72l-130.08,1169.28
		c-2.4,23.52-24,42.72-48,42.72H296.16c-24,0-45.12-19.2-48-42.72L118.56,895.545z"/>
</g>
<line display="none" fill="none" stroke="#DB302A" stroke-width="8" stroke-linecap="square" stroke-miterlimit="10" x1="131.04" y1="2069.145" x2="1121.28" y2="842.265"/>
<line display="none" fill="none" stroke="#DB302A" stroke-width="8" stroke-linecap="square" stroke-miterlimit="10" x1="131.04" y1="1860.345" x2="1121.28" y2="632.985"/>
<line display="none" fill="none" stroke="#DB302A" stroke-width="8" stroke-linecap="square" stroke-miterlimit="10" x1="131.04" y1="1651.064" x2="1121.28" y2="423.705"/>
<line display="none" fill="none" stroke="#DB302A" stroke-width="8" stroke-linecap="square" stroke-miterlimit="10" x1="131.04" y1="1441.785" x2="1121.28" y2="214.905"/>
<line display="none" fill="none" stroke="#DB302A" stroke-width="8" stroke-linecap="square" stroke-miterlimit="10" x1="131.04" y1="1232.505" x2="1121.28" y2="5.625"/>
<rect x="112.32" y="849.944" display="none" fill="none" width="921.6" height="1262.4"/>
<rect x="112.32" y="849.944" display="none" fill="none" width="921.6" height="1262.4"/>
<path display="none" fill="none" d="M119.04,900.345c-2.88-26.4,16.32-47.52,42.72-47.52h824.16c26.4,0,45.6,21.6,42.72,47.52
	L900,2060.024c-2.88,26.4-26.88,47.521-53.28,47.521H300.96c-26.4,0-50.4-21.601-53.28-47.521L119.04,900.345z"/>
<g display="none">
	<defs>
		<path id="SVGID_5_" d="M911.52,786.585c-9.6-12-17.28-27.36-21.12-44.64c-11.04-47.04,7.68-91.2,41.76-98.88
			c30.24-7.2,62.4,17.76,76.801,57.12c30.239,2.4,56.64,24.96,64.319,57.12c9.12,39.36-13.92,78.24-51.36,86.88
			c-12.479,2.88-24.959,1.92-36-1.92c-5.28,15.84-18.24,28.32-35.52,32.64c-26.4,6.24-52.32-10.079-58.56-36.479
			C886.08,817.785,895.2,797.625,911.52,786.585z"/>
	</defs>
	<clipPath id="SVGID_26_" display="inline">
		<use xlink:href="#SVGID_5_"  display="none" overflow="visible"/>
	</clipPath>
	<rect x="863.04" y="617.625" clip-path="url(#SVGID_26_)" width="235.68" height="282.24"/>
</g>
<path display="none" stroke="#DB302A" stroke-width="8" stroke-linejoin="round" stroke-miterlimit="10" d="M911.52,786.585
	c-9.6-12-17.28-27.36-21.12-44.64c-11.04-47.04,7.68-91.2,41.76-98.88c30.24-7.2,62.4,17.76,76.801,57.12
	c30.239,2.4,56.64,24.96,64.319,57.12c9.12,39.36-13.92,78.24-51.36,86.88c-12.479,2.88-24.959,1.92-36-1.92
	c-5.28,15.84-18.24,28.32-35.52,32.64c-26.4,6.24-52.32-10.079-58.56-36.479C886.08,817.785,895.2,797.625,911.52,786.585z"/>
<g display="none">
	<defs>
		<path id="SVGID_4_" d="M753.6,744.825c-3.36-8.64-5.28-18.24-5.28-27.84c0-40.32,32.64-73.44,73.44-73.44
			c39.84,0,72.96,32.64,72.96,72.96c0,1.44,0,2.88,0,4.32c20.64,11.04,35.04,33.12,35.04,58.56c0,36.479-29.76,66.24-66.24,66.24
			c-19.2,0-36.48-8.16-48.48-21.12c-9.6,12.96-24.96,21.12-42.24,21.12c-28.8,0-52.32-23.521-52.32-52.32
			C720,771.225,733.92,752.025,753.6,744.825z"/>
	</defs>
	<clipPath id="SVGID_27_" display="inline">
		<use xlink:href="#SVGID_4_"  display="none" overflow="visible"/>
	</clipPath>
	<rect x="696" y="619.545" clip-path="url(#SVGID_27_)" width="257.28" height="250.08"/>
</g>
<path display="none" stroke="#DB302A" stroke-width="8" stroke-linecap="round" stroke-linejoin="round" stroke-miterlimit="10" d="
	M753.6,744.825c-3.36-8.64-5.28-18.24-5.28-27.84c0-40.32,32.64-73.44,73.44-73.44c39.84,0,72.96,32.64,72.96,72.96
	c0,1.44,0,2.88,0,4.32c20.64,11.04,35.04,33.12,35.04,58.56c0,36.479-29.76,66.24-66.24,66.24c-19.2,0-36.48-8.16-48.48-21.12
	c-9.6,12.96-24.96,21.12-42.24,21.12c-28.8,0-52.32-23.521-52.32-52.32C720,771.225,733.92,752.025,753.6,744.825z"/>
<g display="none">
	<defs>
		<path id="SVGID_3_" d="M804,635.865c-6.72,6.72-14.4,12-23.52,15.84c-37.44,15.84-80.16-1.44-96-38.88
			c-15.84-37.44,1.44-80.16,38.88-96c1.44-0.48,2.88-0.96,3.84-1.44c1.92-23.52,16.8-45.12,40.32-55.2
			c33.6-14.4,72.48,1.44,86.88,35.04c7.68,17.76,6.72,36.96-0.48,52.8c15.36,3.84,29.28,14.4,36,30.24
			c11.52,26.4-0.96,57.12-27.84,68.64C841.44,656.025,818.4,650.745,804,635.865z"/>
	</defs>
	<clipPath id="SVGID_28_" display="inline">
		<use xlink:href="#SVGID_3_"  display="none" overflow="visible"/>
	</clipPath>
	<rect x="654.24" y="430.905" clip-path="url(#SVGID_28_)" width="263.04" height="250.56"/>
</g>
<path display="none" stroke="#DB302A" stroke-width="8" stroke-linecap="round" stroke-linejoin="round" stroke-miterlimit="10" d="
	M804,635.865c-6.72,6.72-14.4,12-23.52,15.84c-37.44,15.84-80.16-1.44-96-38.88c-15.84-37.44,1.44-80.16,38.88-96
	c1.44-0.48,2.88-0.96,3.84-1.44c1.92-23.52,16.8-45.12,40.32-55.2c33.6-14.4,72.48,1.44,86.88,35.04
	c7.68,17.76,6.72,36.96-0.48,52.8c15.36,3.84,29.28,14.4,36,30.24c11.52,26.4-0.96,57.12-27.84,68.64
	C841.44,656.025,818.4,650.745,804,635.865z"/>
<g display="none">
	<defs>
		<path id="SVGID_2_" d="M635.04,751.065c-15.84-14.88-36.96-22.08-57.6-17.28c-35.52,8.16-56.64,48.48-47.52,89.76
			c9.6,41.28,46.08,68.16,81.6,60c3.84-0.96,7.68-2.4,11.52-3.84c0,3.84,0.48,7.68,1.44,11.52c7.2,31.68,45.12,50.4,84.48,41.28
			c39.36-9.12,64.8-41.76,58.08-73.44c37.44-18.72,58.56-57.12,49.92-94.56c-9.6-40.8-50.88-66.72-96-62.88
			c-12-10.56-29.28-15.84-46.56-12C647.04,696.345,629.76,723.225,635.04,751.065z"/>
	</defs>
	<clipPath id="SVGID_29_" display="inline">
		<use xlink:href="#SVGID_2_"  display="none" overflow="visible"/>
	</clipPath>
	<rect x="504" y="664.665" clip-path="url(#SVGID_29_)" width="338.88" height="294.24"/>
</g>
<path display="none" stroke="#DB302A" stroke-width="8" stroke-linejoin="round" stroke-miterlimit="10" d="M635.04,751.065
	c-15.84-14.88-36.96-22.08-57.6-17.28c-35.52,8.16-56.64,48.48-47.52,89.76c9.6,41.28,46.08,68.16,81.6,60
	c3.84-0.96,7.68-2.4,11.52-3.84c0,3.84,0.48,7.68,1.44,11.52c7.2,31.68,45.12,50.4,84.48,41.28c39.36-9.12,64.8-41.76,58.08-73.44
	c37.44-18.72,58.56-57.12,49.92-94.56c-9.6-40.8-50.88-66.72-96-62.88c-12-11.04-29.28-15.84-46.56-12
	C647.04,696.345,629.76,723.225,635.04,751.065z"/>
<g display="none">
	<defs>
		<path id="SVGID_1_" d="M779.52,993.944c-19.68-0.96-37.44-14.88-42.24-35.04c-5.76-24.479,9.6-48.96,34.08-54.239
			c1.92-0.48,3.84-0.96,6.24-0.96c-8.16-8.641-14.4-19.681-17.28-32.16c-9.12-37.92,14.4-75.36,51.84-84
			c27.84-6.24,55.68,4.8,71.52,26.399c33.6-7.199,66.24,13.92,73.92,47.521c5.76,24.479-3.84,48.479-22.08,63.36
			c1.44,2.88,2.4,5.76,2.88,9.119c8.16,35.521-23.04,73.44-70.08,84C832.32,1026.104,796.8,1015.545,779.52,993.944z"/>
	</defs>
	<clipPath id="SVGID_30_" display="inline">
		<use xlink:href="#SVGID_1_"  display="none" overflow="visible"/>
	</clipPath>
	<rect x="711.84" y="761.625" clip-path="url(#SVGID_30_)" width="271.68" height="282.72"/>
</g>
<path display="none" stroke="#DB302A" stroke-width="8" stroke-linecap="round" stroke-linejoin="round" stroke-miterlimit="10" d="
	M779.52,993.944c-19.68-0.96-37.44-14.88-42.24-35.04c-5.76-24.479,9.6-48.96,34.08-54.239c1.92-0.48,3.84-0.96,6.24-0.96
	c-8.16-8.641-14.4-19.681-17.28-32.16c-9.12-37.92,14.4-75.36,51.84-84c27.84-6.24,55.68,4.8,71.52,26.399l0,0
	c33.6-7.199,66.24,13.92,73.92,47.521c5.76,24.479-3.84,48.479-22.08,63.36c1.44,2.88,2.4,5.76,2.88,9.119
	c8.16,35.521-23.04,73.44-70.08,84C832.32,1026.104,796.8,1015.545,779.52,993.944z"/>
<path display="none" stroke="#DB302A" stroke-width="8" stroke-linecap="round" stroke-miterlimit="10" d="M889.44,821.625
	c0,0,15.84,27.84-11.04,56.16c-27.36,28.8-53.76,17.76-53.76,17.76"/>
<path display="none" stroke="#DB302A" stroke-width="8" stroke-linecap="round" stroke-miterlimit="10" d="M854.4,556.185
	c0,0-11.52,29.76-50.88,26.88c-39.36-3.36-47.52-30.72-47.52-30.72"/>
<path fill="#E6B3C9" stroke="#000000" stroke-width="4" stroke-miterlimit="10" d="M984.12,481.025c0,0,11.368-9.378,19.681-8.16
	s20.139,1.166,22.079,18.24c0,0,0.132,9.113-8.964,15.927S1011,517.505,1011,517.505h-17.76c0,0-3.299-9.011,8.641-17.502
	c0,0,10.686-7.558,0.479-9.858c0,0-5.114,0.021-8.16,3.36L984.12,481.025z"/>
<rect x="993.72" y="523.265" fill="#E6B3C9" stroke="#000000" stroke-width="4" stroke-miterlimit="10" width="16.32" height="15.36"/>
<path fill="#B3E0E0" stroke="#000000" stroke-width="4" stroke-miterlimit="10" d="M961.304,661.085c0,0-34.87,18.416-45.344,60.419
	c0,0-10.919,34.256,6.72,50.88c0,0,21.466,33.077,93.136-13.982c0,0-31.102-2.687-44.372-23.921c0,0-16.545-26.345-17.502-41.159
	C953.942,693.322,950.624,673.496,961.304,661.085z"/>
<path stroke="#000000" stroke-width="4" stroke-miterlimit="10" d="M961.513,716.329c0,0-16.318,12.112-18.673,11.896
	c0,0-5.452,2.663-4.32,8.64c0,0,1.801,6.356,7.68,5.76c0,0,25.195-2.357,27.324-6.653
	C973.523,735.971,962.874,725.482,961.513,716.329z"/>
<path fill="#B3E0E0" stroke="#000000" stroke-width="4" stroke-miterlimit="10" d="M968.8,656.536c0,0,6.447-3.641,14.4-0.96
	c0,0,9.556,4.542,13.694,9.951l19.906,25.569v0.827c0,0,11.184-6.715,21.186-26.167c0,0,4.258-15.29,18.879,0.938
	c0,0,34.975,35.621,1.215,73.841c0,0-39.426,39.72-84.593-6.614C973.486,733.921,933.614,677.983,968.8,656.536z"/>
<path fill="#B3E0E0" stroke="#000000" stroke-width="4" stroke-miterlimit="10" d="M1015.152,686.507c0,0,1.68,1.412,1.664,3
	s5.078-3.379,5.078-3.379h-5.078h-0.997L1015.152,686.507z"/>
<path fill="#FFFFFF" stroke="#000000" stroke-width="4" stroke-miterlimit="10" d="M961.304,658.085c0,0-12.544,7.282-12.764,10.021
	c0,0-21.65-18.711-21.06-50.361c0,0,1.199-68.14,71.52-71.52c0,0,66.221-1.83,71.521,71.52c0,0-3.058,31.95-16.004,44.525
	c0,0-11.364-14.354-16.53,1.486c0,0-17.955,27.34-21.186,25.34c0,0-24.221-35.79-33.601-35.52
	C983.2,653.575,972.289,646.576,961.304,658.085z"/>
<path fill="#6793A1" stroke="#000000" stroke-width="4" stroke-miterlimit="10" d="M922.68,772.385c0,0-1.94,75.091,21.6,122.4
	c0,0,14.75,31.349,35.52,10.079c0,0,4.49-2.029,2.88-38.399c0,0,17.63-1.431,29.76,33.6c0,0,7.8,23.001,27.84,8.641
	c0,0,18.829-21.841,22.56-81.601c0,0,2.059-49.566-5.73-85.663c0,0-21.334,17.686-41.293,14.808c0,0-16.808,20.652-57.277,26.874
	C958.539,783.123,936.79,788.675,922.68,772.385z"/>
</svg>
