<?xml version="1.0" encoding="utf-8"?>
<!-- Generator: Adobe Illustrator 15.0.2, SVG Export Plug-In  -->
<!DOCTYPE svg PUBLIC "-//W3C//DTD SVG 1.1//EN" "http://www.w3.org/Graphics/SVG/1.1/DTD/svg11.dtd" [
	<!ENTITY ns_flows "http://ns.adobe.com/Flows/1.0/">
]>
<svg version="1.1"
	 xmlns="http://www.w3.org/2000/svg" xmlns:xlink="http://www.w3.org/1999/xlink" xmlns:a="http://ns.adobe.com/AdobeSVGViewerExtensions/3.0/"
	 x="0px" y="0px" width="477px" height="568px" viewBox="-6.789 -32.805 477 568"
	 overflow="visible" enable-background="new -6.789 -32.805 477 568" xml:space="preserve">
<defs>
</defs>
<path d="M240.41,281.431c-0.479,14.879-7.68,26.397-15.359,35.998c-0.48,0.479-1.439,0.961-1.92,0.961s-0.959,0-1.439-0.48
	c-0.96-0.959-1.44-2.399-0.48-3.359c8.16-10.561,13.92-20.641,14.4-33.118c0-1.92,0-3.843-0.961-5.281
	c-1.439-2.4-5.279-2.879-11.52-2.4c-1.439,0-2.4-0.959-2.879-1.92c0-1.438,0.959-2.397,1.92-2.879
	c5.279-0.961,12.479-0.961,16.318,4.32C240.41,276.149,240.41,279.029,240.41,281.431z"/>
<path fill="#FFFFFF" d="M131.874,282.872c0,0,103.439-52.382,187.201-9.121c0,0,10.638,62.92-16.801,75.842
	c0,0-34.702,35.818-76.32,33.119c0,0-84.862-5.121-90.24-56.16C135.714,326.551,130.151,306.792,131.874,282.872z"/>
<path d="M131.874,282.872c7.185-3.69,14.613-6.925,22.165-9.815c7.553-2.898,15.227-5.494,22.999-7.779
	c15.535-4.596,31.51-7.827,47.694-9.435c16.179-1.587,32.601-1.418,48.771,1.013c16.154,2.453,32.018,7.347,46.651,14.806
	l1.053,0.534l0.188,1.162c1.122,6.937,1.72,13.783,2.007,20.73c0.263,6.93,0.152,13.896-0.598,20.857
	c-0.772,6.944-2.133,13.938-4.949,20.596c-1.417,3.314-3.235,6.539-5.65,9.389c-2.395,2.854-5.431,5.287-8.877,6.898l0.723-0.516
	c-3.116,3.098-6.296,5.809-9.632,8.473c-3.327,2.637-6.768,5.127-10.318,7.459c-7.104,4.646-14.636,8.709-22.612,11.768
	c-7.963,3.062-16.363,5.164-24.94,5.82c-4.28,0.326-8.614,0.293-12.878-0.139c-4.221-0.416-8.396-0.988-12.553-1.718
	c-8.307-1.452-16.529-3.413-24.565-6.022c-8.024-2.621-15.895-5.875-23.213-10.203c-7.298-4.309-14.117-9.703-19.321-16.531
	c-2.6-3.399-4.728-7.17-6.282-11.153c-1.555-3.986-2.499-8.191-2.877-12.423l0.027,0.144c-0.896-3.631-1.532-7.244-2.072-10.898
	c-0.53-3.647-0.923-7.312-1.184-10.983C131.093,297.561,131.192,290.178,131.874,282.872z M131.874,282.872
	c-0.369,7.334-0.035,14.672,0.713,21.947c0.385,3.637,0.9,7.258,1.551,10.854c0.655,3.584,1.422,7.183,2.406,10.646l0.018,0.061
	l0.01,0.082c0.506,4.064,1.551,8.049,3.16,11.787c1.602,3.744,3.768,7.221,6.307,10.393c5.1,6.355,11.742,11.361,18.889,15.343
	c7.172,3.977,14.863,7.022,22.739,9.438c7.885,2.404,15.972,4.18,24.128,5.455c4.077,0.627,8.177,1.168,12.267,1.52
	c4.044,0.365,8.087,0.351,12.123-0.002c8.07-0.705,16.014-2.774,23.585-5.78c7.574-3.021,14.828-6.896,21.659-11.422
	c3.418-2.263,6.735-4.683,9.938-7.238c3.179-2.549,6.342-5.283,9.133-8.08l0.33-0.332l0.393-0.187
	c2.751-1.303,5.18-3.243,7.175-5.637c2-2.389,3.601-5.178,4.885-8.143c2.555-5.957,3.895-12.541,4.646-19.168
	c0.742-6.646,0.879-13.398,0.646-20.141c-0.246-6.728-0.846-13.533-1.818-20.123l1.24,1.698
	c-14.074-7.377-29.418-12.271-45.148-14.879c-15.737-2.676-31.852-3.071-47.835-1.887c-15.997,1.19-31.882,4.028-47.479,8
	c-7.796,2.002-15.519,4.319-23.14,6.948C146.787,276.689,139.214,279.499,131.874,282.872z"/>
<path fill="#B3E0E0" d="M298.147,391.072c0,0,11.114,1.779,12.479,12c0,0-9.321,15.578-12.479,14.399
	C298.147,417.472,292.305,400.852,298.147,391.072z"/>
<path d="M298.147,391.072c1.582-0.02,3.165,0.285,4.716,0.759c1.532,0.517,3.055,1.218,4.426,2.225
	c1.373,0.994,2.602,2.282,3.532,3.791c0.944,1.503,1.56,3.215,1.89,4.947l0.119,0.621l-0.398,0.737
	c-0.803,1.485-1.605,2.915-2.483,4.332c-0.86,1.421-1.786,2.808-2.758,4.183c-0.985,1.368-2.021,2.712-3.228,4.024
	c-0.617,0.65-1.263,1.296-2.083,1.935c-0.423,0.316-0.863,0.645-1.518,0.938c-0.316,0.144-0.716,0.287-1.213,0.369
	c-0.49,0.079-1.163,0.088-1.854-0.177l-1.114-0.424l-0.334-1.052c-0.386-1.219-0.671-2.312-0.923-3.479
	c-0.254-1.148-0.476-2.304-0.637-3.469c-0.342-2.325-0.505-4.686-0.441-7.051c0.076-2.361,0.353-4.741,1.044-7.021
	C295.543,394.989,296.6,392.789,298.147,391.072z M298.147,391.072c-0.771,2.173-1.09,4.361-1.18,6.538
	c-0.054,2.181,0.088,4.344,0.391,6.493c0.295,2.148,0.737,4.278,1.253,6.39c0.523,2.087,1.15,4.247,1.837,6.17L299,415.188
	c-0.308-0.12-0.559-0.104-0.649-0.095c-0.098,0.011-0.106,0.026-0.056-0.008c0.087-0.047,0.318-0.19,0.539-0.371
	c0.462-0.367,0.974-0.877,1.466-1.418c1.002-1.082,1.979-2.309,2.934-3.556c0.965-1.245,1.893-2.539,2.833-3.831
	c0.92-1.3,1.871-2.617,2.755-3.918l-0.279,1.358c-0.08-1.326-0.363-2.618-0.867-3.848c-0.506-1.228-1.241-2.386-2.174-3.441
	c-0.937-1.052-2.047-2.021-3.302-2.832C300.958,392.388,299.599,391.669,298.147,391.072z"/>
<path d="M181.932,66.915c11.795,5.177,25.961,0.66,31.641-10.088c0.008-0.015,0.016-0.029,0.023-0.043
	c2.853-5.424,8.854-8.886,15.454-8.916c9.32,0.201,16.936,6.843,17.566,15.319c0.262,6.962-4.52,13.256-11.764,15.481
	c-17.325,5.189-29.1,19.855-29.284,36.474v12.34c-0.001,11.93,10.611,21.601,23.702,21.602c13.09,0,23.703-9.669,23.703-21.6
	c0,0,0-0.001,0-0.002v-8.855c25.504-9.061,41.951-31.807,41.025-56.737c-1.319-31.808-29.888-57.029-64.815-57.223h-0.4
	c-24.703,0.126-47.156,13.104-57.811,33.414c-5.671,10.752-0.702,23.658,11.097,28.825c0.007,0.003,0.014,0.006,0.021,0.009H181.932
	z M183.089,43.45c8.438-16.05,26.209-26.285,45.738-26.342h0.355c27.594,0.143,50.182,20.041,51.275,45.167
	c0.756,20.534-13.377,39.083-34.754,45.612h-0.178c-3.523,0.975-5.98,3.88-6.115,7.234v12.36c0.002,5.114-4.545,9.262-10.158,9.264
	c-5.611,0.002-10.163-4.142-10.166-9.256c0-0.002,0-0.005,0-0.008v-12.28c0.146-11.331,8.192-21.32,20.013-24.842
	c12.945-3.909,21.523-15.116,21.078-27.538c-0.877-15.146-14.486-27.081-31.129-27.294c-11.796,0.044-22.521,6.243-27.594,15.947
	c-2.456,4.604-8.544,6.524-13.598,4.286c-5.053-2.238-7.158-7.786-4.702-12.391l0,0L183.089,43.45z M229.273,155.08
	c-13.141,0-23.792,9.707-23.792,21.681s10.651,21.682,23.792,21.682c13.139,0,23.791-9.708,23.791-21.682l0,0
	C253.052,164.791,242.407,155.091,229.273,155.08z M229.273,186.082c-5.662,0-10.251-4.182-10.251-9.341
	c0-5.159,4.59-9.341,10.251-9.341c5.66,0,10.25,4.182,10.25,9.341C239.523,181.9,234.933,186.082,229.273,186.082L229.273,186.082z"
	/>
<path d="M222.72,63.754C99.84,63.754,0,163.594,0,285.995c0,122.879,99.84,222.719,222.72,222.719
	c122.879,0,222.719-99.84,222.719-222.719C445.439,163.594,345.6,63.754,222.72,63.754z M222.72,494.312
	c-15.84,0-31.2-1.92-46.561-5.278c5.28-24,11.04-48,17.28-71.521c1.44-4.801,5.76-21.121,8.16-28.801
	c10.08,2.881,16.8,4.32,22.56,4.32c0.48,0,1.44,0,1.92,0c8.161-0.48,17.28-2.4,25.92-5.279c1.439,5.279,2.881,11.039,4.32,17.279
	c6.24,26.399,14.4,58.561,22.08,81.6C260.641,491.915,241.92,494.312,222.72,494.312z M139.68,373.834
	c0.48-3.84,0.96-8.16,0.96-11.041c0-2.4-2.4-4.799-4.8-4.799c-2.88,0-4.8,2.397-4.8,4.799c0,4.32-0.96,11.041-1.44,16.801
	c-1.92-6.239-3.84-12-5.28-18.239c-1.92-8.642-4.32-18.722-3.84-28.802c0-2.397-1.92-4.799-4.32-4.799c-2.4,0-4.8,1.92-5.28,4.799
	c-0.48,11.521,1.92,23.041,3.84,31.681c0,0.479,0.48,0.961,0.48,1.44v-0.479c-8.64-22.08-8.64-31.199-9.6-53.761v-3.358
	c-0.48-8.642,1.44-28.32,2.88-36.961c0.48-3.841,1.44-8.161,1.92-12.48c0.96-6.72,1.92-13.44,3.36-19.2
	c4.8-20.159,7.2-30.239,15.84-48c2.88-5.76,12.48-19.2,19.2-24.96c14.4-12.96,28.32-24,46.56-26.88
	c17.76-2.88,38.88-2.88,54.72,0.96c20.16,4.8,39.84,12.96,52.801,21.6c11.52,7.68,27.84,27.84,31.199,36.96
	c6.24,15.36,6.721,17.76,8.16,25.919c0.48,2.4,0.959,5.761,1.92,9.601c2.879,12.479,3.84,24.479,4.799,33.601
	c2.4,26.398,0.961,44.158-2.879,64.318c-1.92,9.121-4.32,17.761-8.16,27.361c1.439-7.682,1.92-15.361,1.92-21.602
	c0-2.398-2.4-4.8-4.801-4.8c-2.879,0-4.799,2.4-4.799,4.8c0.48,14.399-4.801,36.479-11.041,51.36
	c-1.439-7.201-2.398-16.801-1.439-25.44c0-2.398-1.92-4.8-4.32-5.279c-2.399,0-4.799,1.92-5.278,4.32
	c-0.479,6.721,0,14.879,0.959,22.079c-4.317-6.721-8.639-14.881-9.6-19.68c3.361-2.399,6.24-4.32,8.16-6.721
	c0.48-0.48,0.961-0.959,1.439-1.439c7.682-6.239,24.961-19.68,20.641-78.721c1.439,0.961,2.881,1.44,3.84,1.92
	c0.48,0,0.48,0.479,0.961,0.479c0.479,0,0.479,0.48,0.959,0.48c0.48,0,0.48,0,0.961,0c0.479,0,0.479,0,0.959,0h0.48
	c0.48,0,0.48,0,0.959-0.48c0.48,0,0.961-0.479,1.441-0.959c0,0,0.48-0.479,0.48-0.961c0.479-0.961,0.959-1.92,0.959-2.881
	c0-27.359-4.802-49.918-16.32-75.358c-0.959-2.4-3.84-3.36-6.24-2.4c-2.398,0.96-3.359,3.84-2.398,6.24
	c9.601,21.601,14.398,40.8,15.359,63.36c-0.48-0.479-0.961-0.479-1.439-0.961c-0.479-0.479-0.961-0.479-1.44-0.479
	c0,0-0.959-0.48-2.4-0.96c0,0,0,0-0.479,0c-2.4-0.961-6.722-1.92-12-3.36c0.479-15.84-0.962-31.199-10.08-50.399
	c-0.961-2.399-3.84-3.359-6.24-2.399s-3.359,3.84-2.4,6.239c7.68,16.801,9.12,29.761,9.12,43.681c-5.28,0-9.601-0.96-14.398-1.92
	c1.92-14.4-0.961-35.04-10.08-51.36c-1.439-2.4-4.32-2.88-6.721-1.92c-2.4,1.44-2.879,4.32-1.92,6.721
	c8.16,13.919,10.561,32.64,9.121,44.64c-3.361-0.479-7.201-0.96-10.561-1.438c0-16.801-8.641-46.082-15.84-57.602
	c-1.441-2.4-4.32-2.88-6.721-1.44s-2.879,4.32-1.439,6.72c6.24,10.08,13.92,37.44,14.4,51.84c-9.121-0.479-16.32,0-19.682,0
	c-5.76,0-15.359,0.96-25.439,2.399c-0.96-12,0-28.801,4.319-41.76c0.961-2.4-0.479-5.279-2.879-6.24
	c-2.4-0.959-5.28,0.48-6.24,2.881c-4.8,14.398-5.76,32.64-4.8,45.6c-1.92,0.479-3.36,0.479-4.8,0.96
	c-1.92-10.562-1.92-24.96,2.88-38.399c0.96-2.4-0.48-5.281-2.88-6.24c-2.4-0.961-5.28,0.479-6.24,2.879
	c-6.24,17.28-4.8,34.081-3.36,42.721c-4.32,0.479-8.64,1.44-11.52,1.921c-2.4-12-0.48-24,6.24-36.479c1.44-2.4,0.48-5.28-1.92-6.721
	c-2.4-1.441-5.28-0.479-6.24,1.921c-7.68,14.399-10.08,28.8-7.2,42.72c-6.24,1.438-12.96,3.358-18.72,4.8
	c-1.92-14.4-0.48-34.08,7.2-48c1.44-2.4,0.48-5.28-1.92-6.721c-2.4-1.439-5.28-0.479-6.24,1.92
	c-9.12,16.801-10.56,39.841-8.16,55.681c-4.32,1.439-7.68,2.4-10.56,3.359c0-0.479,0-0.959,0-0.959
	c0.48-7.681,0.96-19.202,2.88-28.321c2.88-13.439,6.72-23.04,12.96-33.12c1.44-2.4,0.48-5.28-1.44-6.721
	c-2.4-1.439-5.28-0.479-6.72,1.44c-6.72,11.04-11.04,21.6-14.4,36c-2.4,10.08-2.88,22.08-3.36,30.24c0,2.879-0.48,6.24-0.48,7.199
	c0,0.48,0,0.961,0,1.441c-0.96,27.358,0.48,36.959,3.84,49.438c3.36,12.479,8.64,23.039,17.28,31.199L139.68,373.834z
	 M153.12,387.274c0.48,8.641-0.48,16.801-3.36,24.959v0.479c-5.28-4.32-11.52-10.561-13.44-15.359v-0.479
	c-0.48-0.959-0.48-1.439-0.48-1.439C135.84,394.473,138.72,392.075,153.12,387.274z M112.32,412.233
	c-0.48,0.479-0.96,0.961-1.44,1.44c0,0-0.48,0-0.48-0.479c-0.48-0.961-0.96-2.882-0.96-4.802c-0.96-10.559,0-18.719,2.4-25.438
	l11.04,11.041C120,403.114,116.16,409.834,112.32,412.233z M327.84,398.312c2.881-2.397,5.279-4.317,7.68-4.799
	c1.92,3.84,1.92,18.24-1.438,25.92c-0.479-0.479-0.961-0.479-1.92-0.961c-6.24-2.879-9.601-4.799-11.041-7.68
	c0,0-0.959-1.92-1.438-1.92c-0.48-0.959-0.48-1.92-0.48-2.879c0.961-0.961,2.881-2.4,3.84-3.361 M309.119,405.995
	c0,0-0.479,0.479-0.479,0.959c-0.961,1.438-2.4,3.359-3.841,4.801c0,0-1.44,1.439-1.44,1.92c-2.4,2.879-3.84,3.84-6.719,6.719
	c-0.961-8.639-1.441-17.76,0-26.397c1.439,0.479,3.84,1.438,6.24,3.359c1.438,0.959,2.397,1.92,2.879,2.879
	c0.961,0.961,1.921,2.399,2.4,3.36c0,0,0,0,0,0.48c0.479,0.479,0.479,1.438,0.479,1.92H309.119L309.119,405.995z M135.36,327.754
	c-2.88-11.041-4.32-19.201-3.84-43.68c3.36-1.441,10.08-3.361,17.76-5.76c0.48,0,0.48,0,0.96,0c8.64-2.4,18.24-5.281,27.36-7.201
	h0.48c0.96,0,1.44-0.48,2.4-0.48c3.36-0.479,9.6-1.439,16.8-2.879c0.48,0,0.96,0,1.44,0l0,0c4.32-0.48,8.64-1.439,13.44-1.92
	c11.52-1.439,23.04-2.881,29.28-2.881c6.24,0,24.961-0.479,42.24,2.881l0,0c0.961,0,1.92,0.48,2.4,0.48
	c7.199,1.439,13.92,3.359,19.68,4.799c0.48,0,0.48,0,0.961,0.479l0,0c4.799,1.439,8.639,2.4,12,3.359
	c5.279,58.561-10.08,70.561-16.801,75.84c-0.961,0.961-1.92,1.439-2.4,2.4c-1.92,1.92-4.799,4.319-8.16,6.721h-0.479l-0.48,0.479
	l0,0c-15.84,10.08-44.16,22.08-64.8,23.521c-5.761,0.479-13.44-1.441-25.92-4.801h-0.48c-0.48,0-0.48,0-0.48,0
	C158.88,367.114,141.6,353.674,135.36,327.754z M287.52,484.233c-7.68-22.56-15.359-54.72-21.6-81.119
	c-1.439-6.24-2.881-12.48-4.32-18.24c10.561-3.84,20.641-8.641,28.801-13.439c1.439,3.841,3.359,7.681,5.279,12h-0.48
	c-0.959,0-1.92,0-2.879,0.48c-0.961,0-2.4,0.479-3.361,1.92c-1.439,1.439-1.92,3.359-1.92,4.318c-1.439,11.041-1.439,22.08,0,33.121
	c0,1.438,0.961,5.278,4.32,7.198c0.961,0.48,2.4,0.961,3.361,0.961c1.92,0,3.359-0.479,5.279-1.92
	c-2.4,8.16-5.76,17.279-10.08,22.08c-1.92,1.92-1.92,4.799,0,6.72c0.961,0.961,2.4,1.44,3.359,1.44c1.441,0,2.4-0.479,3.361-1.44
	c7.199-7.199,11.52-20.64,13.92-30.72c-0.48,13.439-1.92,29.279-6.24,36.48c-1.439,2.397-0.961,5.279,1.438,6.719
	c0.961,0.48,1.438,0.961,2.4,0.961c1.438,0,3.358-0.961,3.84-2.399c5.278-8.16,7.198-22.562,7.68-35.521
	c0.48,7.199,0,15.359-1.438,24c-0.48,2.398,1.438,4.799,3.84,5.279c0,0,0.48,0,0.959,0c2.4,0,4.32-1.92,4.801-4.32
	c1.439-11.52,1.92-22.08,0.961-30.721c5.279,2.399,6.719,2.399,7.68,2.399c1.439,0,2.879-0.479,3.359-1.438c0,0,0,0,1.439-1.92
	c3.84-7.199,6.24-27.84,2.881-36.48c-1.439-3.358-3.359-5.76-6.24-6.24h-0.48c-0.479,0-0.479,0-0.959,0
	c9.119-19.198,14.879-34.08,18.24-50.397c3.84-21.121,5.76-39.841,2.879-67.202c-0.479-5.279-1.92-20.159-5.279-35.039
	c-0.961-3.84-1.438-6.721-1.92-9.12c-1.44-8.641-2.399-11.52-8.641-27.84c-4.32-10.56-21.6-32.16-34.561-41.28
	c-14.398-9.6-34.559-18.24-56.16-23.04c-17.279-4.32-39.839-4.8-58.559-1.44c-20.64,3.36-35.52,15.36-50.88,29.28
	c-7.68,6.72-18.24,21.12-21.6,27.84c-8.64,18.72-11.52,29.759-16.32,49.92c-1.44,6.238-2.4,13.439-3.36,20.158
	c-0.48,4.32-1.44,8.16-1.92,12c-1.44,9.121-3.36,29.763-2.88,38.882v3.358c0.96,23.041,0.96,33.121,10.08,56.642
	c0.96,2.399,1.44,3.84,2.4,5.278c-1.92,0.961-3.84,2.882-4.8,5.761c-3.36,8.641-4.32,18.239-3.36,31.2c0,2.88,0.48,6.24,2.4,9.119
	c1.92,2.881,5.28,4.802,8.64,4.802h0.48c-1.44,4.799-2.88,9.6-4.32,14.399c-0.96,2.398,0.96,5.279,3.36,5.76c0.48,0,0.96,0,1.44,0
	c1.92,0,4.32-1.44,4.8-3.36c1.92-6.238,3.84-12.959,5.76-19.199c-0.96,7.199-1.92,14.4-2.88,20.641c-0.96,4.8-1.44,8.64-1.92,12
	c-0.48,2.4,1.44,4.8,4.32,5.279h0.48c2.4,0,4.32-1.92,4.8-4.32c0.48-3.358,0.96-7.198,1.92-12c0.96-7.198,2.4-15.358,3.36-23.039
	c1.44,7.681,2.88,16.8,1.92,23.521c-0.48,2.399,1.44,4.801,4.32,5.279h0.48c2.4,0,4.32-1.921,4.8-4.318
	c0.96-7.682-0.48-17.281-1.92-25.922c0.96,0.479,1.44,1.44,1.92,1.44c1.44,1.439,3.84,2.88,6.72,2.88h0.96
	c2.4-0.479,5.76-1.921,7.68-7.681c3.36-10.561,4.8-22.08,3.36-33.119c0-0.479-0.48-1.92-1.44-3.36c-1.44-1.92-3.84-2.398-6.72-1.439
	l-2.4,0.961c-1.44,0.479-2.4,0.479-3.36,0.959l3.36-11.039c10.08,7.199,23.52,13.439,41.28,18.24
	c-2.4,8.158-6.72,24.479-8.16,29.279c-5.76,23.039-12,47.52-17.28,71.52c-88.8-24-153.6-104.639-153.6-200.639
	c0-114.721,93.6-207.841,208.32-207.841c114.719,0,208.319,93.6,208.319,208.32C431.039,378.153,371.039,456.874,287.52,484.233z"/>
<path fill="#6793A1" d="M222.946,77.154c0,0,197.589-4.421,208.544,208.319c0,0,11.028,148.779-143.675,197.761l-25.948-99.359
	c0,0,25.246-9.221,28.832-13.439l5.285,12l-3.363,0.48c0,0-4.734,1.223-5.287,6.238c0,0-1.665,28.393,0,33.121
	c0,0,4.114,8.993,7.69,8.159c0,0,4.552-0.621,5.285-1.92c0,0-4.898,19.959-10.091,22.08c0,0-4.128,9.479,6.728,6.719
	c0,0,8.758-11.59,13.935-30.719c0,0-0.652,31.59-6.246,36.48c0,0-1.244,11.914,7.688,5.278c0,0,6.247-12.479,7.688-35.52
	c0,0,1.076,21.201-1.44,23.039c0,0,2.959,11,9.609,1.92c0,0,2.531-25.361,0.963-30.721c0,0,10.223,5.422,12.49-0.959
	c0,0,7.564-23.802,2.885-36.48c0,0-4.187-7.061-7.688-6.24c0,0,37.379-55.84,13.936-161.759c0,0-19.826-76.401-99.47-92.16
	c0,0-68.896-11.062-109.557,27.84c0,0-31.727,38.506-37.961,77.761c0,0-13.677,102.499,4.325,136.318c0,0-3.812,2.951-4.806,5.761
	c0,0-7.671,35.729-0.961,40.319c0,0,2.29,3.609,8.649,4.802l-3.844,14.399c0,0,1.008,10.758,9.61,2.398l5.767-19.199l-4.805,32.641
	c0,0,4.071,10.72,9.61,0.959l5.286-35.039c0,0,4.843,19.011,1.922,23.521c0,0,3.372,10.91,9.611,0.961
	c0,0,0.428-15.394-1.922-25.922c0,0,9.668,9.311,17.299-3.359c0,0,4.852-20.82,3.363-33.119c0,0-2.402-6.721-8.168-4.801
	l-5.767,1.92l3.364-11.039c0,0,19.008,13.109,41.325,18.24l-25.467,100.799c0,0-157.353-30.858-153.767-200.639
	C14.4,284.995,5.448,89.093,222.946,77.154z"/>
<path d="M222.946,77.154c6.169-0.034,12.333,0.394,18.47,1.001c6.137,0.624,12.249,1.489,18.321,2.576
	c12.144,2.178,24.132,5.244,35.81,9.23c23.339,7.957,45.494,19.726,64.521,35.489c9.512,7.865,18.223,16.7,25.935,26.338
	c7.713,9.638,14.438,20.062,20.11,31.025c11.373,21.948,18.478,45.936,22.326,70.306c1.911,12.201,3.114,24.505,3.522,36.859
	c0.14,12.364-1.035,24.717-3.142,36.891c-4.249,24.33-12.541,48.053-25.151,69.367c-6.295,10.651-13.649,20.686-21.954,29.869
	c-8.301,9.188-17.541,17.521-27.488,24.897c-19.908,14.781-42.562,25.609-66.127,33.125l-0.941,0.301l-0.253-0.959l-26.208-99.291
	l-0.278-1.057l1.033-0.385c4.959-1.853,9.904-3.812,14.766-5.904c2.429-1.049,4.841-2.135,7.19-3.305
	c1.172-0.589,2.332-1.193,3.439-1.847c0.553-0.326,1.094-0.662,1.598-1.016c0.494-0.348,0.981-0.736,1.27-1.072l1.336-1.557
	l0.831,1.873l5.316,11.985l0.708,1.597l-1.734,0.252l-3.361,0.49l0.145-0.029c-0.563,0.17-1.319,0.543-1.881,0.959
	c-0.588,0.426-1.092,0.938-1.477,1.522c-0.388,0.582-0.655,1.236-0.804,1.937c-0.036,0.176-0.069,0.354-0.09,0.535l-0.019,0.135
	c0.002-0.029-0.007,0.074,0.004-0.061v0.01l-0.001,0.02l-0.003,0.041l-0.004,0.08l-0.018,0.324l-0.067,1.303
	c-0.172,3.476-0.314,6.955-0.421,10.433c-0.104,3.475-0.176,6.95-0.164,10.414c0.008,1.731,0.036,3.461,0.116,5.17
	c0.041,0.854,0.096,1.705,0.18,2.532c0.082,0.806,0.204,1.689,0.39,2.232l-0.049-0.121c0.385,0.812,0.846,1.674,1.317,2.479
	c0.478,0.811,0.986,1.598,1.534,2.325c0.545,0.728,1.139,1.406,1.751,1.902c0.618,0.518,1.219,0.707,1.438,0.617l0.02-0.008
	l0.117-0.019c0.411-0.061,0.876-0.145,1.309-0.235c0.438-0.095,0.87-0.199,1.284-0.318c0.412-0.121,0.81-0.258,1.144-0.41
	c0.163-0.074,0.309-0.156,0.402-0.221c0.097-0.06,0.122-0.125,0.048-0.006l5.038-8.099l-2.292,9.188
	c-0.512,2.049-1.073,4.037-1.683,6.035c-0.611,1.993-1.271,3.977-2.01,5.942c-0.743,1.965-1.553,3.918-2.563,5.832
	c-0.508,0.957-1.066,1.904-1.758,2.828c-0.716,0.902-1.484,1.873-2.938,2.525l0.838-0.818c-0.327,0.809-0.593,1.85-0.627,2.699
	c-0.041,0.889,0.169,1.535,0.523,1.815c0.343,0.33,1.147,0.531,2.073,0.502c0.925-0.02,1.936-0.206,2.939-0.461l-0.878,0.582
	c1.552-2.155,3.009-4.592,4.339-7.006c1.334-2.434,2.562-4.932,3.691-7.473c2.258-5.084,4.111-10.35,5.553-15.721l3.623-13.504
	l-0.322,13.979c-0.074,3.166-0.221,6.289-0.42,9.432c-0.201,3.14-0.461,6.275-0.814,9.412c-0.358,3.14-0.797,6.277-1.465,9.42
	c-0.34,1.572-0.732,3.146-1.279,4.729c-0.276,0.791-0.594,1.586-1.006,2.387c-0.422,0.797-0.904,1.621-1.771,2.404l0.599-1.154
	c-0.078,0.949-0.062,2.072,0.084,3.021c0.125,0.95,0.483,1.846,0.797,2.098c0.148,0.131,0.223,0.162,0.451,0.184
	c0.221,0.021,0.584-0.045,0.977-0.188c0.798-0.285,1.688-0.847,2.529-1.474l-0.541,0.646c0.576-1.217,1.135-2.656,1.628-4.033
	c0.497-1.395,0.952-2.812,1.374-4.244c0.842-2.86,1.545-5.771,2.136-8.707c1.183-5.873,1.905-11.846,2.269-17.842l3.812,0.021
	c0.189,3.938,0.287,7.834,0.247,11.78c-0.024,1.974-0.082,3.947-0.244,5.959c-0.083,1.009-0.19,2.021-0.378,3.08
	c-0.098,0.531-0.211,1.072-0.395,1.662c-0.101,0.301-0.207,0.609-0.383,0.965c-0.195,0.354-0.397,0.781-1.033,1.281l0.739-2.104
	c0.257,0.862,0.692,1.895,1.177,2.647c0.481,0.789,1.104,1.31,1.426,1.359c0.166,0.039,0.316,0.041,0.582-0.049
	c0.26-0.089,0.591-0.277,0.927-0.543c0.68-0.533,1.358-1.322,1.979-2.171l-0.379,0.986c0.476-5.072,0.868-10.186,1.141-15.271
	c0.134-2.543,0.234-5.086,0.259-7.605c0.01-1.26,0.001-2.514-0.054-3.74c-0.028-0.61-0.067-1.217-0.129-1.795
	c-0.061-0.567-0.15-1.145-0.26-1.521l-1.335-4.578l4.314,2.146c1.649,0.82,3.625,1.533,5.385,1.789
	c0.884,0.129,1.738,0.131,2.396-0.026c0.668-0.166,1.063-0.431,1.381-0.875c0.154-0.22,0.304-0.527,0.395-0.843l0.438-1.495
	c0.283-1.007,0.554-2.021,0.81-3.039c0.513-2.035,0.972-4.089,1.373-6.146c0.799-4.115,1.379-8.27,1.549-12.389
	c0.149-4.094-0.073-8.26-1.366-11.818l0.17,0.357c-0.375-0.611-0.859-1.314-1.334-1.931c-0.48-0.627-0.988-1.223-1.515-1.748
	c-0.521-0.521-1.073-0.979-1.567-1.258c-0.506-0.293-0.848-0.311-0.899-0.28l-7.103,4.122l4.778-7.477
	c1.079-1.689,2.146-3.658,3.12-5.564c0.98-1.932,1.904-3.899,2.779-5.895c1.75-3.986,3.31-8.068,4.709-12.205
	c2.799-8.279,4.957-16.783,6.585-25.389c3.247-17.224,4.36-34.838,3.809-52.383c-0.562-17.553-2.766-35.053-6.265-52.287
	l-0.672-3.229l-0.68-3.118c-0.559-1.993-1.266-4.086-2.002-6.111c-1.488-4.075-3.197-8.085-5.08-12.012
	c-3.768-7.852-8.231-15.375-13.345-22.418c-10.203-14.091-23.135-26.224-38.12-34.996c-7.481-4.395-15.444-7.958-23.697-10.657
	c-4.126-1.354-8.325-2.485-12.571-3.416l-1.595-0.339l-0.799-0.164l-0.199-0.041l-0.1-0.02c-0.122-0.022,0.053,0.006-0.003-0.002
	l-0.382-0.057c-1.052-0.15-2.133-0.281-3.21-0.399c-2.159-0.235-4.333-0.419-6.51-0.563c-17.415-1.09-35.084,0.054-51.959,4.299
	c-8.425,2.135-16.636,5.089-24.329,9.035c-7.688,3.941-14.846,8.891-21.063,14.839l0.197-0.212
	c-5.717,7.162-11.001,14.916-15.821,22.821c-4.814,7.934-9.168,16.147-12.825,24.64c-3.645,8.489-6.607,17.275-8.333,26.271
	c-0.205,1.1-0.429,2.305-0.562,3.325l-0.429,3.468l-0.788,6.963c-0.497,4.646-0.956,9.299-1.366,13.955
	c-1.623,18.62-2.628,37.315-2.352,55.959c0.16,9.314,0.645,18.625,1.833,27.808c0.601,4.586,1.38,9.141,2.481,13.584
	c1.109,4.43,2.522,8.787,4.578,12.696l0.857,1.63l-1.453,1.145c-0.391,0.309-0.863,0.719-1.271,1.104
	c-0.418,0.393-0.822,0.799-1.191,1.215c-0.735,0.813-1.376,1.727-1.626,2.432l0.077-0.27c-0.693,3.297-1.308,6.676-1.85,10.028
	c-0.54,3.363-1.005,6.734-1.348,10.103c-0.336,3.362-0.568,6.737-0.5,10.033c0.039,1.641,0.154,3.272,0.443,4.771
	c0.144,0.744,0.34,1.453,0.588,2.041c0.244,0.588,0.57,1.008,0.764,1.131l0.207,0.129l0.387,0.486l0.207,0.258
	c0.099,0.115,0.208,0.234,0.325,0.353c0.23,0.235,0.487,0.465,0.757,0.682c0.54,0.434,1.141,0.82,1.777,1.156
	c1.274,0.674,2.698,1.133,4.179,1.42l2.237,0.43l-0.589,2.184l-3.882,14.392l0.061-0.728c0.095,0.838,0.372,1.916,0.739,2.627
	c0.184,0.365,0.396,0.66,0.583,0.828c0.192,0.168,0.316,0.226,0.488,0.256c0.333,0.082,1.14-0.137,1.935-0.647
	c0.804-0.494,1.616-1.182,2.392-1.926l-0.53,0.871l5.817-19.185l3.851,0.857l-4.891,32.627l-0.103-0.947
	c0.339,0.846,0.867,1.832,1.422,2.557c0.552,0.755,1.237,1.257,1.591,1.289c0.18,0.031,0.334,0.021,0.596-0.096
	c0.254-0.113,0.57-0.342,0.879-0.645c0.625-0.611,1.216-1.478,1.741-2.39l-0.221,0.64l5.378-35.027l1.342-8.74l2.106,8.568
	c0.489,1.992,0.911,3.945,1.302,5.934c0.387,1.984,0.732,3.979,1.009,5.994c0.273,2.019,0.49,4.055,0.542,6.148
	c0.024,1.049,0.007,2.112-0.117,3.221c-0.153,1.109-0.298,2.264-1.097,3.582l0.197-1.424c0.294,0.891,0.772,1.922,1.307,2.678
	c0.537,0.789,1.195,1.275,1.581,1.283c0.372,0.078,1.093-0.256,1.782-0.933c0.688-0.661,1.328-1.532,1.912-2.45l-0.253,0.836
	c0.052-2.117,0.047-4.285,0.008-6.431c-0.04-2.147-0.12-4.297-0.248-6.438c-0.266-4.275-0.688-8.555-1.577-12.66l-1.068-4.936
	l3.727,3.44c0.476,0.439,1.163,0.947,1.804,1.336c0.659,0.402,1.349,0.742,2.053,1c1.41,0.519,2.876,0.685,4.257,0.398
	c1.381-0.283,2.677-1.019,3.81-2.043c1.134-1.023,2.11-2.308,2.953-3.697l-0.18,0.445c0.609-2.662,1.148-5.394,1.63-8.105
	c0.481-2.721,0.903-5.449,1.245-8.184c0.34-2.732,0.603-5.474,0.73-8.203c0.123-2.729,0.12-5.461-0.183-8.105l0.074,0.314
	c-0.396-1.014-1.096-2.154-1.89-2.916c-0.809-0.791-1.748-1.25-2.758-1.287c-0.508-0.02-1.04,0.059-1.578,0.225l-1.947,0.64
	l-3.953,1.305l-2.588,0.854l0.799-2.599l3.393-11.028l0.546-1.777l1.55,1.045c3.056,2.059,6.317,3.982,9.593,5.783
	c3.289,1.801,6.645,3.479,10.059,5.022c6.829,3.082,13.903,5.644,21.173,7.343l1.253,0.293l-0.316,1.237L169.119,485.87
	l-0.235,0.922l-0.906-0.197c-6.247-1.364-12.273-3.213-18.264-5.262c-5.977-2.062-11.86-4.387-17.639-6.945
	c-11.554-5.123-22.692-11.188-33.214-18.188c-21.041-13.971-39.588-31.877-53.522-52.982c-6.979-10.531-12.809-21.813-17.41-33.567
	c-4.605-11.757-7.984-23.978-10.235-36.386c-2.27-12.409-3.414-25.012-3.634-37.613c-0.057-3.151-0.054-6.305,0.005-9.454
	l0.022-1.183l-0.03-1.166l-0.015-2.367c0.006-1.578,0.039-3.153,0.092-4.729c0.217-6.303,0.744-12.589,1.513-18.844
	c3.113-25.001,10.055-49.6,21.224-72.207c5.582-11.296,12.254-22.055,19.951-32.028c7.7-9.97,16.451-19.13,26.082-27.25
	c19.257-16.292,41.963-28.233,65.877-36.061C172.729,82.489,197.823,78.528,222.946,77.154z M222.946,77.154
	c-25.122,1.401-50.209,5.389-74.139,13.285c-23.897,7.85-46.576,19.811-65.798,36.108c-9.613,8.123-18.345,17.283-26.025,27.25
	c-7.688,9.964-14.3,20.745-19.844,32.037c-11.081,22.608-17.931,47.186-20.958,72.139c-0.747,6.243-1.253,12.516-1.449,18.799
	c-0.048,1.57-0.076,3.142-0.077,4.711l0.022,2.354l0.034,1.192l-0.019,1.181c-0.049,3.144-0.042,6.287,0.024,9.431
	c0.26,12.569,1.44,25.128,3.74,37.485c2.301,12.354,5.735,24.498,10.376,36.168c4.638,11.67,10.492,22.854,17.48,33.277
	c13.952,20.893,32.455,38.563,53.414,52.321c10.48,6.896,21.568,12.857,33.06,17.882c5.747,2.508,11.596,4.782,17.531,6.797
	c5.928,1.996,11.975,3.807,18.038,5.1l-1.142,0.723l25.202-100.866l0.936,1.53c-7.479-1.707-14.714-4.284-21.688-7.389
	c-3.487-1.555-6.911-3.244-10.268-5.061c-3.362-1.826-6.637-3.73-9.868-5.882l2.097-0.731l-3.335,11.049l-1.789-1.744l3.946-1.324
	l2.003-0.67c0.786-0.246,1.643-0.389,2.523-0.358c1.784,0.041,3.491,0.92,4.65,2.069c0.595,0.574,1.094,1.205,1.522,1.867
	c0.433,0.683,0.776,1.312,1.099,2.144l0.053,0.137l0.021,0.178c0.347,2.892,0.357,5.746,0.246,8.58
	c-0.117,2.834-0.372,5.646-0.705,8.439c-0.334,2.795-0.749,5.571-1.224,8.34c-0.479,2.772-1.002,5.512-1.622,8.283l-0.051,0.229
	l-0.129,0.217c-0.946,1.574-2.07,3.099-3.503,4.41c-1.423,1.305-3.226,2.381-5.253,2.805c-2.024,0.435-4.132,0.179-5.972-0.491
	c-0.926-0.332-1.799-0.761-2.623-1.259c-0.837-0.514-1.566-1.021-2.369-1.752l2.659-1.493c0.97,4.381,1.417,8.768,1.715,13.147
	c0.143,2.191,0.236,4.383,0.289,6.572c0.05,2.197,0.068,4.369,0.025,6.592l-0.008,0.451l-0.245,0.387
	c-0.673,1.062-1.412,2.115-2.411,3.094c-0.506,0.484-1.079,0.957-1.813,1.332c-0.719,0.373-1.66,0.638-2.63,0.531
	c-0.97-0.096-1.829-0.531-2.46-1.031c-0.643-0.504-1.124-1.069-1.533-1.643c-0.812-1.172-1.339-2.293-1.793-3.625l-0.253-0.74
	l0.45-0.684c0.257-0.394,0.472-1.26,0.557-2.115c0.093-0.875,0.109-1.809,0.081-2.754c-0.057-1.891-0.269-3.826-0.542-5.758
	c-0.276-1.933-0.621-3.865-1.007-5.793c-0.388-1.924-0.819-3.865-1.292-5.744l3.448-0.172l-5.194,35.055l-0.051,0.342l-0.17,0.297
	c-0.63,1.097-1.33,2.191-2.356,3.22c-0.518,0.506-1.129,1.006-1.933,1.381c-0.786,0.377-1.831,0.569-2.797,0.389
	c-0.969-0.168-1.77-0.619-2.392-1.104c-0.628-0.492-1.116-1.035-1.542-1.584c-0.848-1.127-1.435-2.203-1.97-3.505l-0.178-0.434
	l0.075-0.514l4.719-32.652l3.851,0.857l-5.716,19.213l-0.151,0.508l-0.379,0.365c-0.913,0.881-1.887,1.737-3.079,2.483
	c-0.596,0.371-1.255,0.716-2.026,0.97c-0.768,0.246-1.682,0.411-2.676,0.26c-0.993-0.142-1.956-0.646-2.627-1.271
	c-0.684-0.623-1.136-1.319-1.486-1.996c-0.348-0.68-0.588-1.354-0.778-2.024c-0.188-0.691-0.319-1.289-0.41-2.084l-0.04-0.346
	l0.101-0.382l3.806-14.409l1.647,2.612c-1.83-0.342-3.656-0.916-5.37-1.812c-0.856-0.449-1.683-0.976-2.459-1.594
	c-0.388-0.312-0.764-0.644-1.125-1.009c-0.181-0.182-0.358-0.373-0.533-0.575c-0.188-0.228-0.317-0.369-0.566-0.742l0.594,0.614
	c-1.231-0.868-1.84-1.979-2.275-2.954c-0.424-0.998-0.674-1.959-0.862-2.9c-0.366-1.881-0.487-3.693-0.539-5.488
	c-0.084-3.586,0.152-7.088,0.487-10.565c0.343-3.478,0.809-6.927,1.348-10.355c0.545-3.438,1.149-6.83,1.861-10.268l0.031-0.146
	l0.046-0.123c0.627-1.678,1.548-2.817,2.475-3.893c0.47-0.529,0.957-1.023,1.457-1.496c0.513-0.48,0.991-0.906,1.59-1.383
	l-0.596,2.774c-2.325-4.397-3.821-9.035-5.006-13.688c-1.17-4.66-1.987-9.363-2.619-14.074c-1.25-9.424-1.767-18.877-1.959-28.312
	c-0.339-18.877,0.618-37.701,2.191-56.453c0.399-4.688,0.841-9.373,1.341-14.053l0.787-7.021l0.431-3.515
	c0.171-1.305,0.381-2.405,0.603-3.611c1.802-9.441,4.869-18.538,8.61-27.28c3.754-8.744,8.202-17.149,13.108-25.255
	c2.455-4.053,5.029-8.031,7.717-11.933c2.704-3.909,5.456-7.709,8.486-11.478l0.082-0.102l0.115-0.111
	c6.579-6.308,14.136-11.54,22.198-15.682c8.067-4.148,16.626-7.231,25.359-9.455c8.739-2.224,17.658-3.602,26.608-4.312
	c8.954-0.705,17.942-0.761,26.902-0.164c2.241,0.15,4.48,0.342,6.722,0.589c1.123,0.125,2.24,0.26,3.38,0.424l0.439,0.066
	l0.512,0.101l0.827,0.17l1.653,0.354c4.402,0.97,8.762,2.149,13.049,3.561c8.576,2.815,16.866,6.535,24.652,11.119
	c15.601,9.154,29.028,21.794,39.567,36.386c5.282,7.295,9.885,15.069,13.771,23.188c1.939,4.061,3.705,8.207,5.25,12.452
	c0.771,2.137,1.485,4.241,2.119,6.512l0.077,0.306l0.044,0.204l0.09,0.408l0.176,0.816l0.352,1.635l0.677,3.273
	c3.53,17.474,5.755,35.245,6.257,53.103c0.506,17.847-0.68,35.789-4.053,53.375c-1.691,8.787-3.926,17.482-6.824,25.976
	c-1.451,4.246-3.068,8.438-4.891,12.555c-0.912,2.059-1.875,4.096-2.905,6.109c-1.05,2.028-2.088,3.963-3.399,6.002l-2.323-3.355
	c0.802-0.188,1.62-0.141,2.3,0.027c0.688,0.166,1.266,0.432,1.773,0.723c1.013,0.588,1.785,1.273,2.49,1.974
	c0.697,0.704,1.312,1.436,1.885,2.186c0.578,0.764,1.084,1.486,1.613,2.357l0.101,0.163l0.069,0.191
	c0.816,2.256,1.232,4.543,1.449,6.797c0.217,2.258,0.236,4.494,0.143,6.707c-0.197,4.424-0.823,8.762-1.666,13.035
	c-0.424,2.137-0.905,4.256-1.441,6.365c-0.27,1.053-0.551,2.104-0.852,3.153l-0.467,1.58c-0.218,0.709-0.526,1.381-0.986,2.037
	c-0.899,1.33-2.454,2.248-3.868,2.545c-1.431,0.328-2.753,0.258-3.979,0.082c-1.228-0.186-2.373-0.502-3.479-0.881
	c-1.12-0.395-2.13-0.811-3.249-1.385l2.979-2.43c0.238,0.858,0.319,1.561,0.396,2.268c0.07,0.699,0.109,1.375,0.139,2.047
	c0.053,1.34,0.053,2.652,0.037,3.961c-0.037,2.615-0.156,5.203-0.305,7.787c-0.305,5.168-0.727,10.293-1.234,15.443l-0.055,0.555
	l-0.323,0.432c-0.767,1.023-1.604,2.039-2.762,2.951c-0.584,0.449-1.261,0.879-2.108,1.168c-0.832,0.293-1.896,0.385-2.861,0.119
	c-0.969-0.258-1.752-0.787-2.344-1.338c-0.598-0.559-1.043-1.156-1.422-1.756c-0.75-1.226-1.229-2.363-1.635-3.736l-0.357-1.217
	l1.099-0.887c-0.248,0.198-0.185,0.205-0.158,0.131c0.041-0.08,0.099-0.23,0.151-0.392c0.106-0.336,0.201-0.745,0.279-1.17
	c0.156-0.854,0.264-1.776,0.344-2.705c0.16-1.86,0.229-3.772,0.262-5.686c0.061-3.826-0.018-7.705-0.182-11.533l3.812,0.023
	c-0.404,6.151-1.18,12.289-2.432,18.348c-0.627,3.027-1.369,6.037-2.26,9.01c-0.447,1.488-0.932,2.968-1.463,4.435
	c-0.546,1.483-1.084,2.889-1.818,4.42l-0.186,0.389l-0.355,0.256c-1.021,0.74-2.098,1.459-3.481,1.961
	c-0.694,0.24-1.487,0.441-2.427,0.382c-0.93-0.041-1.989-0.48-2.674-1.162c-0.699-0.67-1.09-1.431-1.357-2.132
	c-0.265-0.706-0.41-1.389-0.511-2.055c-0.187-1.348-0.2-2.555-0.085-3.914l0.059-0.692l0.539-0.459
	c0.305-0.261,0.67-0.781,0.969-1.361c0.306-0.586,0.575-1.242,0.816-1.924c0.48-1.365,0.859-2.824,1.186-4.301
	c0.646-2.962,1.092-6.013,1.457-9.074c0.361-3.064,0.635-6.15,0.85-9.242c0.212-3.088,0.374-6.201,0.461-9.275l3.3,0.474
	c-1.517,5.532-3.455,10.946-5.81,16.178c-1.178,2.615-2.459,5.186-3.854,7.697c-1.412,2.521-2.863,4.942-4.624,7.364l-0.325,0.447
	l-0.553,0.137c-1.16,0.285-2.36,0.517-3.672,0.541c-0.654,0.011-1.346-0.039-2.068-0.217c-0.717-0.178-1.495-0.514-2.148-1.1
	c-0.658-0.578-1.113-1.377-1.326-2.135c-0.222-0.767-0.261-1.496-0.229-2.179c0.088-1.385,0.392-2.537,0.898-3.795l0.237-0.59
	l0.602-0.23c0.457-0.174,1.115-0.803,1.646-1.514c0.548-0.723,1.049-1.549,1.51-2.408c0.923-1.725,1.709-3.58,2.431-5.463
	c0.721-1.887,1.372-3.811,1.979-5.752c0.602-1.938,1.17-3.914,1.666-5.856l2.746,1.088c-0.319,0.535-0.667,0.787-0.962,0.996
	c-0.301,0.205-0.58,0.346-0.852,0.471c-0.539,0.24-1.05,0.408-1.555,0.555c-0.505,0.144-1.003,0.261-1.501,0.363
	c-0.503,0.104-0.979,0.188-1.514,0.266l0.135-0.024c-0.831,0.196-1.681,0.049-2.325-0.217c-0.656-0.267-1.176-0.625-1.636-0.996
	c-0.911-0.754-1.604-1.586-2.238-2.433c-0.631-0.85-1.187-1.723-1.703-2.608c-0.518-0.898-0.984-1.775-1.438-2.742l-0.032-0.07
	l-0.017-0.053c-0.356-1.117-0.421-1.982-0.525-2.908c-0.087-0.908-0.139-1.799-0.177-2.688c-0.074-1.775-0.094-3.535-0.092-5.293
	c0.006-3.517,0.097-7.017,0.22-10.513c0.125-3.498,0.286-6.989,0.479-10.481l0.074-1.312l0.02-0.328l0.017-0.235l0.026-0.189
	c0.03-0.252,0.078-0.504,0.131-0.754c0.219-1.004,0.625-1.992,1.21-2.859c0.58-0.87,1.326-1.612,2.153-2.204
	c0.415-0.298,0.849-0.56,1.302-0.783c0.471-0.23,0.877-0.41,1.479-0.582l0.06-0.019l0.086-0.012l3.364-0.473l-1.026,1.85
	l-5.254-12.014l2.167,0.313c-0.592,0.67-1.176,1.088-1.765,1.511c-0.589,0.405-1.181,0.77-1.776,1.116
	c-1.19,0.691-2.394,1.312-3.604,1.91c-2.423,1.191-4.872,2.277-7.335,3.328c-4.931,2.09-9.896,4.027-14.921,5.875l0.755-1.44
	l25.688,99.428l-1.194-0.66c23.442-7.342,45.978-17.971,65.81-32.535c9.91-7.268,19.123-15.49,27.412-24.57
	c8.293-9.073,15.652-19.004,21.967-29.559c12.637-21.125,21.057-44.693,25.369-68.932c2.137-12.125,3.347-24.439,3.245-36.752
	c-0.367-12.306-1.531-24.611-3.399-36.789c-3.768-24.338-10.783-48.305-22.069-70.257c-11.212-21.959-26.875-41.659-45.896-57.371
	c-18.994-15.77-41.125-27.558-64.447-35.536c-11.67-3.998-23.651-7.076-35.791-9.267c-6.07-1.094-12.181-1.966-18.316-2.595
	C235.278,77.561,229.115,77.126,222.946,77.154z"/>
<path fill="#B3E0E0" d="M111.84,381.954l11.04,11.041c0,0-1.92,23.039-12.48,19.199C110.4,412.194,103.697,393.194,111.84,381.954z"
	/>
<path d="M111.84,381.954c2.164,1.518,4.239,3.121,6.278,4.762c2.057,1.623,4.047,3.314,6.021,5.021l0.542,0.467l-0.026,0.94
	c-0.065,2.312-0.293,4.507-0.678,6.753c-0.381,2.235-0.932,4.465-1.767,6.686c-0.875,2.193-1.955,4.469-4.085,6.402
	c-1.058,0.953-2.499,1.758-4.096,2.014c-1.595,0.27-3.167,0.004-4.469-0.494l-1.146-0.438l-0.332-1.054
	c-0.861-2.729-1.388-5.315-1.756-8.032c-0.345-2.693-0.491-5.425-0.312-8.154c0.173-2.723,0.638-5.457,1.587-8.031
	C108.523,386.223,109.925,383.797,111.84,381.954z M111.84,381.954c-1.157,2.387-1.817,4.863-2.139,7.354
	c-0.298,2.498-0.302,5.002-0.101,7.494c0.21,2.49,0.598,4.97,1.132,7.418c0.529,2.422,1.203,4.933,1.985,7.154l-1.477-1.49
	c1.515,0.478,2.451,0.297,3.607-0.651c1.13-0.986,2.138-2.671,2.918-4.47c0.803-1.811,1.429-3.785,1.98-5.795
	c0.537-2.002,1.005-4.106,1.359-6.123l0.516,1.408c-1.705-1.975-3.395-3.965-5.018-6.021
	C114.961,386.192,113.356,384.118,111.84,381.954z"/>
<path fill="#B3E0E0" d="M135.84,394.434c0,0,2.418-5.102,17.28-8.159c0,0,4.319,20.159-3.36,25.438
	C149.76,411.713,134.697,402.153,135.84,394.434z"/>
<path d="M135.84,394.434c0.603-1.577,1.885-2.813,3.162-3.909c1.326-1.062,2.765-1.982,4.264-2.769
	c3.005-1.563,6.202-2.674,9.434-3.529l1.926-0.512l0.539,2.121c0.587,2.309,0.987,4.531,1.276,6.844
	c0.271,2.299,0.426,4.631,0.347,7c-0.068,2.371-0.352,4.785-1.101,7.224c-0.385,1.213-0.898,2.438-1.64,3.604
	c-0.746,1.158-1.747,2.265-3,3.076l-1.345,0.873l-1.159-0.826c-1.691-1.207-3.195-2.436-4.679-3.787
	c-1.471-1.346-2.867-2.783-4.139-4.342c-1.268-1.561-2.408-3.26-3.237-5.137C135.678,398.522,135.188,396.327,135.84,394.434z
	 M135.84,394.434c0.093,1.974,1.062,3.601,2.169,5.041c1.125,1.447,2.488,2.711,3.89,3.916c1.411,1.203,2.902,2.322,4.428,3.394
	c1.518,1.057,3.116,2.119,4.649,3.014l-2.503,0.045c1.175-0.899,1.996-2.496,2.504-4.346c0.523-1.851,0.736-3.91,0.839-5.998
	c0.08-2.092,0.04-4.232-0.1-6.379c-0.134-2.133-0.348-4.34-0.641-6.408l2.465,1.609c-3.132,0.467-6.245,1.039-9.276,1.907
	c-1.512,0.438-3.018,0.927-4.448,1.595c-0.724,0.317-1.431,0.678-2.103,1.104C137.04,393.346,136.379,393.811,135.84,394.434z"/>
<path fill="#B3E0E0" d="M319.199,404.995c0,0,12.857-15.183,16.32-12.48c0,0,8.157,15.14-1.439,25.92
	C334.08,418.434,317.916,413.274,319.199,404.995z"/>
<path d="M319.199,404.995c0.906-1.568,1.928-3.053,2.984-4.521c1.088-1.438,2.19-2.877,3.414-4.231
	c1.221-1.359,2.504-2.676,4.01-3.883c0.758-0.605,1.565-1.181,2.59-1.672c0.516-0.242,1.099-0.472,1.863-0.576
	c0.732-0.109,1.869-0.002,2.791,0.692l0.332,0.25l0.242,0.433c0.672,1.188,1.162,2.237,1.627,3.399
	c0.451,1.144,0.862,2.306,1.178,3.5c0.653,2.383,1.022,4.877,1.021,7.42c-0.022,2.539-0.431,5.138-1.377,7.57
	c-0.927,2.437-2.381,4.674-4.165,6.506l-1.064,1.094l-1.228-0.467c-1.842-0.699-3.468-1.506-5.118-2.428
	c-1.629-0.926-3.203-1.971-4.656-3.199c-1.451-1.221-2.779-2.664-3.74-4.358c-0.467-0.855-0.811-1.789-0.954-2.746
	C318.807,406.823,318.896,405.852,319.199,404.995z M319.199,404.995c0.051,1.842,0.894,3.385,2.046,4.572
	c1.131,1.223,2.563,2.149,4.032,2.985c1.481,0.828,3.047,1.535,4.643,2.166c1.58,0.625,3.27,1.197,4.823,1.637l-2.292,0.628
	c1.268-1.603,2.242-3.361,2.871-5.253c0.623-1.891,0.931-3.899,0.931-5.952c0.024-2.056-0.248-4.148-0.705-6.222
	c-0.241-1.035-0.508-2.071-0.839-3.09c-0.328-0.992-0.717-2.072-1.098-2.926l0.574,0.68c0.211,0.148,0.41,0.094,0.264,0.078
	c-0.12-0.016-0.396,0.021-0.698,0.123c-0.616,0.201-1.327,0.572-2.028,0.977c-1.41,0.835-2.817,1.855-4.207,2.91
	C324.725,400.422,322.014,402.735,319.199,404.995z"/>
<path fill="#B3E0E0" d="M201.6,387.713c0,0,31.971,5.215,50.4-0.959c0,0,29.756,97.92,26.4,98.879c0,0-40.563,20.221-102.241,2.4
	C176.16,488.034,190.718,404.213,201.6,387.713z"/>
<path d="M201.6,387.713c4.204,0.506,8.426,0.82,12.646,1.039c4.219,0.229,8.442,0.324,12.654,0.246
	c4.21-0.07,8.414-0.295,12.565-0.816c4.144-0.526,8.255-1.334,12.113-2.688l1.269-0.443l0.424,1.316
	c2.617,8.147,5.236,16.289,7.763,24.463c2.524,8.174,5.021,16.357,7.476,24.555c2.421,8.209,4.786,16.437,7.056,24.703
	c1.129,4.135,2.242,8.277,3.268,12.463c0.505,2.097,0.992,4.197,1.43,6.34c0.217,1.072,0.423,2.152,0.593,3.279
	c0.083,0.568,0.16,1.137,0.206,1.779c0.021,0.324,0.038,0.662,0.021,1.088c-0.015,0.227-0.025,0.455-0.113,0.842l-0.086,0.31
	c-0.057,0.155-0.128,0.319-0.208,0.473c-0.026,0.057-0.104,0.186-0.199,0.313c-0.091,0.121-0.191,0.238-0.299,0.347
	c-0.08,0.088-0.28,0.252-0.478,0.367c-0.199,0.12-0.416,0.215-0.629,0.278l0.414-0.16c-2.171,1.035-4.182,1.806-6.301,2.572
	c-2.098,0.75-4.213,1.426-6.343,2.043c-4.258,1.232-8.572,2.23-12.919,3.029c-8.7,1.567-17.525,2.303-26.338,2.354
	c-8.814,0.043-17.625-0.592-26.318-1.944c-8.696-1.33-17.281-3.293-25.693-5.793l-1.848-0.55l0.349-1.848
	c1.607-8.533,3.339-17.01,5.135-25.488c1.785-8.477,3.757-16.916,5.803-25.336c2.052-8.418,4.311-16.791,6.812-25.096
	c1.281-4.143,2.634-8.266,4.157-12.33c0.761-2.031,1.59-4.039,2.492-6.014C199.382,391.442,200.36,389.491,201.6,387.713z
	 M201.6,387.713c-1.118,1.855-1.956,3.853-2.729,5.863c-0.769,2.016-1.437,4.065-2.085,6.123c-1.288,4.117-2.404,8.289-3.448,12.477
	c-2.131,8.363-3.919,16.816-5.688,25.271c-1.763,8.453-3.337,16.948-4.934,25.438c-1.576,8.49-3.069,17.01-4.469,25.515L176.748,486
	c8.274,2.318,16.69,4.102,25.185,5.266c8.494,1.146,17.056,1.765,25.612,1.67c8.553-0.088,17.094-0.873,25.488-2.395
	c4.198-0.748,8.36-1.689,12.45-2.85c2.044-0.58,4.07-1.218,6.064-1.918c1.969-0.695,4.018-1.486,5.771-2.312l0.25-0.119l0.164-0.043
	c-0.184,0.049-0.371,0.127-0.541,0.23c-0.169,0.1-0.336,0.252-0.398,0.311c-0.087,0.08-0.166,0.172-0.236,0.269
	c-0.073,0.104-0.13,0.207-0.146,0.229c-0.053,0.09-0.097,0.193-0.126,0.289c-0.015,0.037-0.026,0.076-0.035,0.113
	c-0.026,0.129-0.015,0.09-0.014,0.049c0.005-0.107,0.003-0.303-0.012-0.514c-0.026-0.425-0.088-0.914-0.157-1.404
	c-0.144-0.988-0.332-2.01-0.533-3.033c-0.408-2.049-0.874-4.113-1.36-6.176c-0.963-4.131-1.991-8.266-3.054-12.396
	c-2.125-8.258-4.373-16.497-6.639-24.731c-2.238-8.244-4.521-16.479-6.832-24.707l-6.919-24.689l1.692,0.873
	c-4.185,1.318-8.475,1.927-12.741,2.277c-4.272,0.336-8.542,0.383-12.795,0.242C218.381,390.211,209.93,389.258,201.6,387.713z"/>
<path fill="#E6B3C9" d="M165.014,34.074c0,0,20.955-35.234,58.212-33.414c37.257,1.82,64.374,29.125,64.815,57.223
	c0.441,28.098-21.99,52.375-41.024,56.737v8.855c0,0,0.626,18.698-23.704,21.602c0,0-24.318-3.055-23.701-21.602v-12.34
	c0,0-2.303-23.294,29.284-36.474c0,0,11.938-2.282,11.763-15.481c0,0-0.457-14.439-17.566-15.319c0,0-10.844-1.701-15.477,8.959
	c0,0-7.836,17.515-31.484,10.088C176.131,62.909,156.045,54.167,165.014,34.074z"/>
<path d="M165.014,34.074c2.655-4.238,5.82-8.142,9.236-11.789c3.44-3.627,7.155-7.009,11.202-9.961
	c4.046-2.945,8.383-5.517,12.987-7.53c4.603-2.009,9.473-3.444,14.463-4.184c4.991-0.774,10.084-0.736,15.102-0.304
	c5.029,0.433,10.023,1.366,14.894,2.777c9.723,2.844,18.979,7.603,26.824,14.235c7.822,6.613,14.3,15.102,17.993,24.946
	c1.842,4.907,2.983,10.139,3.172,15.461c0.198,5.274-0.376,10.573-1.63,15.697c-2.488,10.278-7.724,19.746-14.662,27.673
	c-3.485,3.961-7.425,7.559-11.85,10.583c-4.441,2.984-9.351,5.476-14.847,6.789l3.065-3.847l0.019,5.511l0.006,2.756l0.003,0.671
	c0.001,0.354-0.01,0.64-0.025,0.935c-0.033,0.58-0.089,1.134-0.163,1.683c-0.597,4.342-2.314,8.502-5.049,11.963
	c-2.723,3.466-6.369,6.065-10.191,7.764c-3.836,1.724-7.844,2.615-11.786,3.065l-0.516,0.059l-0.438-0.062
	c-0.684-0.097-1.16-0.188-1.718-0.297c-0.538-0.107-1.068-0.224-1.594-0.35c-1.053-0.252-2.092-0.538-3.124-0.861
	c-2.062-0.645-4.093-1.432-6.075-2.403c-3.927-1.95-7.771-4.694-10.539-8.646c-1.376-1.958-2.423-4.203-3.022-6.537
	c-0.302-1.166-0.5-2.35-0.598-3.527c-0.043-0.588-0.074-1.175-0.076-1.759c-0.01-0.293,0.008-0.581,0.012-0.872l0.014-0.678
	l0.18-11.899l0.016,0.327c-0.035-0.48-0.032-0.715-0.034-1.051l0.021-0.91c0.026-0.597,0.072-1.181,0.134-1.76
	c0.125-1.157,0.314-2.292,0.559-3.411c0.488-2.236,1.197-4.403,2.09-6.48c1.786-4.157,4.321-7.928,7.32-11.186
	c2.995-3.271,6.468-6.005,10.133-8.31c3.673-2.302,7.557-4.174,11.53-5.719l0.264-0.103l0.169-0.028
	c0.261-0.042,0.741-0.166,1.12-0.285c0.402-0.125,0.804-0.271,1.199-0.432c0.79-0.325,1.555-0.718,2.271-1.173
	c1.438-0.909,2.683-2.08,3.631-3.468c0.951-1.387,1.604-2.991,1.951-4.706c0.178-0.856,0.275-1.741,0.319-2.636l0.019-0.606
	c-0.004-0.181-0.021-0.401-0.043-0.612c-0.043-0.428-0.11-0.865-0.195-1.298c-0.678-3.487-2.549-6.751-5.414-8.898
	c-2.854-2.187-6.564-3.197-10.304-3.47l-0.059-0.004l-0.051-0.007c-2.023-0.281-4.329-0.086-6.372,0.556
	c-2.07,0.643-3.973,1.793-5.487,3.367c-0.759,0.784-1.422,1.668-1.99,2.617c-0.286,0.474-0.546,0.964-0.783,1.469
	c-0.263,0.565-0.573,1.077-0.892,1.58c-1.282,2.007-2.875,3.787-4.694,5.296c-3.633,3.038-8.238,4.806-12.897,5.158
	c-4.675,0.391-9.333-0.474-13.729-1.891l-0.011-0.004l-0.005-0.002c-2.632-1.274-5.018-2.984-7.106-5.005
	c-2.079-2.024-3.809-4.431-4.914-7.117c-1.116-2.681-1.542-5.631-1.298-8.517C162.979,39.523,163.832,36.711,165.014,34.074z
	 M165.014,34.074c-1.169,2.642-2.008,5.457-2.224,8.345c-0.23,2.882,0.21,5.819,1.333,8.481c1.114,2.671,2.885,5.028,4.972,7.01
	c2.096,1.973,4.503,3.642,7.099,4.853l-0.016-0.006c4.392,1.334,9.028,2.02,13.568,1.522c4.532-0.47,8.894-2.301,12.278-5.291
	c1.693-1.484,3.166-3.229,4.316-5.146c0.28-0.481,0.547-0.973,0.75-1.464c0.23-0.551,0.489-1.092,0.777-1.62
	c0.574-1.056,1.262-2.061,2.071-2.971c1.612-1.828,3.723-3.234,6.03-4.056c1.152-0.417,2.35-0.696,3.561-0.854
	c1.23-0.148,2.401-0.207,3.725-0.064l-0.109-0.012c4.01,0.121,8.208,1.039,11.727,3.452c3.538,2.377,6.01,6.208,7.02,10.326
	c0.129,0.518,0.238,1.042,0.32,1.581c0.041,0.273,0.076,0.538,0.102,0.844l0.022,0.857c0.002,1.055-0.061,2.121-0.226,3.186
	c-0.318,2.127-1.043,4.257-2.207,6.153c-1.158,1.9-2.736,3.539-4.535,4.807c-0.9,0.637-1.852,1.188-2.844,1.657
	c-0.496,0.233-1.003,0.447-1.523,0.638c-0.545,0.195-1,0.354-1.693,0.514l0.432-0.13c-3.678,1.647-7.206,3.579-10.453,5.85
	c-3.248,2.267-6.196,4.894-8.695,7.842c-2.494,2.95-4.502,6.256-5.844,9.785c-0.671,1.763-1.178,3.579-1.498,5.411
	c-0.159,0.915-0.272,1.834-0.331,2.741c-0.029,0.454-0.045,0.905-0.045,1.344l0.013,0.645c0.007,0.183,0.027,0.465,0.036,0.502
	l0.012,0.05l0.004,0.277l0.18,11.899l0.015,1.424c0.012,0.409,0.046,0.811,0.085,1.211c0.09,0.796,0.244,1.571,0.461,2.32
	c0.433,1.498,1.128,2.887,2.068,4.148c1.869,2.534,4.705,4.531,7.893,6.012c1.592,0.751,3.278,1.381,5.008,1.894
	c0.865,0.257,1.742,0.484,2.621,0.682c0.439,0.099,0.879,0.188,1.315,0.269c0.415,0.078,0.916,0.159,1.214,0.196l-0.953-0.003
	c3.342-0.439,6.58-1.217,9.453-2.522c2.873-1.299,5.354-3.132,7.172-5.466c1.816-2.313,3.037-5.167,3.446-8.104
	c0.052-0.361,0.089-0.722,0.109-1.059l0.016-0.442l0.001-0.707l0.006-2.756l0.019-5.511l0.011-3.171l3.055-0.676
	c4.266-0.944,8.473-2.951,12.346-5.482c3.879-2.546,7.493-5.615,10.699-9.079c6.422-6.924,11.306-15.346,13.964-24.411
	c1.313-4.536,2.024-9.248,2.045-13.972c0.016-4.68-0.745-9.391-2.191-13.92c-2.891-9.082-8.494-17.337-15.599-23.972
	c-7.118-6.651-15.777-11.732-25.126-14.859c-4.674-1.569-9.513-2.687-14.426-3.317c-4.914-0.661-9.891-0.799-14.813-0.18
	c-9.851,1.185-19.333,5.131-27.437,10.944c-4.064,2.895-7.856,6.184-11.295,9.809C170.871,25.962,167.688,29.85,165.014,34.074z"/>
<path fill="#E6B3C9" d="M223.314,151.074c0,0,23.232,0.753,23.791,21.681c0,0-0.459,19.137-23.791,21.682
	c0,0-22.752-0.408-23.792-21.682C199.522,172.755,198.146,156.666,223.314,151.074z"/>
<path d="M223.314,151.074c1.475,0.066,2.942,0.271,4.393,0.552c1.45,0.283,2.895,0.616,4.308,1.069
	c2.829,0.885,5.579,2.131,8.056,3.89c2.472,1.751,4.634,4.068,6.172,6.82c1.559,2.742,2.471,5.863,2.848,9.011
	c0.071,0.588,0.036,0.991,0.035,1.408c-0.013,0.416-0.037,0.825-0.072,1.233c-0.069,0.815-0.182,1.622-0.329,2.424
	c-0.301,1.603-0.738,3.195-1.357,4.735c-1.223,3.081-3.12,5.992-5.581,8.364c-2.446,2.389-5.404,4.218-8.499,5.483
	c-3.103,1.268-6.339,1.981-9.538,2.35l-0.265,0.03l-0.241-0.007c-0.586-0.019-0.935-0.053-1.381-0.094
	c-0.422-0.041-0.835-0.09-1.247-0.146c-0.822-0.111-1.631-0.252-2.437-0.417c-1.61-0.332-3.189-0.812-4.745-1.384
	c-3.097-1.164-6.089-2.857-8.626-5.165c-2.542-2.294-4.551-5.226-5.733-8.371c-1.197-3.15-1.596-6.438-1.522-9.578
	c0.055-3.469,1.31-6.508,2.987-9.15c1.704-2.637,3.951-4.79,6.411-6.506C211.91,154.198,217.601,152.359,223.314,151.074z
	 M223.314,151.074c-5.699,1.283-11.358,3.545-15.686,7.412c-2.149,1.915-3.895,4.24-4.98,6.783
	c-1.063,2.519-1.549,5.347-1.101,7.762c0.432,2.716,1.3,5.274,2.607,7.45c1.293,2.188,3.015,3.981,5.026,5.401
	c2.02,1.412,4.324,2.466,6.775,3.217c1.221,0.388,2.488,0.666,3.759,0.906c0.636,0.118,1.276,0.218,1.912,0.292l0.943,0.093
	c0.285,0.024,0.669,0.043,0.817,0.046l-0.505,0.023c5.324-0.572,10.366-2.047,14.361-5.073c1.997-1.504,3.729-3.4,5.091-5.626
	c0.677-1.112,1.278-2.297,1.755-3.543c0.238-0.622,0.45-1.257,0.627-1.898c0.089-0.32,0.168-0.642,0.238-0.959
	c0.062-0.316,0.142-0.651,0.145-0.8c0.167-2.744-0.088-5.531-1.026-8.153c-0.929-2.617-2.548-5.038-4.688-6.972
	c-2.129-1.95-4.717-3.43-7.461-4.474C229.173,151.919,226.259,151.275,223.314,151.074z"/>
<path fill="#FFFFFF" d="M143.04,360.874c0,0-15.013-21.418-17.28-31.199c0,0-11.423-91.682,14.4-124.321c0,0,8.026-3.873,8.16,5.28
	c0,0-18.842,13.218-15.84,62.4c0,0,4.618,0.1,10.56-3.359c0,0-2.623-32.903,8.16-55.681c0,0,7.038-4.62,8.16,4.801
	c0,0-13.023,16.579-7.2,48c0,0,14.118-2.021,18.72-4.8c0,0-3.202-23.16,7.2-42.72c0,0,6.417-5.841,8.16,4.8
	c0,0-11.222,15.817-6.24,36.479c0,0,8.558-0.502,11.52-1.921c0,0-2.743-27.022,3.36-42.721c0,0,6.224-5.42,9.12,3.361
	c0,0-10.242,17.858-2.88,38.399l4.8-0.96c0,0,0.537-36.7,4.8-45.6c0,0,5.977-7.882,9.12,3.359c0,0-8.282,17.28-4.319,41.761
	c0,0,35.521-2.881,45.121-2.399c0,0,0.857-25.562-14.4-51.84c0,0-1.922-11.281,8.16-5.28c0,0,15.598,36.2,15.84,57.602
	c0,0,5.879,2.979,10.561,1.438c0,0,6.076-16.24-9.121-44.64c0,0,0.479-9.702,8.641-4.801c0,0,11.498,24.319,10.08,51.36
	c0,0,10.715,4.799,14.398,1.92c0,0,4.078-23.982-9.119-43.681c0,0-0.521-8.981,8.641-3.84c0,0,9.997,19.16,10.079,50.4
	c0,0,8.25,3.828,17.761,5.762c0,0,5.459-24.203-15.358-63.361c0,0-0.404-10.021,8.639-3.84c0,0,14.598,32.54,16.32,75.36
	c0,0-0.043,6.319-8.16,4.319l-3.84-1.92c0,0,6.495,51.52-20.642,78.721c0,0-6.562,6.119-9.6,8.16c0,0,3.736,17.818,9.6,19.68
	c0,0-1.918-16.319-0.959-22.08c0,0,2.868-9.317,9.601,0.96c0,0-3.119,15.096,1.438,25.44c0,0,12.812-29.121,11.041-51.361
	c0,0,1.457-8.899,9.6,0c0,0-1.481,13.802-1.92,21.603c0,0,33.259-72.402-3.84-160.801c0,0-25.562-54.991-84.579-58.695
	c0,0-10.034,12.311-20.526,10.803c0,0,14.219,7.55,18.225,13.756c0,0,20.771,26.97-18.223,35.603c0,0-11.494-1.867-12.994-3.867
	c0,0-14.5-2-19-21c0,0-2.336-18.782,26.332-24.641c0,0-21.142-8.944-20.832-12.859c0,0-42.265,0.938-72.882,53.219
	c0,0-26.882,45.5-24,116.641c0,0,1.317,51.559,9.6,57.6c0,0-5.922-21.781-4.32-33.121c0,0,4.598-9.16,9.6,0
	c0,0-2.52,28.142,8.741,49.4c0,0,3.376-13.58,1.819-19.16c0,0,2.758-8.42,9.6,0l-0.96,11.041
	C139.68,373.834,145.598,363.534,143.04,360.874z"/>
</svg>
